<svg
  width="43"
  height="33"
  viewBox="0 0 430 330"
  xmlns="http://www.w3.org/2000/svg"
  fill="none">

  <!-- Outer circle -->
  <circle
    cx="215"
    cy="165"
    r="150"
    stroke="#F7931E"
    stroke-width="12"
  />

  <!-- Inner circle -->
  <circle
    cx="215"
    cy="165"
    r="132"
    stroke="#F7931E"
    stroke-width="6"
  />

  <!-- Lotus -->
  <path
    d="M215 105
       C190 135, 180 160, 215 190
       C250 160, 240 135, 215 105Z"
    fill="#F7931E"
  />
  <path
    d="M190 115
       C165 145, 170 175, 215 200
       C200 170, 200 140, 190 115Z"
    fill="#F7931E"
  />
  <path
    d="M240 115
       C265 145, 260 175, 215 200
       C230 170, 230 140, 240 115Z"
    fill="#F7931E"
  />

  <!-- Hands -->
  <path
    d="M130 210
       C90 190, 85 165, 110 160
       C135 155, 155 175, 170 200Z"
    fill="#F7931E"
  />
  <path
    d="M300 210
       C340 190, 345 165, 320 160
       C295 155, 275 175, 260 200Z"
    fill="#F7931E"
  />

</svg>