<svg width="86" height="86" viewBox="0 0 86 86" fill="none" xmlns="http://www.w3.org/2000/svg">
<path d="M54.4746 55.6725C55.233 55.6717 55.9709 55.4224 56.5776 54.9619L70.32 44.5852C71.3087 43.8381 72.0041 42.761 72.2829 41.5447L78.6732 13.6396C78.7908 13.1089 78.8 12.5596 78.7003 12.0252C78.6006 11.4908 78.3941 10.9827 78.0935 10.5318C77.7929 10.081 77.4045 9.69704 76.9521 9.40343C76.4997 9.10981 75.9928 8.91275 75.4625 8.8243L70.7914 8.08021C69.7673 7.91951 68.722 8.17445 67.8828 8.78957C67.0436 9.40469 66.4785 10.3302 66.3103 11.3648L65.1989 18.2952C63.7566 14.502 61.2146 11.2385 57.9066 8.9328C54.5986 6.62714 50.679 5.38701 46.662 5.37511L39.8405 5.375C35.7334 5.38318 31.7295 6.67801 28.379 9.08157C25.0286 11.4851 22.496 14.8795 21.1293 18.7981L19.8136 11.3372C19.63 10.305 19.0505 9.38807 18.2015 8.78631C17.3525 8.18456 16.3028 7.94679 15.2813 8.12482L10.4765 8.96991C9.94968 9.06655 9.44774 9.27057 9.00123 9.56957C8.55472 9.86857 8.17296 10.2563 7.87916 10.7092C7.58535 11.1621 7.38563 11.6707 7.29213 12.2041C7.19863 12.7376 7.21331 13.2847 7.33527 13.8122L13.9603 41.527C14.2426 42.7032 14.9148 43.746 15.8649 44.4816L29.3277 54.8891C30.1384 55.5287 31.1602 55.8304 32.1837 55.7322V58.9689C32.1866 59.5404 32.0015 60.0967 31.6575 60.55C31.3134 61.0033 30.8301 61.3279 30.2836 61.4726C23.3794 63.2617 13.3157 66.621 13.4955 76.0054L13.4953 79.2812C13.4953 79.6376 13.6352 79.9794 13.8843 80.2314C14.1334 80.4834 14.4712 80.625 14.8234 80.625H71.6533C72.0055 80.625 72.3433 80.4834 72.5924 80.2314C72.8415 79.9794 72.9814 79.6376 72.9814 79.2812V76.8063C73.1031 68.6215 64.0273 62.7722 55.1757 60.7205C54.6001 60.6006 54.083 60.2833 53.712 59.8223C53.3409 59.3612 53.1386 58.7846 53.1393 58.19V55.3816C53.5613 55.566 54.0149 55.6648 54.4746 55.6725ZM35.9809 51.4019C35.9578 50.5088 35.6476 49.6477 35.0974 48.9491L28.9535 41.1274C29.4009 40.6626 29.7344 40.0981 29.9271 39.4792C30.1198 38.8603 30.1664 38.2044 30.063 37.564C29.641 35.651 29.3603 30.842 28.3433 29.8236L27.2714 28.4223C29.5271 25.1586 33.9741 21.6968 40.5474 18.1137H44.8332C48.0744 18.129 51.2107 19.2774 53.7109 21.3644C56.211 23.4513 57.9213 26.3485 58.552 29.5652C57.8492 30.3008 57.379 31.2316 57.2013 32.2388C57.2297 32.3551 56.2878 39.1204 56.3966 38.9975C56.3942 39.8729 56.685 40.7233 57.2214 41.4102L51.6573 48.0993C51.2716 48.5673 50.9898 49.1137 50.831 49.7014C50.6722 50.2892 50.64 50.9046 50.7367 51.506C45.3549 54.8906 39.467 53.0983 35.9809 51.4019ZM67.3628 21.582L68.9328 11.7952C68.9866 11.4611 69.1687 11.1621 69.4395 10.9635C69.7104 10.7648 70.0478 10.6827 70.3783 10.7349L75.0488 11.4789C75.2206 11.5063 75.3849 11.5692 75.5316 11.6636C75.6783 11.7581 75.8042 11.8821 75.9015 12.0279C75.9987 12.1737 76.0653 12.3382 76.097 12.5112C76.1287 12.6841 76.1249 12.8619 76.0858 13.0333L69.6955 40.9384C69.5585 41.5355 69.2171 42.0643 68.7318 42.4311L54.9895 52.8078C54.8599 52.9056 54.7058 52.9648 54.5447 52.9786C54.3836 52.9924 54.2219 52.9603 54.0779 52.886C53.9339 52.8116 53.8133 52.698 53.7298 52.5579C53.6464 52.4178 53.6033 52.2568 53.6055 52.0933C53.4266 51.3501 53.095 50.4791 53.6959 49.8224L59.5439 42.7922C60.0428 42.9 60.5582 42.9028 61.0582 42.8004C61.5581 42.698 62.0319 42.4926 62.45 42.197C62.8682 41.9014 63.2217 41.5219 63.4886 41.0821C63.7556 40.6423 63.9302 40.1516 64.0017 39.6406L65.2857 31.9252C65.3367 31.5771 65.2507 31.2226 65.0461 30.9379C64.8416 30.6532 64.5349 30.461 64.1919 30.4026C63.8489 30.3442 63.4969 30.4242 63.2115 30.6255C62.9262 30.8268 62.7302 31.1332 62.6657 31.4791L61.383 39.1898C61.3329 39.497 61.1658 39.7721 60.9175 39.956C60.6693 40.14 60.3596 40.2182 60.0551 40.1738C59.7505 40.1294 59.4752 39.966 59.2884 39.7186C59.1015 39.4712 59.0179 39.1596 59.0556 38.8506C59.1523 38.5635 59.7552 31.9032 60.0873 31.956C60.6987 31.1396 65.36 24.9919 66.0942 24.0312C66.7332 23.3495 67.1724 22.5015 67.3628 21.582ZM63.6434 22.8466L60.5944 26.8616C59.5134 23.6949 57.5296 20.9229 54.8933 18.8957C52.2569 16.8684 49.0862 15.6765 45.7811 15.4705C49.952 13.5038 53.7769 11.9874 56.263 11.0574C58.2365 12.3945 59.9123 14.1337 61.1832 16.1638C62.4541 18.1939 63.292 20.47 63.6434 22.8466ZM39.8405 8.0625H46.6621C48.8962 8.06412 51.1086 8.50735 53.1747 9.36728C48.5292 11.1764 43.9895 13.2523 39.5779 15.585C32.9272 19.1799 28.2332 22.7434 25.573 26.2016L22.8849 22.687C23.537 18.6105 25.6005 14.9014 28.7066 12.2223C31.8126 9.54331 35.759 8.06889 39.8405 8.0625ZM30.9457 52.7579L17.4771 42.3466C17.0111 41.985 16.6814 41.4731 16.5426 40.8959L9.91751 13.181C9.87762 13.0107 9.87248 12.834 9.90241 12.6616C9.93235 12.4893 9.99673 12.3249 10.0916 12.1786C10.1865 12.0323 10.3099 11.9072 10.4542 11.8108C10.5986 11.7144 10.7609 11.6488 10.9311 11.6181L15.7365 10.773C16.066 10.7163 16.4043 10.7934 16.6781 10.9875C16.9518 11.1815 17.1389 11.4769 17.1988 11.8097L18.6573 20.0801C18.8796 21.3335 19.3968 22.5143 20.1651 23.5228L20.4265 23.8643C20.4633 23.9242 24.5407 29.2342 24.5738 29.286L26.2454 31.4712C26.5411 31.3956 27.3463 37.7485 27.4419 37.999C27.4962 38.3802 27.4003 38.7678 27.1748 39.0781C26.9493 39.3885 26.6122 39.5967 26.2364 39.658C25.8605 39.7193 25.4759 39.6287 25.1655 39.4057C24.8551 39.1827 24.6436 38.8453 24.5768 38.4661L23.4614 31.5512C23.3985 31.2053 23.204 30.8981 22.9198 30.6956C22.6355 30.4931 22.2841 30.4114 21.941 30.4681C21.5979 30.5248 21.2904 30.7154 21.0846 30.9988C20.8788 31.2823 20.791 31.6362 20.8402 31.9844L21.9569 38.9091C22.053 39.4737 22.2621 40.0125 22.5715 40.4923C22.8808 40.9722 23.2838 41.383 23.7558 41.6996C24.5613 42.2543 25.5443 42.4806 26.5077 42.3331L33.0294 50.6354C33.2416 50.9262 33.344 51.2842 33.3179 51.6447C33.2919 52.0053 33.1391 52.3444 32.8874 52.6009C32.6356 52.8574 32.3014 53.0142 31.9453 53.043C31.5891 53.0718 31.2346 52.9707 30.9457 52.7579ZM54.6555 63.3557C62.0776 65.0649 70.4635 70.0872 70.3253 76.8061L70.3252 77.9375H16.1515V76.0052C15.8768 68.2485 25.4698 65.553 30.9446 64.0762C32.062 63.783 33.0513 63.122 33.7566 62.1973C34.4618 61.2726 34.843 60.1368 34.84 58.9688V54.463C34.9723 54.3173 35.0939 54.162 35.2038 53.9983C37.9617 55.3401 40.9723 56.0672 44.0318 56.1304C46.2593 56.1422 48.462 55.6571 50.4831 54.7097V58.1901C50.4837 59.4057 50.8993 60.5838 51.6596 61.5251C52.4199 62.4664 53.4782 63.113 54.6555 63.3557Z" fill="#A87E09"/>
</svg>
