<svg width="86" height="86" viewBox="0 0 86 86" fill="none" xmlns="http://www.w3.org/2000/svg">
<g clip-path="url(#clip0_351_1203)">
<path d="M44.4162 21.5003C43.634 21.5005 42.9997 20.8591 42.9996 20.0677C42.9996 20.0675 42.9996 20.0672 42.9996 20.067C42.9462 18.2839 42.5119 16.5338 41.7262 14.9369C41.3952 14.2199 41.7014 13.3673 42.4099 13.0324C43.1184 12.6976 43.9613 13.0073 44.2922 13.7242C44.2931 13.7263 44.2942 13.7283 44.2951 13.7304C45.2565 15.7045 45.7813 17.8668 45.8329 20.067C45.833 20.8583 45.1991 21.5001 44.4169 21.5003C44.4167 21.5003 44.4164 21.5003 44.4162 21.5003Z" fill="#A87E09"/>
<path d="M80.3944 69.0842C86.0286 64.8147 87.175 56.7323 82.9551 51.0318C80.5475 47.7795 76.7656 45.8656 72.7494 45.8669H58.5828V43.0002H62.8328C65.18 43.0002 67.0828 41.0751 67.0828 38.7003C67.0828 36.3254 65.18 34.4003 62.8328 34.4003H54.955C56.8287 33.4737 58.5419 32.2467 60.0285 30.7667C66.4602 24.2594 66.4575 13.9601 66.454 13.5249C66.4476 12.7419 65.8216 12.1088 65.0477 12.1027C60.1203 12.2154 55.3042 13.6075 51.0616 16.1453C49.8536 11.3068 47.4173 6.87139 43.9938 3.27877C43.442 2.72999 42.5575 2.72999 42.0057 3.27877C38.5827 6.87104 36.1464 11.3057 34.9382 16.1436C30.7066 13.5795 25.8833 12.186 20.9515 12.1027C20.1777 12.1086 19.5515 12.7417 19.5453 13.5249C19.5418 13.9602 19.5391 24.2594 25.9707 30.7667C27.4648 32.25 29.1876 33.4772 31.0714 34.4003H23.1665C20.8193 34.4003 18.9165 36.3254 18.9165 38.7003C18.9165 41.0751 20.8193 43.0002 23.1665 43.0002H27.4164V45.8669H18.9165C8.74529 45.8669 0.5 54.2092 0.5 64.5001C0.5 74.7909 8.74529 83.1332 18.9165 83.1332H78.416C82.3283 83.1329 85.4996 79.9237 85.4993 75.9654C85.4989 72.7784 83.4189 69.9744 80.3944 69.0842ZM51.4666 19.3759C55.0308 16.8529 59.2055 15.3574 63.5445 15.049C63.3003 17.9549 62.2814 24.4328 58.0252 28.7398C54.7593 31.708 50.6653 33.5806 46.3054 34.1002C49.4541 30.0926 51.2718 25.1814 51.4996 20.0669C51.4996 19.8335 51.4758 19.607 51.4666 19.3759ZM42.9996 6.44068C44.8576 8.67613 48.6663 13.9993 48.6663 20.0671C48.6663 26.1349 44.8576 31.4581 42.9996 33.6935C41.1417 31.4581 37.333 26.1349 37.333 20.0671C37.333 13.9993 41.1417 8.67613 42.9996 6.44068ZM27.9739 28.7398C23.7315 24.4482 22.7057 17.9549 22.4574 15.0462C26.7968 15.3507 30.9719 16.8477 34.5325 19.3757C34.5233 19.6068 34.4995 19.8335 34.4995 20.0671C34.7276 25.181 36.5445 30.0919 39.6914 34.1004C35.3324 33.581 31.2389 31.7083 27.9739 28.7398ZM23.1665 40.1336C22.3841 40.1336 21.7498 39.4918 21.7498 38.7003C21.7498 37.9087 22.3841 37.2669 23.1665 37.2669H62.8328C63.6152 37.2669 64.2495 37.9087 64.2495 38.7003C64.2495 39.4918 63.6152 40.1336 62.8328 40.1336H23.1665ZM55.7495 43.0002V45.8669H30.2497V43.0002H55.7495ZM78.416 80.2666H18.9165C10.3102 80.2666 3.33331 73.2077 3.33331 64.5001C3.33331 55.7924 10.3102 48.7335 18.9165 48.7335H72.7494C78.2262 48.7335 82.666 53.2255 82.666 58.7668C82.666 64.308 78.2262 68.8 72.7494 68.8H18.9165C16.5693 68.8 14.6665 66.8749 14.6665 64.5001C14.6665 62.1252 16.5693 60.2001 18.9165 60.2001H72.7494C73.5317 60.2001 74.166 59.5583 74.166 58.7668C74.166 57.9752 73.5317 57.3334 72.7494 57.3334H18.9165C15.0046 57.3334 11.8332 60.5421 11.8332 64.5001C11.8332 68.458 15.0046 71.6667 18.9165 71.6667H78.416C80.7632 71.6667 82.666 73.5918 82.666 75.9666C82.666 78.3415 80.7632 80.2666 78.416 80.2666Z" fill="#A87E09"/>
<path d="M7.58316 65.9332C6.80099 65.9333 6.16668 65.2919 6.1665 64.5006V64.4998C6.16633 63.9613 6.19944 63.4232 6.26549 62.8888C6.36129 62.1031 7.06838 61.5449 7.84471 61.6418C8.62104 61.7387 9.173 62.4541 9.0772 63.2396C9.07702 63.2412 9.07684 63.2426 9.07667 63.2442C9.02549 63.6608 8.99981 64.0801 8.99981 64.4998C8.99999 65.2912 8.36604 65.933 7.58387 65.9332H7.58316Z" fill="#A87E09"/>
<path d="M10.0686 58.7672C9.28643 58.7669 8.65248 58.1251 8.65283 57.3337C8.65301 57.008 8.76262 56.6921 8.96397 56.4381C11.3785 53.374 15.0434 51.5926 18.9165 51.6006C19.6988 51.6006 20.3332 52.2424 20.3332 53.0339C20.3332 53.8255 19.6988 54.4673 18.9165 54.4673C15.9038 54.461 13.053 55.8465 11.1747 58.2297C10.9064 58.5701 10.4991 58.7681 10.0686 58.7672Z" fill="#A87E09"/>
</g>
<defs>
<clipPath id="clip0_351_1203">
<rect width="85" height="86" fill="white" transform="translate(0.5)"/>
</clipPath>
</defs>
</svg>
