<svg width="82" height="81" viewBox="0 0 82 81" fill="none" xmlns="http://www.w3.org/2000/svg">
<g clip-path="url(#clip0_351_1210)">
<path d="M80.149 64.1249H78.6492C82.3782 60.496 82.4593 54.5311 78.8304 50.8021C78.2546 50.2105 77.6036 49.6971 76.8942 49.2751C79.746 47.5721 81.4943 44.4968 81.499 41.1752C81.4922 35.959 77.2653 31.7321 72.0491 31.7253H59.8993V22.2754C59.8989 21.5299 59.2943 20.9256 58.5488 20.926C58.4803 20.926 58.4117 20.9312 58.3441 20.9417L42.3495 23.4013V22.1404C45.49 21.4946 47.7454 18.7319 47.7494 15.5255C47.7494 9.6342 42.1915 4.00747 41.9539 3.77123C41.4268 3.24423 40.5722 3.24423 40.0451 3.77123C39.8075 4.00747 34.2496 9.6342 34.2496 15.5255C34.2536 18.7319 36.5089 21.4946 39.6495 22.1404V23.8185L23.2445 26.3429C22.5866 26.4442 22.1006 27.0097 22.0997 27.6754V42.7155C21.1137 41.6521 19.9765 40.7395 18.7248 40.0075C18.3071 39.7663 17.7924 39.7663 17.3748 40.0075C13.3883 42.3239 10.6971 46.3537 10.0849 50.9234C9.15187 50.7321 8.20233 50.6322 7.24992 50.6251C6.65407 50.6278 6.05906 50.6664 5.46794 50.7412C4.98903 50.7989 4.57746 51.1077 4.38795 51.5512C1.63702 58.0041 3.78096 65.5017 9.52734 69.5249H0.5V72.2248H3.71566L6.04168 76.8782C6.27033 77.3359 6.73827 77.6249 7.24992 77.6248H58.5493C59.2948 77.6248 59.8993 77.0203 59.8993 76.2748V72.2248H68.5148L70.8409 76.8782C71.0695 77.3359 71.5375 77.6249 72.0491 77.6248H77.449C78.1946 77.6248 78.799 77.0203 78.799 76.2748V72.2248H80.149C80.8945 72.2248 81.499 71.6204 81.499 70.8748V65.4749C81.499 64.7294 80.8945 64.1249 80.149 64.1249ZM78.799 57.375C78.7946 61.101 75.7751 64.1205 72.0491 64.1249H47.7494C44.0216 64.1249 40.9995 61.1028 40.9995 57.375C40.9995 53.6472 44.0216 50.6251 47.7494 50.6251H65.2992C67.5359 50.6251 69.3491 52.4383 69.3491 54.675C69.3491 56.9118 67.5359 58.725 65.2992 58.725H51.7994C51.0538 58.725 50.4494 58.1205 50.4494 57.375C50.4494 56.6295 51.0538 56.025 51.7994 56.025H61.2492V53.3251H51.7994C49.5626 53.3251 47.7494 55.1383 47.7494 57.375C47.7494 59.6118 49.5626 61.425 51.7994 61.425H65.2992C69.0251 61.4206 72.0447 58.401 72.0491 54.675C72.0442 53.2096 71.5574 51.7866 70.664 50.6251H72.0491C75.7751 50.6295 78.7946 53.6491 78.799 57.375ZM67.9992 34.4253C70.2359 34.4253 72.0491 36.2385 72.0491 38.4752C72.0491 40.712 70.2359 42.5252 67.9992 42.5252H54.4993C53.7538 42.5252 53.1493 41.9207 53.1493 41.1752C53.1493 40.4297 53.7538 39.8252 54.4993 39.8252H63.9492V37.1253H54.4993C52.2626 37.1253 50.4494 38.9385 50.4494 41.1752C50.4494 43.412 52.2626 45.2252 54.4993 45.2252H67.9992C71.7251 45.2208 74.7447 42.2012 74.7491 38.4752C74.7477 37.0827 74.3117 35.7255 73.5017 34.5927C77.1372 35.4175 79.4158 39.0333 78.591 42.6688C77.8969 45.7284 75.1863 47.9062 72.0491 47.9251H65.2992H53.1493C49.4215 47.9251 46.3994 44.903 46.3994 41.1752C46.3994 37.4474 49.4215 34.4253 53.1493 34.4253H67.9992ZM36.9495 15.5255C36.9495 12.0736 39.5483 8.48402 40.9995 6.75064C42.4521 8.48267 45.0494 12.0655 45.0494 15.5255C45.0424 17.2356 43.9619 18.7571 42.3495 19.3271V16.8755H39.6495V19.3271C38.0371 18.7571 36.9566 17.2356 36.9495 15.5255ZM18.0498 42.7655C21.0658 44.7954 23.0187 48.0655 23.3755 51.6835C21.362 52.4876 19.5486 53.722 18.0619 55.3001C16.5645 53.728 14.7425 52.5012 12.7227 51.7051C13.0732 48.0789 15.0273 44.7996 18.0498 42.7655ZM24.8216 54.0119C26.1159 53.5573 27.4777 53.3251 28.8496 53.3251C29.0616 53.3251 29.283 53.3332 29.5138 53.348C31.7379 59.6789 28.4087 66.614 22.0778 68.8381C20.7835 69.2927 19.4215 69.5249 18.0498 69.5249C17.8378 69.5249 17.6164 69.5168 17.3856 69.5019C15.1615 63.171 18.4907 56.236 24.8216 54.0119ZM5.89993 57.375C5.89824 56.0034 6.1301 54.6416 6.58572 53.348C6.81657 53.3332 7.03797 53.3251 7.24992 53.3251C10.7457 53.3146 14.0729 54.8259 16.365 57.4655C14.1512 60.8681 13.4519 65.038 14.4345 68.9768C9.35707 67.3942 5.89892 62.6934 5.89993 57.375ZM28.0154 74.9248H8.08421L6.73422 72.2248H29.3653L28.0154 74.9248ZM40.9995 74.9248H31.0339L32.3839 72.2248H35.5996V69.5249H26.5614C32.3142 65.5073 34.4636 58.0073 31.7116 51.5525C31.5221 51.1091 31.1105 50.8002 30.6316 50.7425C29.0955 50.5451 27.5373 50.5998 26.0187 50.9045C25.8081 49.403 25.3679 47.9428 24.7133 46.5751H24.7997V28.8337L57.1993 23.8495V31.7253H53.1493C47.9371 31.7184 43.706 35.9383 43.6991 41.1506C43.6957 43.7382 44.7548 46.2137 46.6289 47.998C41.4539 48.6086 37.754 53.2987 38.3645 58.4737C38.6178 60.6209 39.6009 62.616 41.1493 64.1249H39.6495C38.904 64.1249 38.2995 64.7294 38.2995 65.4749V70.8748C38.2995 71.6204 38.904 72.2248 39.6495 72.2248H40.9995V74.9248ZM46.9151 74.9248H43.6995V72.2248H48.2651L46.9151 74.9248ZM57.1993 74.9248H49.9337L51.2837 72.2248H57.1993V74.9248ZM76.0991 74.9248H72.8834L71.5334 72.2248H76.0991V74.9248ZM78.799 69.5249H40.9995V66.8249H78.799V69.5249Z" fill="#A87E09"/>
<path d="M30.1995 31.7246H27.4995V42.5245H30.1995V31.7246Z" fill="#A87E09"/>
<path d="M30.1995 45.2246H27.4995V47.9246H30.1995V45.2246Z" fill="#A87E09"/>
</g>
<defs>
<clipPath id="clip0_351_1210">
<rect width="81" height="81" fill="white" transform="translate(0.5)"/>
</clipPath>
</defs>
</svg>
