<svg width="1920" height="1128" viewBox="0 0 1920 1128" fill="none" xmlns="http://www.w3.org/2000/svg">
<g clip-path="url(#clip0_639_1397)">
<rect width="1920" height="1128" fill="#FFFCF9"/>
<ellipse cx="1766.5" cy="564" rx="530.5" ry="369" fill="url(#paint0_radial_639_1397)"/>
<path opacity="0.2" d="M-54.8898 233.896C-49.5771 247.359 -56.7318 248.892 -69.1896 264.369C-73.7069 269.981 -73.9738 272.671 -76.6027 275.723C-96.9529 299.347 -107.885 331.354 -108.268 337.033C-108.386 338.77 -115.013 345.952 -115.592 355.512C-116.021 362.584 -130.776 388.262 -131.686 390.277C-138.289 404.846 -133.277 408.742 -135.54 414.719C-136.785 418.004 -137.432 417.952 -137.407 418.949C-137.302 423.435 -141.908 427.704 -133.903 444.454C-131.373 449.751 -134.868 451.818 -111.326 468.43C-95.336 479.713 -98.3738 501.862 -78.9338 508.894C-76.1304 509.907 -66.1098 514.89 -64.8781 516.624C-62.0521 520.606 -60.001 521.402 -52.9766 525.721C-72.6258 556.913 -68.1789 620.02 -72.6904 640.027C-75.4577 652.283 -78.5159 677.357 -79.2447 680.277C-87.0215 711.46 -102.372 749.944 -108.643 760.17C-146.797 822.393 -213.75 894.974 -228.358 905.366C-240.233 913.812 -273.824 950.183 -281.223 952.549C-282.573 952.982 -284.125 954.833 -283.538 955.313C-283.495 955.35 -277.916 969.355 -277.873 969.599C-277.557 971.357 -276.868 972.474 -275.899 972.811C-268.274 975.448 -182.856 897.355 -144.349 843.903C-109.603 795.67 -90.4056 777.917 -79.7816 750.968C-73.4821 734.989 -69.8918 721.21 -68.7253 718.733C-39.5598 656.966 -62.6148 573.563 -37.4003 533.579C-35.7151 530.909 -35.3614 530.702 -33.8453 531.512C-29.9752 533.589 -20.2209 544.445 -9.84496 547.767C-4.91373 549.345 12.1378 555.431 15.6516 560.824C27.3482 578.789 31.3412 575.058 35.8894 584.233C38.7385 589.977 39.5005 591.64 43.7913 592.362C49.5398 593.329 48.5355 591.278 51.2295 593.476C54.0138 595.748 57.0348 594.778 62.6598 603.042C64.748 606.113 75.514 600.791 77.4507 599.471C90.5392 590.552 87.8281 590.326 101.051 576.178C112.991 563.402 126.04 558.585 130.877 543.725C130.883 543.702 138.388 525.73 138.83 524.873C143.742 515.379 140.694 513.414 165.564 485.764C176.737 473.34 179.113 457.398 176.315 448.944C174.368 443.061 173.555 437.573 170.997 433.397C169.323 430.661 165.708 422.175 164.844 411.642C164.258 404.482 171.828 394.777 158.452 379.585C154.798 375.434 155.936 350.224 148.996 343.674C143.366 338.358 140.584 334.265 140.002 326.903C139.756 323.788 135.595 301.506 124.809 289.39C121.477 285.649 117.986 285.294 112.54 274.446C99.8412 249.152 73.8174 265.904 65.453 266.396C59.4017 266.75 57.3931 265.253 54.626 265.285C51.8225 265.319 44.6846 258.414 43.7177 257.325C37.1106 249.884 32.4184 251.077 24.647 247.862C21.0492 246.373 13.0485 242.21 12.8869 241.741C12.8271 241.571 12.9979 241.197 13.267 240.913C15.7783 238.24 1.12967 239.653 -14.122 227.785C-20.4718 222.844 -33.1155 218.563 -40.7837 216.691C-47.0024 215.174 -60.0854 220.728 -54.8871 233.897L-54.8898 233.896ZM-34.3142 222.353C-39.0817 241.031 -28.5868 295.255 -25.2695 306.914C-20.5437 323.518 0.592039 342.362 5.66546 363.865C8.74232 376.917 8.39241 379.364 3.04864 365.792C-6.7258 340.969 -14.0234 335.497 -21.9438 320.659C-57.7582 253.566 -40.1581 223.221 -39.3265 220.761C-39.0372 219.904 -39.0523 219.477 -36.9957 220.018C-34.4336 220.692 -33.9883 221.078 -34.3129 222.357L-34.3142 222.353ZM-14.4741 249.404C-15.8355 251.913 -17.1169 254.146 -17.3266 254.369C-18.1254 255.219 -17.978 257.504 -20.5951 262.201C-24.2147 268.704 -24.7753 277.064 -27.1329 287.29C-27.3362 286.41 -28.1819 282.777 -28.3348 281.889C-29.6804 273.969 -37.2722 228.137 -31.4365 221.928C-31.394 221.884 -22.6269 223.91 -15.4648 229.479C-11.5074 232.554 -8.78565 233.871 -6.66093 235.11C-0.942135 238.445 -6.70834 235.087 -14.4784 249.405L-14.4741 249.404ZM0.176211 237.959C-3.43496 242.901 -9.538 273.51 -8.06195 288.937C-4.81802 322.853 15.1844 324.871 9.90545 376.307C9.21219 383.075 10.2453 370.107 8.36804 366.698C8.09476 366.201 5.93363 356.133 4.89528 354.78C3.45787 352.908 5.79333 353.823 -17.3023 318.989C-21.2676 313.007 -23.6678 305.762 -25.4372 298.97C-26.3447 295.485 -22.5264 269.251 -18.5188 262.738C-15.0955 257.172 -16.1322 251.899 -2.44057 237.168C-1.97198 237.342 -1.0103 237.627 0.179067 237.96L0.176211 237.959ZM7.68271 252.621C7.66226 253.868 7.5045 256.035 7.33118 257.435C5.36904 273.321 17.1319 311.642 17.7733 312.151C18.4119 312.659 29.2978 344.514 16.7388 373.921C14.8384 378.369 13.3287 383.715 12.5465 384.58C12.0916 385.082 11.4943 382.829 11.7365 381.533C12.1526 379.309 12.4957 368.007 13.2455 365.087C14.4951 360.223 13.1153 340.417 4.86231 322.394C-16.3068 276.141 1.26259 244.601 1.76498 238.394C5.34877 239.366 9.76138 240.482 9.76553 240.488C10.4486 241.03 7.74985 248.218 7.67999 252.619L7.68271 252.621ZM31.7346 252.415C26.8025 268.057 26.5313 271.518 26.0129 272.07C25.156 272.979 22.4565 292.178 22.4438 292.195C21.7437 293.095 22.8691 312.617 22.8281 313.825C22.5012 323.106 26.4393 333.551 18.2255 307.088C3.70056 260.293 11.7278 243.019 12.3088 243.415C16.8012 246.47 22.5992 250.264 31.7346 252.415ZM49.2209 265.453C37.7056 274.173 31.4815 287.444 31.3852 287.546C26.2249 293.055 23.3269 310.154 24.6579 292.682C25.5629 280.819 32.0609 254.748 34.2286 253.69C36.3329 252.664 41.0542 258.383 49.2195 265.449L49.2209 265.453ZM69.659 277.442C68.5715 280.131 64.4958 284.514 62.6541 288.188C46.5311 320.372 55.0389 306.197 44.9843 324.233C40.1069 332.985 43.6754 331.095 41.4222 333.586C33.7276 342.086 27.1437 370.152 22.2919 380.289C21.5957 381.745 20.6212 382.265 20.2759 383.643C20.0053 384.719 17.3476 388.763 16.2559 389.756C15.9151 390.067 15.4185 390.801 15.2426 391.405C14.7523 391.295 14.3902 391.366 14.1522 391.62C13.6013 392.205 12.9256 390.199 13.8137 389.253C15.2528 387.722 13.3569 386.819 19.0254 374.179C22.5217 366.382 24.5833 354.514 25.6007 346.512C29.1751 318.361 14.5993 307.055 44.6441 272.684C52.1011 264.153 51.1799 266.874 55.5277 267.241C56.3251 267.309 66.4351 271.274 79.0331 264.737C84.295 262.005 70.8814 274.443 69.6659 277.448L69.659 277.442ZM46.6273 326.262C46.4774 326.145 46.7761 325.448 46.9469 325.586C47.3772 325.928 46.7731 326.381 46.6273 326.262ZM110.228 278.637C65.3041 295.643 46.5474 329.382 47.6833 324.292C47.8761 323.424 52.0478 316.095 52.5793 314.46C57.5996 299.084 68.4914 281.579 85.6451 262.878C95.7446 261.45 102.069 264.298 106.602 269.981C108.996 272.986 111.814 277.102 111.861 277.668C111.877 277.854 111.14 278.291 110.223 278.638L110.228 278.637ZM118.921 286.326C116.155 286.62 109.607 288.813 96.1043 296.396C68.8259 311.713 56.6254 331.001 40.238 356.152C34.0817 365.599 26.7159 375.279 27.7506 372.558C37.695 346.43 40.8203 315.654 105.206 283.016C113.284 278.922 112.793 279.015 114.058 281.327C114.762 282.614 116.611 284.225 118.918 286.324L118.921 286.326ZM122.118 289.339C119.497 290.32 113.595 294.256 108.974 296.987C87.3196 309.766 76.6111 323.247 62.8473 343.374C54.3827 355.75 35.3852 379.114 21.8613 386.98C33.521 366.958 36.3355 367.845 47.9214 347.785C64.3742 319.295 97.3301 295.819 119.852 287.511C119.938 287.478 120.018 287.442 120.093 287.404C120.748 288.014 121.428 288.657 122.122 289.344L122.118 289.339ZM20.0652 390.844C21.1407 391.474 24.6008 389.905 28.5387 389.331C33.133 388.66 37.4402 387.718 39.5927 386.909C43.657 385.384 47.0521 383.867 47.5152 383.376C48.1994 382.649 49.7722 382.866 47.4608 384.003C46.132 384.656 37.7412 391.357 32.0899 395.136C29.2184 397.057 25.231 400.797 24.6899 400.588C24.4361 400.492 24.2398 400.268 24.0527 400.482C23.8496 400.491 22.1207 396.155 19.8375 394.289C18.6411 393.313 17.6382 392.584 16.8145 392.097C17.8963 391.5 19.1664 390.314 20.0666 390.841L20.0652 390.844ZM126.035 293.633C122.186 295.574 110.779 304.65 97.9059 319.555C81.6881 338.329 77.7969 362.359 62.9209 371.878C53.411 377.963 47.0022 382.777 35.8219 385.746C12.9221 391.826 30.2066 389.032 54.8986 358.028C65.2887 344.982 75.4405 326.375 90.9354 312.567C104.001 300.925 120.274 293.438 123.127 290.358C124.098 291.365 125.082 292.456 126.035 293.633ZM133.558 309.501C121.539 311.947 84.4558 347.846 81.7263 350.63C87.9456 334.037 106.469 313.267 120.211 301.133C123.725 298.028 125.84 295.872 126.802 294.606C129.81 298.534 132.456 303.405 133.561 309.503L133.558 309.501ZM141.304 341.725C139.457 342.071 103.052 344.348 76.2814 363.433C75.178 364.22 74.5846 363.291 74.8564 363.273C75.0035 363.263 75.1278 363.029 75.1322 362.75C75.1978 358.615 110.306 322.794 130.738 313.173C134.633 311.338 134.047 310.231 134.576 314.461C135.806 324.353 136.173 316.345 137.866 328.968C139.265 339.393 145.978 340.854 141.308 341.724L141.304 341.725ZM148.9 347.509C132.381 352.036 147.07 351.244 84.9618 367.272C70.1135 371.104 53.7197 380.093 63.8444 373.871C77.0066 365.779 82.1037 361.197 96.6826 354.685C118.066 345.134 138.098 344.72 141.999 343.159C145.732 341.666 145.274 343.705 147.237 345.264C147.992 345.867 148.547 346.903 148.904 347.508L148.9 347.509ZM131.335 368.049C128.817 368.992 122.16 372.527 119.393 373.7C100.587 381.666 106.495 381.459 95.9452 382.163C62.2887 384.396 34.36 401.326 30.6236 405.678C28.8044 404.802 26.9446 403.28 26.8869 402.531C26.8035 401.438 37.3697 394.258 49.9941 385.138C61.4769 376.843 77.3788 371.385 91.4976 367.814C150.979 352.767 148.592 345.826 150.698 351.911C151.215 353.411 152.865 362.195 152.843 363.332C152.788 365.985 139.631 364.942 131.339 368.054L131.335 368.049ZM99.032 572.568C97.9385 566.986 92.6425 559.372 87.4261 553.848C87.5275 551.334 83.9234 544.191 78.2541 533.407C71.5558 520.667 69.0455 517.926 65.4259 490.539C60.5743 453.793 41.8027 419.571 50.1848 430.294C53.7122 434.804 65.1083 446.884 70.3669 458.482C83.6715 487.823 65.2893 508.128 104.558 568.961C99.1307 575.098 99.4792 574.861 99.0293 572.567L99.032 572.568ZM45.9352 416.922C46.9238 415.488 74.6792 424.493 85.054 429.614C129.507 451.549 153.469 496.994 148.347 502.447C147.538 503.308 146.792 503.944 146.689 503.863C145.534 502.945 149.379 499.307 137.451 489.764C126.962 481.372 123.794 484.957 118.723 474.739C107.973 453.069 65.7788 436.385 56.13 428.211C51.2085 424.041 52.1725 424.246 48.2205 420.537C45.8197 418.282 45.4233 417.658 45.9325 416.921L45.9352 416.922ZM119.713 518.931C118.717 524.712 111.614 537.298 110.573 546.18C109.6 554.481 110.068 560.779 110.735 563.544C110.093 563.125 109.232 561.179 108.233 557.85C104.049 543.896 106.988 520.087 106.523 511.669C103.367 454.443 76.9614 457.739 55.1864 432.352C49.8392 426.116 50.8888 426.818 54.731 430.048C59.8166 434.323 97.055 451.42 109.407 465.063C116.514 472.912 124.167 493.084 119.709 518.932L119.713 518.931ZM103.114 563.052C101.437 560.554 99.0997 556.95 97.9231 555.042C76.3111 519.992 80.0346 480.354 75.6847 466.026C72.6383 455.991 67.2631 448.322 64.7231 444.436C87.5585 461.859 106.532 471.791 103.871 524.042C103.358 534.09 103.107 553.705 107.908 563.602C108.419 564.653 108.412 565.163 107.879 566.012C106.567 568.092 106.449 568.019 103.113 563.055L103.114 563.052ZM83.8177 550.352C81.4166 548.256 79.2739 546.878 77.8784 546.698C76.6186 546.534 76.5937 546.509 76.1309 545.019C71.2634 529.35 45.2378 494.705 45.5232 469.144C45.6694 455.852 49.1931 446.947 46.2967 434.172C40.7632 409.762 58.4441 466.042 60.6299 475.253C63.6675 488.054 64.4971 507.717 69.913 521.741C69.9376 521.804 79.0229 541.315 83.8177 550.352ZM63.8767 530.451C56.3124 540.756 52.6887 555.302 52.378 560.87C49.4371 557.408 45.8024 552.591 41.3524 544.043C37.3318 536.318 36.3547 542.008 33.158 510.979C31.8207 498.004 28.3422 494.542 27.6447 487.548C26.9115 480.233 25.4103 468.559 26.5694 461.958C28.6951 449.868 26.5498 450.413 29.3263 439.509C33.8281 421.834 30.0555 419.407 30.6029 417.207C31.0522 415.41 29.5454 410.748 29.9502 409.692C30.1116 409.272 29.9917 408.445 29.6845 407.851C29.3772 407.257 29.1858 406.709 29.258 406.631C29.9351 405.909 40.5295 414.682 43.2173 430.055C47.3162 453.503 45.0889 441.516 43.4122 467.937C42.9974 474.46 46.8203 493.903 56.7999 511.51C66.8456 529.233 65.8648 527.746 63.8753 530.454L63.8767 530.451ZM38.075 411.292C38.9124 411.421 40.1453 413.045 39.7331 413.484C39.3704 413.871 36.6232 411.156 36.0812 409.87C35.4026 408.267 35.4535 408.353 37.4581 408.267C39.0999 408.198 39.1514 408.478 37.6325 409.224C36.5275 409.768 36.8127 411.102 38.075 411.292ZM163.828 396.588C150.061 387.795 143.462 387.246 129.862 384.38C110.252 380.249 105.03 382.664 109.151 380.818C132.03 370.575 131.578 368.625 148.034 367.352C152.882 366.977 153.02 364.972 153.273 368.766C154.362 385.085 162.777 382.504 163.832 396.587L163.828 396.588ZM162.473 408.862C162.384 408.958 161.209 408.156 159.864 407.085C156.958 404.772 155.532 404.198 147.671 402.172C125.879 396.558 110.419 407.186 93.1725 405.183C85.7021 404.314 38.7636 401.329 35.3372 406.92C34.6232 408.085 34.8891 407.454 32.1599 406.308C35.3007 404.866 41.0675 400.105 44.298 398.787C44.7241 398.614 46.1833 397.81 47.5418 397.003C62.9813 387.816 101.901 380.774 120.003 384.439C134.675 387.411 150.676 389.145 162.105 398.177C163.965 399.648 164.723 399.854 163.581 403.235C163.085 404.699 162.701 408.619 162.474 408.859L162.473 408.862ZM163.963 424.913C163.56 424.635 158.949 423.501 155.298 422.781C145.263 420.807 125.163 424.773 105.582 421.158C93.9042 419.003 73.6045 408.597 47.5684 408.694C44.7358 408.704 42.2642 408.593 42.0823 408.451C41.3311 407.866 40.3782 409.886 39.7759 408.084C39.4829 407.206 46.3166 406.1 53.3016 405.891C84.9517 404.952 91.0282 409.648 114.693 405.168C132.041 401.884 136.687 401.739 146.82 404.174C156.293 406.449 155.25 406.209 162.34 411.855C162.651 413.085 163.408 415.792 163.341 417.047C163.202 419.634 165.48 425.956 163.965 424.91L163.963 424.913ZM175.014 458.247C174.546 458.746 174.866 458.295 173.052 455.153C157.922 428.915 123.082 426.312 125.402 425.179C126.396 424.694 143.939 424.183 151.356 424.422C154.17 424.513 159.188 425.629 162.418 426.884C166.21 428.357 165.841 427.09 166.991 430.081C168.294 433.478 169.978 435.983 170.479 437.795C170.655 438.429 173.425 445.461 173.547 447.805C173.551 447.842 175.554 457.669 175.017 458.241L175.014 458.247ZM156.868 488.229C156.53 486.44 156.141 483.816 156.003 482.402C156 482.371 153.416 467.594 144.389 456.305C140.842 451.867 140.746 450.418 136.821 446.799C136.145 446.176 134.177 443.073 133.051 442.191C131.775 441.192 126.691 435.105 119.298 428.724C114.856 424.892 112.856 424.326 127.943 428.154C143.901 432.204 146.648 435.078 150.925 436.959C153.365 438.034 165.644 446.295 168.86 452.249C170.197 454.722 173.282 460.021 173.907 460.913C175.633 463.387 171.766 472.072 171.572 472.279C170.314 473.619 171.911 474.953 165.91 481.867C154.318 495.227 157.927 493.833 156.868 488.229ZM151.801 498.812C151.199 498.719 146.874 478.518 123.896 455.376C113.14 444.545 92.5111 429.125 76.7385 423.755C72.6063 422.348 54.8262 415.391 45.0982 414.043C42.8263 413.728 41.4262 412.812 41.3206 411.568C41.2761 411.023 57.8774 408.224 87.1497 417.836C89.4267 418.584 102.671 422.878 109.454 424.424C111.911 424.983 123.432 434.512 127.598 439.43C145.809 460.926 150.341 461.23 155.012 493.296C155.308 495.335 152.128 498.86 151.8 498.808L151.801 498.812ZM128.254 543.745C127.95 543.505 131.102 533.49 130.643 527.881C130.409 525.043 132.802 509.013 130.177 501.204C129.864 500.268 127.533 488.686 125.567 487.032C125.278 486.79 124.935 485.086 124.847 484.694C131.584 487.773 133.116 487.37 141.201 495.764C143.001 497.633 145.23 501.777 144.897 502.635C144.344 504.062 146.278 504.816 144.743 507.105C142.479 510.485 131.825 535.858 131.81 535.874C131.102 536.612 132.105 536.116 130.357 539.36C128.538 542.734 128.736 544.129 128.251 543.744L128.254 543.745ZM111.804 554.96C111.107 546.88 117.328 529.994 120.638 522.524C122.334 518.693 123.192 508.346 123.37 503.063C123.68 493.865 119.413 480.782 120.353 481.51C120.921 481.941 125.776 490.701 126.722 495.847C127.449 499.817 130.656 506.804 128.887 522.326C128.331 527.208 128.358 537.12 125.525 543.375C124.437 545.773 125.75 545.51 124.448 548.549C122.067 554.112 125.04 551.549 119.751 556.733C117.274 559.161 114.117 561.736 112.06 563.051C112.18 561.424 112.137 558.782 111.805 554.958L111.804 554.96ZM78.5357 594.547C78.6865 594.196 78.8413 593.34 78.9184 593.076C79.18 592.188 83.0952 585.025 82.1288 572.197C81.3683 562.092 76.0216 547.876 78.1549 548.576C79.4009 548.986 83.7612 552.61 86.4717 555.486C96.0596 565.668 96.9007 574.279 97.9127 575.087C99.1399 576.065 91.9851 582.418 89.8095 585.892C87.8107 589.077 76.0323 600.385 78.5371 594.551L78.5357 594.547ZM55.9231 591.266C58.5146 591.163 58.964 591.03 59.8507 590.086C60.5334 589.361 60.8566 588.609 60.8676 587.719C60.8996 585.271 63.0545 583.58 61.6613 576.704C60.163 569.308 57.6493 566.876 53.7651 562.472C53.9138 562.056 53.9847 561.589 53.9884 561.374C54.154 554.33 64.9371 530.667 66.6169 530.19C67.2152 530.019 70.3262 537.567 71.453 539.551C75.9159 547.421 77.7519 561.802 78.8056 565.626C81.6204 575.841 78.5677 585.351 77.9802 589.066C77.591 591.526 77.2797 590.529 76.7074 592.956C75.2371 599.197 72.565 599.634 70.7651 600.344C66.527 602.014 64.9272 602.602 62.1995 598.848C57.9058 592.941 47.2509 591.606 55.9231 591.266ZM17.6504 520.634C8.08492 452.157 25.7479 448.165 27.2702 414.249C27.7769 402.976 29.9032 426.528 29.565 427.636C22.8542 449.677 21.3028 478.896 28.9507 500.83C31.9238 509.356 32.0692 525.206 33.7878 532.291C35.9583 541.232 36.0644 538.142 44.1114 552.288C50.4241 563.388 54.9139 564.884 57.629 570.848C58.9475 573.746 60.3082 579.873 60.162 582.259C59.9983 584.973 58.9027 588.541 58.0999 588.975C56.8266 589.668 55.5352 588.28 50.5013 589.735C47.1317 590.708 42.9372 590.541 41.4656 589.374C41.0338 589.033 40.1187 587.549 39.4344 586.082C36.2921 579.358 35.5548 578.648 30.3467 574.573C29.4692 573.885 28.6561 573.197 27.899 572.509C28.001 565.256 19.8562 536.425 17.649 520.63L17.6504 520.634ZM-3.85113 536.237C1.88439 523.609 -4.73831 484.256 -2.57767 476.841C-2.46423 476.449 -2.48082 476.037 -2.61827 475.929C-2.98341 475.64 -2.08988 475.107 -2.29284 474.712C-2.75231 473.822 -1.73598 470.717 -1.86863 469.774C-2.57191 464.745 8.61225 441.812 8.6398 441.725C9.54009 438.872 23.8455 419.943 23.8472 412.384C23.8496 403.07 30.3768 402.99 17.6758 448.943C8.6014 481.77 9.37884 501.476 25.0961 565.08C25.3953 566.294 25.7677 568.771 26.1682 570.838C20.25 564.831 18.1189 559.125 14.4192 556.171C11.0819 553.504 -0.882453 549.066 -7.95146 546.29C-6.28709 543.865 -4.47921 537.615 -3.851 536.23L-3.85113 536.237ZM-20.452 516.531C-11.7139 498.532 -14.6003 505.469 -5.88539 491.17C-4.28894 488.551 -5.15964 491.901 -4.17801 505.005C-2.32411 529.799 -8.54049 543.391 -9.97598 545.496C-11.4607 544.894 -12.5505 544.421 -13.0262 544.128C-14.4033 543.284 -15.6991 542.566 -15.9074 542.534C-18.0448 542.206 -24.4336 536.079 -26.0419 534.733C-28.0706 533.032 -21.5576 518.817 -20.4507 516.535L-20.452 516.531ZM-50.9912 525.86C-50.6994 525.548 -47.96 526.133 -46.9568 526.722C-46.3404 527.087 -40.4715 527.404 -38.1753 529.234C-34.4215 532.224 -54.6093 537.531 -53.0989 604.567C-52.1704 645.707 -59.1231 690.32 -74.1873 726.514C-74.538 727.354 -82.164 748.309 -82.197 748.506C-83.7327 758.087 -170.968 886.817 -253.375 955.076C-265.867 965.423 -274.083 974.801 -276.219 968.462C-282.284 950.467 -283.346 958.269 -269.703 946.275C-265.549 942.622 -229.628 908.197 -228.177 907.786C-220.7 905.665 -160.381 837.089 -147.909 819.153C-137.289 803.88 -137.638 803.247 -136.651 803.102C-135.056 802.864 -132.947 797.729 -127.608 791.478C-109.699 770.51 -110.018 766.267 -104.035 757.696C-101.121 753.523 -76.7276 695.255 -74.1087 666.769C-73.1459 656.298 -67.3807 629.37 -68.3866 619.81C-68.7865 615.994 -68.0486 606.371 -67.7509 604.352C-67.2993 601.296 -67.4297 593.007 -66.3018 586.058C-66.2973 586.031 -63.0077 562.607 -63.006 562.579C-62.7321 557.82 -54.8283 529.937 -50.9954 525.854L-50.9912 525.86ZM-51.3433 522.413C-50.8149 521.849 -46.7317 499.742 -44.1337 494.877C-31.9667 472.084 10.6122 432.161 19.0501 402.524C20.3278 398.039 20.5096 397.816 21.8859 399.771C22.6678 400.882 23.2255 401.477 23.5873 401.69C22.7747 404.204 22.7741 410.109 22.3694 411.411C21.6891 413.601 22.4965 413.511 19.2637 420.365C18.0515 422.936 18.8475 422.608 17.6304 423.939C11.2656 430.901 -0.947561 454.874 -3.30409 465.912C-6.62665 481.485 -3.32451 484.94 -5.73255 487.51C-10.1492 492.23 -22.5682 512.684 -25.6916 522.383C-29.2555 533.454 -28.8554 532.45 -30.3411 531.289C-31.967 530.018 -36.4487 527.783 -37.0277 527.333C-38.7134 526.017 -51.1471 523.564 -51.6622 523.158C-51.7816 523.061 -51.6394 522.726 -51.3447 522.409L-51.3433 522.413ZM-70.9936 507.878C-70.1917 507.003 -65.2533 495.456 -64.5715 492.859C-59.2814 472.72 -44.273 451.831 -37.3341 447.593C-33.5018 445.252 -32.7475 441.132 -28.0718 438.877C-12.6596 431.449 8.77276 413.685 16.656 399.645C18.9688 395.523 18.7057 395.904 19.0722 396.196C19.4831 396.523 18.7171 396.148 17.0668 401.556C10.988 421.475 0.865323 430.109 -18.3838 457.314C-28.405 471.475 -43.4442 480.806 -50.359 507.873C-53.5926 520.525 -53.6338 520.566 -53.2309 522.422C-56.8816 521.55 -60.5962 518.035 -62.7853 515.498C-64.6799 513.299 -67.5825 511.094 -70.0822 509.955C-71.5131 509.302 -71.7672 508.721 -70.9922 507.875L-70.9936 507.878ZM-99.0099 477.621C-60.0042 463.67 -30.1146 439.271 -40.2943 447.609C-62.4646 465.767 -65.075 495.668 -74.3134 508.264C-82.2306 505.587 -86.2603 503.889 -90.898 496.388C-92.2687 494.17 -93.2526 493.099 -93.64 490.85C-94.532 485.666 -99.5722 477.822 -99.0071 477.622L-99.0099 477.621ZM-113.303 463.477C-112.176 462.484 -91.5191 466.21 -63.2165 457.066C-54.179 454.144 -55.8934 454.974 -58.2872 456.358C-70.5115 463.434 -76.9036 466.055 -96.4715 474.389C-101.424 476.501 -100.492 476.895 -102.401 473.89C-105.157 469.561 -113.418 463.574 -113.302 463.474L-113.303 463.477ZM-118.468 458.915C-112.7 456.844 -99.4524 448.923 -91.5686 445.219C-76.2148 438.008 -76.9747 435.244 -28.2213 421.969C-18.0105 419.189 -5.75295 410.067 0.946455 404.009C7.37582 398.193 15.5469 395.246 15.6589 396.547C15.7473 397.569 11.8276 403.465 8.27771 407.655C-8.9567 427.995 -30.2655 437.036 -33.1649 439.593C-34.2831 440.577 -44.5052 446.884 -50.5623 450.119C-54.3858 452.16 -66.7613 456.364 -70.8849 457.023C-92.1413 460.413 -78.3999 461.198 -114.722 461.194C-116.02 461.193 -116.084 461.104 -118.463 458.918L-118.468 458.915ZM-124.442 451.139C-119.26 448.967 -111.941 442.82 -100.84 431.314C-74.2576 403.758 -9.18988 391.582 11.9978 393.65L14.8331 393.926C10.6953 395.379 5.81266 397.208 0.167904 401.808C-38.6573 433.438 -33.5476 411.457 -106.038 450.261C-113.205 454.099 -117.777 456.271 -119.921 457.595C-120.642 456.944 -121.504 456.177 -122.544 455.269C-126.423 451.889 -126.918 452.174 -124.444 451.138L-124.442 451.139ZM-134.842 420.355C-133.911 419.365 -112.009 421.742 -98.678 419.582C-78.8055 416.363 -88.0755 414.23 -103.431 430.646C-111.906 439.705 -118.245 445.089 -123.415 447.613C-126.81 449.269 -128.646 451.261 -128.856 449.144C-128.881 448.886 -129.605 447.458 -130.461 445.969C-139.058 431.038 -135.298 420.841 -134.841 420.353L-134.842 420.355ZM-121.227 384.29C-107.721 388.126 -91.5212 399.665 -51.0544 401.225C-52.9328 401.817 -64.7477 405.98 -66.63 406.926C-87.2262 417.27 -77.2662 411.651 -90.3185 415.914C-103.62 420.254 -133.382 417.93 -133.549 417.704C-133.654 417.563 -133.393 416.631 -132.969 415.63C-130.534 409.863 -135.108 407.774 -130.762 394.804C-126.231 381.29 -125.292 383.135 -121.227 384.29ZM-113.016 354.58C-112.913 354.471 -112.417 354.665 -111.914 355.011C-97.2927 365.12 -49.9448 348.964 -11.1621 380.099C-40.5328 370.131 -46.3425 366.536 -75.0909 370.667C-94.2415 373.419 -111.68 371.384 -115.013 368.729C-116.188 367.795 -120.082 369.314 -114.629 371.186C-94.8479 377.975 -75.6893 371.62 -58.5285 370.964C-41.4686 370.311 -21.6257 378.542 -14.2162 381.166C-9.59643 382.802 -10.1523 383.061 -16.1175 382.057C-42.7343 377.582 -69.8008 387.797 -101.412 380.342C-106.559 379.128 -119.59 375.223 -120.428 374.642C-120.63 374.503 -120.665 374.124 -120.509 373.802C-118.825 370.372 -118.343 371.373 -117.777 368.95C-116.396 363.07 -113.666 360.266 -113.75 358.335C-113.783 357.605 -113.558 356.598 -113.25 356.1C-112.429 354.763 -113.359 354.945 -113.018 354.582L-113.016 354.58ZM-111.499 351.005C-108.238 353.6 -59.1329 348.59 -39.2232 358.412C-36.0282 359.989 -31.5041 364.009 -29.1739 364.239C-28.0871 364.345 -27.2675 364.82 -24.3204 367.06C-18.5457 371.444 -16.6842 369.828 -13.3964 372.93C-11.3838 374.83 -4.02207 380.831 -1.18328 384.02C0.647008 386.075 3.58836 390.533 3.72128 391.45C3.75392 391.669 1.91081 391.971 -0.37588 392.118C-6.91647 392.538 -40.5865 396.416 -42.3811 398.322C-43.3401 399.344 -60.9554 399.302 -65.6503 398.267C-65.6754 398.261 -94.1734 393.973 -102.788 388.969C-104.637 387.894 -120.05 382.11 -121.925 381.789C-123.412 381.532 -123.882 380.711 -123.238 379.505C-121.186 375.671 -120.393 376.97 -108.288 380.639C-73.0314 391.323 -46.1048 379.553 -18.5343 383.628C-1.057 386.211 2.16645 392.285 4.29488 392.402C5.20725 392.453 5.22582 392.426 5.02641 391.312C4.82449 390.171 0.695835 385.963 0.955942 385.474C1.28464 384.856 -2.67412 384.124 -8.65387 379.538C-23.2185 368.363 -29.4151 365.306 -46.0947 361.073C-62.3832 356.939 -79.0552 357.196 -79.0959 357.206C-79.3907 357.277 -95.5817 357.466 -104.345 355.212C-117.028 351.947 -111.772 350.796 -111.505 351.009L-111.499 351.005ZM-95.3357 321.933C-89.4326 328.56 -82.2963 337.177 -61.0596 342.104C-43.3132 346.219 -34.4877 355.552 -34.5586 356.417C-34.6711 357.759 -30.1599 359.979 -31.2409 360.506C-32.4824 361.111 -34.592 357.302 -44.2963 354.67C-56.0487 351.481 -69.1672 349.422 -78.9522 349.86C-91.4381 350.42 -111.506 349.024 -111.528 348.987C-111.642 348.813 -111.363 347.822 -110.906 346.788C-107.978 340.156 -107.282 343.449 -103.554 330.03C-99.3076 314.746 -99.6203 317.126 -95.3385 321.932L-95.3357 321.933ZM-93.0603 303.881C-92.3932 303.171 -88.0916 310.944 -82.015 316.675C-72.0379 326.081 -55.1206 334.5 -54.6923 337.111C-54.4742 338.444 -51.8795 341.148 -49.4557 342.573C-42.9733 346.383 -47.6643 344.205 -58.9185 340.646C-89.1852 331.065 -85.8698 327.066 -98.6539 315.681C-96.0304 309.226 -93.5193 304.371 -93.059 303.885L-93.0603 303.881ZM-67.9908 266.301C-66.9017 265.16 -67.0004 274.835 -67.0021 274.864C-67.1309 288.749 -63.4487 304.866 -63.2748 306.271C-60.9923 324.821 -45.819 340.966 -47.2968 341.021C-47.4453 341.027 -58.1613 330.295 -63.5419 327.934C-70.457 324.903 -80.6427 314.973 -80.6594 314.958C-83.5374 312.293 -88.2846 306.885 -89.6046 303.864C-90.3711 302.102 -92.161 302.543 -91.8121 301.738C-90.5602 298.869 -80.272 284.365 -79.0961 282.836C-69.0361 269.754 -68.723 267.07 -67.9922 266.303L-67.9908 266.301ZM-51.6893 250.664C-52.1808 254.959 -50.7878 256.663 -51.9021 264.553C-54.9039 285.831 -60.9304 305.706 -37.1714 335.769C-23.9119 352.544 -22.1916 348.576 3.71645 374.895C7.52244 378.764 12.2405 389.717 12.4816 391.634C12.4959 391.734 6.60405 392.253 6.19647 391.226C6.13371 391.073 5.47958 389.93 4.73688 388.687C0.299943 381.263 -10.8857 372.51 -18.4504 367.666C-31.2076 359.494 -59.0469 328.153 -61.6076 305.539C-62.3901 298.64 -64.6613 290.855 -64.4926 284.821C-64.4909 284.793 -64.9453 266.555 -65.1131 263.681C-57.6546 255.52 -54.4129 252.126 -53.2456 249.83C-51.7922 246.975 -51.2967 247.239 -51.6893 250.664ZM-53.2934 225.96C-52.7671 223.641 -49.436 220.118 -46.8336 219.131C-44.4674 218.231 -39.6277 218.182 -40.4721 219.359C-42.8534 222.689 -56.3589 259.499 -24.1099 321.051C-15.6107 337.273 -13.1435 337.398 -4.47631 353.888C-2.19876 358.224 2.18916 368.888 1.84216 369.255C1.66088 369.445 -2.29201 365.693 -3.30407 364.369C-39.6309 335.448 -59.2406 314.3 -50.815 271.774C-49.1594 263.417 -49.9742 245.752 -50.0922 243.32C-50.5372 234.071 -54.7825 232.512 -53.2977 225.961L-53.2934 225.96Z" fill="url(#paint1_linear_639_1397)"/>
</g>
<defs>
<radialGradient id="paint0_radial_639_1397" cx="0" cy="0" r="1" gradientUnits="userSpaceOnUse" gradientTransform="translate(1766.5 564) rotate(90) scale(369 530.5)">
<stop stop-color="#FFE7CC"/>
<stop offset="1" stop-color="#FFFCF9"/>
</radialGradient>
<linearGradient id="paint1_linear_639_1397" x1="-236.047" y1="546.096" x2="44.6855" y2="703.581" gradientUnits="userSpaceOnUse">
<stop stop-color="#F5EAB0"/>
<stop offset="0.11" stop-color="#DAC37C"/>
<stop offset="0.29" stop-color="#AE8326"/>
<stop offset="0.39" stop-color="#C3A250"/>
<stop offset="0.51" stop-color="#DECA84"/>
<stop offset="0.61" stop-color="#EEE2A4"/>
<stop offset="0.67" stop-color="#F5ECB1"/>
<stop offset="0.68" stop-color="#EEE2A4"/>
<stop offset="0.76" stop-color="#D9C179"/>
<stop offset="0.82" stop-color="#C8A757"/>
<stop offset="0.89" stop-color="#BB953F"/>
<stop offset="0.95" stop-color="#B48931"/>
<stop offset="1" stop-color="#B2862C"/>
</linearGradient>
<clipPath id="clip0_639_1397">
<rect width="1920" height="1128" fill="white"/>
</clipPath>
</defs>
</svg>
