<svg width="1920" height="1459" viewBox="0 0 1920 1459" fill="none" xmlns="http://www.w3.org/2000/svg">
<g clip-path="url(#clip0_639_1348)">
<rect width="1920" height="1459" fill="#FFFCF9"/>
<ellipse cx="107.5" cy="803.5" rx="586.5" ry="441.5" fill="url(#paint0_radial_639_1348)"/>
<circle cx="990" cy="614" r="406" fill="url(#paint1_radial_639_1348)"/>
<g opacity="0.2">
<path d="M1742.53 1025.31C1742.72 1025.31 1742.71 1024.99 1742.52 1024.62C1741.98 1023.55 1742.12 1025.33 1742.53 1025.31Z" fill="url(#paint2_linear_639_1348)"/>
<path d="M1739.8 1013.06C1740.61 1015.78 1739.74 1014.89 1740.57 1016.83C1742.4 1021.09 1740.16 1013.61 1740.12 1011.08C1740.1 1009.77 1739.03 1010.52 1739.8 1013.06Z" fill="url(#paint3_linear_639_1348)"/>
<path d="M1799.21 990.997C1799.19 990.112 1794.52 983.466 1791.77 980.419C1789.72 978.145 1791.24 980.94 1791.66 981.397C1792.9 982.769 1796.73 987.862 1796.94 988.439C1797.32 989.44 1799.22 991.585 1799.21 990.997Z" fill="url(#paint4_linear_639_1348)"/>
<path d="M1801.62 995.978C1807.7 1007.06 1801.9 994.067 1800.35 992.715C1799.02 991.024 1799.31 991.76 1801.62 995.978Z" fill="url(#paint5_linear_639_1348)"/>
<path d="M1797.43 970.393C1794.69 969.687 1794.3 970.562 1796.28 971.029C1796.75 971.141 1813.45 976.529 1825.01 984.073C1825.03 984.085 1856.56 1003.65 1858.37 1008.89C1858.94 1010.56 1860.34 1010.72 1858.99 1008.33C1855.85 1002.8 1830.29 986.091 1824.54 982.798C1815.84 977.812 1818.96 978.742 1801.44 971.726C1800.29 971.265 1798.48 970.666 1797.43 970.392L1797.43 970.393Z" fill="url(#paint6_linear_639_1348)"/>
<path d="M1904.31 1097.06C1904.51 1097.05 1904.77 1096.81 1904.9 1096.53C1905.22 1095.79 1903.84 1097.09 1904.31 1097.06Z" fill="url(#paint7_linear_639_1348)"/>
<path d="M1803.35 985.951C1805.32 988.392 1805.43 988.555 1808.97 992.393C1807.37 989.593 1807.35 989.332 1803.35 985.951Z" fill="url(#paint8_linear_639_1348)"/>
<path d="M1795.95 978.672C1793.26 977.087 1795.68 979.267 1798.25 981.734C1806.42 989.596 1797.96 979.86 1795.95 978.672Z" fill="url(#paint9_linear_639_1348)"/>
<path d="M1811.93 994.928C1811.54 994.585 1811.31 995.482 1811.72 995.842C1811.89 995.988 1812.34 995.288 1811.93 994.928Z" fill="url(#paint10_linear_639_1348)"/>
<path d="M1729.47 1028.74C1729.27 1028.93 1729.43 1031.05 1729.62 1030.86C1729.7 1030.78 1729.66 1028.55 1729.47 1028.74Z" fill="url(#paint11_linear_639_1348)"/>
<path d="M1882.86 1032C1880.65 1029.88 1876.37 1026.13 1870.08 1015.8C1868.02 1012.42 1871.67 1023 1882.34 1033.46C1895.27 1046.12 1897.54 1056.25 1898.86 1060.06C1902.21 1069.67 1902.96 1078.32 1903.74 1080.15C1906.24 1086.02 1902.88 1099.99 1905.22 1094.25C1906.64 1090.78 1904.73 1078.79 1903.91 1074.99C1900.21 1057.96 1899.88 1060.59 1899.3 1058.19C1898.95 1056.71 1898.61 1056.97 1896.82 1051.54C1896.11 1049.38 1887.93 1036.83 1882.86 1032L1882.86 1032Z" fill="url(#paint12_linear_639_1348)"/>
<path d="M1791.53 999.943C1790.77 999.22 1790.79 1000.02 1791.54 1000.28C1791.88 1000.4 1791.88 1000.27 1791.53 999.943Z" fill="url(#paint13_linear_639_1348)"/>
<path d="M1740.12 1066.9C1735.35 1053.47 1733.68 1048.61 1732.34 1042.15C1731.91 1040.07 1730.54 1039.95 1734.1 1052.21C1736.41 1060.16 1745.97 1083.39 1740.12 1066.89L1740.12 1066.9Z" fill="url(#paint14_linear_639_1348)"/>
<path d="M1742.76 1087.12C1741.8 1086.35 1744.56 1091.35 1745.55 1094.17C1746.28 1096.25 1745.88 1089.61 1742.76 1087.12Z" fill="url(#paint15_linear_639_1348)"/>
<path d="M2028.9 1474.9C2028.29 1473.39 2027.68 1472.99 2028.22 1471.8C2029.82 1468.27 2029.88 1437.98 2028.3 1427.84C2014.01 1336.13 1981.45 1270.93 1981.24 1270.18C1978.54 1260.58 1943.68 1196.28 1916.91 1168.24C1916.13 1167.42 1905.56 1153.92 1901.64 1149.85C1901.06 1149.24 1880.26 1131.69 1877.39 1129.89C1860.33 1146.76 1854.56 1149.72 1831.81 1151.44C1824.16 1152.02 1815.01 1155.09 1794.67 1148.31C1793.21 1147.82 1779.61 1146.01 1768.75 1139.61C1761.68 1135.45 1753.39 1127.51 1747.47 1116.32C1746.75 1114.97 1735.44 1106.33 1733.27 1103.07C1732.73 1102.25 1725.65 1094.77 1719.8 1081.6C1719.17 1080.18 1716.51 1074.89 1717.73 1066.28C1718.19 1063.03 1717.89 1061.94 1718.56 1057.89C1719.72 1050.76 1718.79 1039.42 1720.24 1035.23C1721.03 1032.94 1721.11 1032.84 1722.16 1032.74C1723.26 1032.64 1724.58 1033.75 1725.82 1035.8C1726.16 1036.37 1726.51 1036.4 1727.48 1035.94C1728.53 1035.45 1728.7 1035.22 1728.64 1034.34C1728.53 1032.79 1729.28 1031.42 1729.57 1027.22C1730.62 1012.26 1732.39 1011.47 1733.35 1004.29C1733.66 1001.95 1734.58 999.977 1736.1 998.38C1739.7 994.602 1741.17 994.867 1746.63 994.891C1746.45 986.945 1745.47 984.603 1751.4 981.539C1755.61 979.357 1763.35 978.753 1763.75 978.355C1763.84 978.265 1764.93 977.968 1766.17 977.695C1768.8 977.119 1768.93 976.829 1767.95 973.646C1765.17 964.619 1767.54 963.546 1776.45 960.773C1788.85 956.91 1799.47 958.718 1800.63 958.729C1803.39 958.76 1806.8 960.179 1812.85 961.419C1817 962.266 1817.7 963.343 1816.73 960.602C1816.23 959.188 1816.49 957.77 1817.4 956.86C1818.66 955.609 1830.44 956.935 1835.93 958.945C1843.33 961.661 1849.42 961.608 1869.08 971.841C1883.81 979.511 1899.13 995.024 1899.15 995.046C1901.46 998.866 1908.37 1002.32 1914.89 1024.32C1918.86 1037.72 1915.31 1048.29 1917.79 1053.09C1919.34 1056.09 1918.65 1055.98 1919.71 1059.43C1923.34 1071.16 1919.45 1078.17 1919.3 1080.63C1918.87 1087.82 1906.84 1104.36 1902.08 1106.96C1898.52 1108.9 1894.8 1111.19 1893.07 1112.49C1887.21 1116.91 1889.05 1109.72 1920.45 1142.96C2001.81 1229.08 2050.39 1387.94 2047.53 1440.85C2047.14 1448.04 2047.12 1445.14 2041.22 1457.13C2039.97 1459.67 2038.28 1462.67 2037.47 1463.78C2035.09 1467.03 2037.02 1467.33 2032.14 1473.76C2031.65 1474.39 2031.12 1475.23 2030.95 1475.61C2030.55 1476.51 2029.37 1476.11 2028.89 1474.91L2028.9 1474.9ZM1896.24 1104.27C1899.97 1085.62 1898.67 1079.07 1896.09 1066.22C1894.47 1058.11 1885.52 1045.45 1885.44 1045.26C1884.55 1043.32 1880.11 1038.29 1877.49 1033.12C1875.7 1029.59 1871.28 1022.37 1871.2 1021.65C1871.11 1020.78 1870.27 1021.08 1869.56 1018.35C1869.01 1016.26 1868.47 1015.93 1868.57 1017.75C1868.69 1019.82 1868.1 1018.57 1867.91 1016.35C1867.81 1015.11 1867.91 1014.55 1868.15 1014.98C1868.57 1015.72 1868.5 1002.75 1866.95 1012.94C1866.31 1017.16 1867.55 1017.42 1866.79 1017.29C1865.7 1017.1 1866.27 1022.11 1861.28 1036.08C1851.21 1064.29 1851.69 1058.28 1853.31 1080.64L1857.91 1083.12C1869.19 1089.19 1876.28 1101.93 1876.83 1103.37C1880.31 1112.39 1886.5 1112.32 1883.4 1112.16C1881.27 1112.05 1879.2 1108.49 1879.56 1111.76C1879.79 1113.82 1879.95 1113.15 1882.81 1113.85C1885.57 1114.54 1890.83 1111.98 1888.78 1110.96C1885.35 1109.26 1876.15 1087.48 1875.01 1085.51C1874.47 1084.57 1864.32 1064.48 1863.98 1054.14C1863.96 1053.61 1862.78 1044.07 1864.13 1038.79C1865.23 1034.47 1865.82 1034.96 1865.43 1034.18C1864.93 1033.19 1866.96 1032.7 1866.2 1032.02C1865.59 1031.5 1865.82 1029.93 1866.53 1029.75C1866.87 1029.66 1866.88 1029.56 1866.55 1029.5C1865.9 1029.39 1866.27 1027.6 1867.04 1027.91C1867.91 1028.26 1867.41 1025.63 1867.97 1026.12C1868.35 1026.46 1867.6 1030.15 1866.39 1033.85C1864.31 1040.25 1864.18 1041.43 1864.69 1048.54C1865.61 1061.39 1868.55 1068.81 1872.45 1076.75C1874.26 1080.44 1872.81 1078.6 1875.51 1083.52C1877.17 1086.56 1887.83 1112.27 1890.26 1109.09C1891.55 1107.39 1890.62 1089.8 1889.71 1087.03C1885.18 1073.34 1887.92 1080.72 1884.32 1071.86C1882.65 1067.74 1877.4 1056.26 1877.23 1055.96C1874.69 1051.47 1864.7 1021.26 1878.04 1054.96C1885.84 1074.69 1895.49 1086.34 1890.99 1110.51C1894.67 1108.92 1895.31 1108.91 1896.23 1104.28L1896.24 1104.27ZM1874.64 1109.42C1876.11 1111.14 1876.21 1111.2 1876.27 1110.36C1876.65 1105.71 1868.46 1095.78 1866.63 1093.47C1860.99 1086.32 1845.83 1078.21 1831.31 1078.97C1815.98 1079.76 1813.04 1076.67 1795.8 1079.89C1788.21 1081.3 1773.57 1080.34 1770.97 1080.37C1764.24 1080.46 1763.89 1079.82 1755.01 1080.22C1748.41 1080.51 1749.31 1079.67 1749.32 1080.15C1749.32 1080.26 1755.43 1087.13 1777.59 1084.77C1782.48 1084.24 1806.92 1085.72 1809.47 1085.66C1812.99 1085.59 1816.51 1085.84 1819.04 1086.33C1820.38 1086.59 1821.56 1086.73 1821.66 1086.64C1822.81 1085.56 1860.46 1092.8 1874.64 1109.43L1874.64 1109.42ZM1762.89 1023.19C1763.69 1023.89 1763.91 1024.96 1764.31 1024.56C1764.71 1024.16 1763.09 1022.41 1762.46 1021.36C1761.87 1020.37 1762.24 1022.63 1762.89 1023.19ZM1778.42 1037.31C1767.16 1019.64 1761.34 1016.09 1761.72 1018.72C1761.78 1019.06 1762.56 1020.14 1763.46 1021.12C1767.26 1025.22 1765.74 1028.51 1776.46 1051.15C1783.18 1065.34 1789.83 1069.21 1800.01 1076.39C1803.72 1076.22 1813.9 1075.62 1817.55 1076.15C1821.54 1076.73 1821.91 1076.45 1819.36 1074.84C1818.24 1074.14 1816.66 1073.24 1815.85 1072.84C1811.04 1070.48 1801.44 1063.57 1793.69 1056.89C1788.31 1052.25 1786.32 1049.7 1778.42 1037.31ZM1787.55 1068.71C1766.88 1050.56 1764.41 1011.19 1766.12 1038.77C1767.44 1060.03 1769.77 1061.17 1776.51 1074.86C1777.63 1077.14 1779.16 1078.22 1781.32 1078.26C1788.01 1078.41 1796.85 1077.69 1797.59 1076.95C1797.94 1076.61 1794.31 1074.65 1787.55 1068.71L1787.55 1068.71ZM1771.03 1067.31C1770.28 1064.91 1768.21 1061.59 1767.49 1058.74C1763.46 1042.88 1765.21 1027.42 1762.2 1024.8C1761.46 1024.16 1761.22 1025.09 1761.28 1028.42C1761.31 1029.81 1760.93 1032.09 1760.44 1033.5C1759.35 1036.62 1758.01 1047.03 1757.98 1047.2C1755.55 1061.08 1760.53 1076.86 1762.51 1077.86C1763.7 1078.46 1773.57 1077.65 1775.17 1078.02C1779.65 1079.07 1771.42 1068.58 1771.02 1067.3L1771.03 1067.31ZM1746.94 1009.84C1744.26 1008.53 1743.26 1008.84 1742.56 1011.23C1736.4 1032.22 1744.15 1057.01 1749.34 1066.85C1754.26 1076.18 1755.77 1075.65 1755.6 1076.94C1755.37 1078.64 1762.12 1078.53 1756.55 1074.02C1751.55 1069.96 1746.22 1051.78 1746.08 1050.18C1745.89 1047.94 1745.2 1044.7 1743.71 1039.08C1741.81 1031.87 1741.17 1014.05 1743.38 1028.87C1744.97 1039.57 1747.53 1046.19 1747.39 1049.11C1747.26 1051.93 1754.53 1072.47 1756.5 1072.38C1757.31 1072.34 1755.26 1068.84 1755.11 1056.59C1754.87 1037.37 1758.67 1038.46 1756.24 1034.2C1754.4 1030.98 1748.38 1016.16 1748.91 1016.14C1749.27 1016.12 1751.7 1020.63 1752.54 1022.89C1752.88 1023.8 1753.91 1026.11 1754.82 1028.02C1757.47 1033.56 1758.59 1037.51 1758.99 1024.6C1759.09 1021.63 1759.01 1021.39 1757.39 1019.47C1754.57 1016.12 1748.67 1010.68 1746.94 1009.84L1746.94 1009.84ZM1901.15 1132.37C1901.33 1132.2 1884.66 1114.01 1882.43 1116.23C1882.34 1116.32 1883.85 1117.29 1883.87 1117.3C1886.86 1119.2 1900.99 1132.53 1901.15 1132.38L1901.15 1132.37ZM1772.3 1013.29C1801.73 1021.53 1848.28 1060.3 1850.08 1061.24L1850.49 1059C1851.77 1052.04 1853.39 1050.71 1852.37 1050.36C1849.45 1049.33 1821.85 1018.75 1784.2 1014.29C1769.95 1012.6 1789.71 1010.71 1813.48 1021.79C1839.78 1034.06 1848.11 1046.93 1852.55 1049.19C1853.66 1049.75 1853.59 1049 1857.86 1037.57C1859.1 1034.25 1860.66 1035.08 1846.42 1026.03C1828.54 1014.66 1808.78 1010.49 1795.1 1011.3C1788.99 1011.66 1782.64 1010.72 1778.92 1011.04C1775.81 1011.3 1770.38 1012.26 1770.38 1012.54C1770.39 1012.66 1771.25 1012.99 1772.31 1013.29L1772.3 1013.29ZM1793.14 982.514C1792.47 984.006 1800.51 1000.77 1801.94 1004.32C1808.08 1003.7 1809.27 1002.93 1809.27 1003.29C1809.28 1003.71 1819.92 1002.87 1820.02 1002.44C1820.07 1002.23 1819.32 1000.93 1818.36 999.561C1815.95 996.128 1817.42 996.831 1817.55 997.318C1817.66 997.723 1820.87 1002.08 1821.4 1002.54C1821.75 1002.85 1827.28 1002.8 1829.43 1003.52C1830.17 1003.78 1830.88 1003.89 1831 1003.77C1831.09 1003.68 1808.8 980.429 1796.9 973.987C1794.91 972.909 1792.41 970.744 1792.98 970.594C1793.39 970.481 1793.76 968.425 1792.29 969.892C1791.77 970.405 1791.15 971.445 1790.91 972.204C1790.01 975.006 1791.26 981.061 1792.86 981.651C1793.17 981.766 1793.3 982.157 1793.14 982.516L1793.14 982.514ZM1789.03 969.662C1789.53 968.323 1788.81 967.425 1786.67 966.734C1786.64 966.725 1774.73 963.769 1779.62 966.008C1789.44 970.503 1788.23 971.768 1789.03 969.662ZM1809.41 970.363C1808.72 970.358 1807.33 970.201 1806.33 970.013C1801.6 969.124 1791.88 969.744 1795.35 970.98C1795.38 970.99 1808.16 975.009 1808.19 975.015C1809.4 975.287 1814.65 977.875 1815.42 977.945C1818.67 978.238 1861.92 1008.06 1859.81 1010.15C1858.51 1011.46 1851.69 1002.34 1828.44 987.217C1811.91 976.463 1798.9 973.069 1797.99 973.022C1796.67 972.954 1797.3 972.88 1799.68 974.514C1819.17 987.925 1830.46 1004.12 1836.51 1004.81C1864.18 1007.93 1862.74 1021.5 1864.21 1012.32C1864.56 1010.16 1865.55 1003.88 1867.67 1004.65C1868.03 1004.79 1868.37 1004.67 1868.44 1004.4C1868.63 1003.57 1864.1 1001.05 1863.34 999.576C1862.82 998.558 1844.06 986.26 1841.26 984.783C1837.21 982.646 1814.12 970.398 1809.41 970.368L1809.41 970.363ZM1808.47 967.608C1811.93 968.051 1815.49 969.37 1815.47 968.358C1815.46 967.624 1806.43 967.346 1808.47 967.608ZM1886.3 1020.41C1886.43 1020.68 1886.77 1020.98 1887.07 1021.08C1887.78 1021.32 1885.99 1019.77 1886.3 1020.41ZM1884 1018.96C1884.34 1019.08 1884.34 1018.95 1883.99 1018.62C1883.24 1017.91 1883.26 1018.7 1884 1018.96ZM1802.26 1006.94C1799.88 1007.74 1777.54 1008.96 1786.97 1010.1C1790.11 1010.48 1799.2 1009.64 1802.1 1010.02C1805.33 1010.44 1825.5 1013.31 1827.85 1015.35C1828.57 1015.98 1832.62 1016.76 1833.42 1017.46C1833.44 1017.47 1850.8 1025.87 1853.18 1028.9C1853.69 1029.54 1858.66 1032.6 1859.15 1032.58C1859.99 1032.54 1863.18 1020.81 1862.79 1019.25C1862.43 1017.83 1856.21 1013.2 1852.27 1011.43C1849.1 1010 1836.76 1007.17 1836.18 1007.74C1835.8 1008.11 1830.04 1005.83 1823.61 1005.43C1818.66 1005.13 1803.37 1006.56 1802.26 1006.94L1802.26 1006.94ZM1906.02 1039.42C1902.85 1035.14 1892.08 1022.78 1890.59 1024.27C1890.04 1024.82 1890.13 1025.05 1891.36 1026.12C1893.89 1028.33 1899.66 1035.84 1902.13 1040.15C1902.15 1040.18 1910.49 1052.22 1910.43 1058.51C1910.42 1060.25 1911.88 1062.91 1911.54 1063.27C1910.94 1063.91 1909.81 1057.02 1909.64 1057.19C1909.01 1057.82 1909.3 1052.96 1902.09 1042.1C1897.75 1035.56 1892.93 1027.9 1884.01 1020.13C1881.9 1018.29 1880.47 1016.82 1880.71 1016.75C1881.12 1016.64 1880.13 1015.46 1879.01 1014.7C1878.5 1014.36 1870.25 1006.88 1869.33 1007.8C1869.26 1007.87 1869.26 1008.84 1869.32 1009.95C1870.14 1024.26 1885.38 1041.48 1886.43 1044.51C1887.03 1046.26 1893.94 1052.13 1897.78 1069C1902.78 1090.93 1897.11 1103.12 1897.02 1107.34C1903.68 1103.48 1912.9 1093.32 1916.83 1079.84C1920.91 1065.82 1914.97 1052.82 1914.83 1052.69C1913.79 1051.79 1908.56 1042.85 1906.02 1039.41L1906.02 1039.42ZM1912.63 1037.29C1909.41 1027.01 1895.4 1001.52 1878.72 986.897C1868.23 977.704 1865.71 978.348 1860.22 975.472C1856.94 973.757 1842.11 967.87 1847.16 970.708C1857.24 976.37 1870.34 992.519 1872.31 994.567C1880.6 1003.19 1884.34 1010.45 1886.57 1015.69C1887.99 1019.04 1895.65 1022.5 1907.69 1037.07C1909.24 1038.94 1913.65 1046.35 1914.25 1045.76C1914.75 1045.25 1914.39 1040.16 1913.81 1039.66C1913.47 1039.36 1912.94 1038.29 1912.62 1037.29L1912.63 1037.29ZM1871.42 1004.35C1871.6 1005.54 1882.74 1014.49 1883.88 1014.74C1886.65 1015.34 1876.03 1000.17 1870.04 993.976C1869.35 993.256 1867.42 990.958 1865.75 988.867C1855.74 976.328 1821.86 953.774 1844.51 972.786C1863.56 988.78 1871.33 1003.77 1871.42 1004.35ZM1827.59 960.761C1829.21 961.951 1836.49 964.428 1838.57 965.148C1846.71 967.97 1864.92 976.499 1866.75 977.01C1872.84 978.72 1890.82 996.914 1891.76 998.298C1892.47 999.336 1896.54 1004.17 1902.21 1013.56C1914.96 1034.66 1913.89 1041.45 1914.45 1035.8C1914.72 1033 1914.33 1034.91 1913.65 1029.93C1910.62 1007.48 1890.12 986.206 1869.38 974.962C1864.64 972.39 1863.82 972.247 1863.03 971.556C1858.06 967.215 1824.68 958.914 1827.59 960.762L1827.59 960.761ZM1822.32 966.938C1824.51 967.497 1827.96 968.399 1830.78 968.938C1835.62 969.86 1838.46 971.767 1836.92 970.22C1833.54 966.842 1831.17 966.187 1829.29 964.972C1817.93 957.645 1819.22 959.666 1821.04 963.935L1822.32 966.937L1822.32 966.938ZM1823.32 969.783L1821.83 969.847C1823.89 970.608 1836.13 974.542 1841.62 977.514C1850.91 982.548 1862.18 994.725 1850.1 984.751C1832.85 970.507 1808.99 968.612 1818.87 971.176C1823.68 972.423 1842.43 982.899 1842.46 982.913C1846.67 985.024 1864.44 998.364 1863.51 996.394C1862.89 995.075 1860.07 991.473 1859.59 991.388C1859.08 991.301 1857.84 989.364 1855.16 986.553C1855.14 986.535 1846.5 976.537 1842.68 975.312C1841.83 975.039 1827.5 969.603 1823.32 969.781L1823.32 969.783ZM1799.17 961.734C1800.3 962.11 1802.1 962.876 1803.16 963.438C1805.85 964.861 1827.1 967.321 1814.75 964.06C1800.06 960.18 1793.34 959.795 1799.18 961.732L1799.17 961.734ZM1786.31 962.054C1790.5 963.286 1791.64 961.663 1794.36 962.56C1802.57 965.263 1804.08 964.389 1802.48 963.642C1795.36 960.315 1777.87 959.569 1786.31 962.054ZM1777.33 963.835C1780.49 964.183 1785.9 965.413 1790.32 967.927C1791.03 967.562 1795.75 965.228 1795.46 964.967C1794.72 964.321 1792.9 964.05 1790.5 964.225C1784.98 964.626 1786.3 963.183 1779.44 963.322C1776.34 963.387 1775.37 963.622 1777.33 963.836L1777.33 963.835ZM1773.74 968.65C1783.84 971.422 1785.91 979.415 1788.05 979.501C1788.84 979.532 1789.2 979.623 1787.97 976.724C1786.82 974.007 1789.1 973.22 1786.34 970.805C1782.41 967.37 1773.25 965.469 1772.79 965.933C1771.99 966.728 1768.77 964.694 1770.34 966.997C1770.76 967.618 1771.76 968.104 1773.74 968.647L1773.74 968.65ZM1774.86 977.339C1774.88 977.355 1785.21 979.229 1785.56 978.873C1785.77 978.669 1783.32 975.914 1781.12 973.887C1778.55 971.512 1774.81 970.07 1771.38 968.951C1771.51 969.275 1774.8 977.282 1774.86 977.339ZM1771.95 977.026C1772.11 976.87 1772.11 976.359 1771.95 975.894C1771.14 973.567 1770.74 978.231 1771.95 977.026ZM1753.42 984.504C1754.05 984.738 1756.18 985.345 1758.15 985.851C1772.21 989.461 1784.82 1000.18 1786.86 1003.52C1789.04 1007.1 1790.1 1005.74 1795.07 1005.13C1799.47 1004.6 1799.52 1004.57 1797.82 1001.37C1794.07 994.3 1794.04 988.86 1777.78 984.77C1765.5 981.68 1783.22 984.046 1792.63 990.367C1789.34 980.577 1790.46 981.531 1778.58 979.696C1771.63 978.623 1767.67 978.933 1759.64 981.804C1763.9 983.753 1766.9 982.704 1776.16 986.53C1786.45 990.788 1788.53 994.997 1792.85 997.854C1793.38 998.205 1794.03 999.686 1790.92 997.206C1782.57 990.558 1776.47 986.223 1765.61 984.2C1759.62 983.083 1758 981.656 1755.14 982.521C1753.26 983.089 1751.62 983.832 1753.42 984.506L1753.42 984.504ZM1753.8 986.402C1761.32 990.889 1763.24 990.191 1780.88 1007.46C1784.21 1006.68 1784.49 1006.6 1788.09 1006.09C1784.65 1001.99 1774.86 994.312 1773.19 993.25C1766.89 989.253 1755.75 986.045 1754.79 985.711C1753.11 985.124 1752.45 985.591 1753.81 986.401L1753.8 986.402ZM1749.14 996.038L1751.16 997.119C1751.18 997.131 1762.34 1002.08 1765.21 1003.99C1769.75 1007.01 1772.49 1006.73 1772.25 1008.5C1771.99 1010.38 1778.91 1008.16 1778.9 1007.61C1778.88 1006.28 1766.64 994.474 1755.84 988.629C1752.77 986.97 1758.56 994.198 1759.22 994.836C1764.33 999.772 1761.26 998.641 1756.62 992.861C1755.67 991.673 1751.62 987.145 1752.01 985.392C1752.2 984.542 1750.81 984.396 1750.02 985.183C1749.46 985.736 1749.24 987.321 1749.2 990.991L1749.14 996.039L1749.14 996.038ZM1749.98 999.589C1750.31 999.707 1750.31 999.577 1749.97 999.251C1749.22 998.534 1749.23 999.328 1749.98 999.589ZM1761.46 1009.18C1761.93 1009.02 1763.18 1009.12 1764.23 1009.4C1767.21 1010.19 1772.67 1009.82 1770.35 1008.99C1770.32 1008.98 1752.96 999.891 1752.43 1000.46C1752.41 1000.48 1753.51 1001.52 1754.86 1002.78C1759.93 1007.46 1759.87 1009.71 1761.46 1009.18L1761.46 1009.18ZM1763.61 1012.14C1763.48 1012.28 1763.56 1012.85 1763.8 1013.41C1764.72 1015.58 1765.38 1013.33 1774.45 1019.46C1785.09 1026.66 1807.42 1049.44 1818.26 1059.11C1846.22 1084.03 1806.54 1050.95 1803.01 1046.48C1802.99 1046.46 1781.52 1025.01 1770.55 1018.35C1763.96 1014.36 1760.11 1014.82 1762.26 1015.75C1769.2 1018.77 1778.61 1035.16 1788.45 1049.7C1791.22 1053.79 1805.35 1065.14 1812.99 1069.4C1825.71 1076.51 1823.95 1076.63 1831.24 1076.26C1838.55 1075.87 1842.02 1076.66 1846.71 1078.48C1850.96 1080.13 1850.85 1080.17 1850.71 1076.97C1850.65 1075.42 1850.42 1073.37 1850.21 1072.43C1849.74 1070.37 1849.4 1064.4 1849.71 1063.79C1850.71 1061.8 1813.46 1034.56 1795.78 1025.17C1784.83 1019.37 1764.86 1010.91 1763.62 1012.14L1763.61 1012.14ZM1761.62 1013.5C1761.78 1014.08 1763.04 1014.47 1763.16 1013.98C1763.36 1013.11 1761.23 1012.05 1761.62 1013.5ZM1740.67 1004.89C1741.07 1010.37 1742.09 1006.8 1744.69 1006.46C1745.86 1006.31 1749.66 1008.15 1750.64 1009.35C1752.88 1012.08 1753.69 1009.7 1746.43 1002.87C1739.55 996.377 1746.07 1000.06 1749.83 1004.88C1756.25 1013.11 1751.23 1008.79 1758.56 1016.82C1758.75 1015.52 1759.17 1012.16 1759.73 1010.94C1761.25 1007.59 1738.76 991.25 1740.2 1000.45C1740.35 1001.43 1740.57 1003.43 1740.67 1004.89ZM1738.19 1017.31C1738.51 1013.01 1740.37 1013.32 1739.69 1008.95C1737.81 996.922 1738.72 999.86 1737.09 1001.48C1735.63 1002.93 1737.52 1026.3 1738.19 1017.31ZM1731.8 1050.37C1732.71 1054.05 1738.86 1075.88 1742.93 1075.83C1744.67 1075.8 1744.59 1076.59 1745.49 1076.17C1746.4 1075.75 1746.19 1077.6 1752.65 1077.47C1741.6 1062.22 1736.37 1035.68 1735.96 1031.96C1734.8 1021.29 1734.73 1016.25 1734.04 1015.66C1733.58 1015.25 1733.38 1016.31 1733.38 1019.14C1733.38 1022.94 1733.08 1022.83 1733.29 1022.94C1733.45 1023.04 1733.47 1027.55 1732.88 1026.42C1732.27 1025.24 1732.3 1027.41 1732.75 1027.49C1733.28 1027.58 1732.96 1028.85 1732.76 1028.12C1732.18 1026 1731.33 1034.28 1731.39 1034.41C1731.79 1035.34 1731.28 1041.43 1730.78 1041.66C1730.08 1041.99 1730.39 1044.64 1731.81 1050.37L1731.8 1050.37ZM1736.78 1072.21C1735.17 1068.46 1734.44 1068.29 1731.6 1059.35C1730.38 1055.51 1729.8 1054.37 1730.27 1060.12C1731.9 1080.11 1730.65 1078.02 1738.05 1090.41C1741.09 1095.5 1742.23 1095.02 1741.82 1095.43C1741.67 1095.58 1743.06 1098.06 1742.58 1094.62C1742.07 1090.98 1740.71 1090.62 1740.49 1082.99C1740.33 1077.57 1737.16 1073.1 1736.78 1072.22L1736.78 1072.21ZM1744.03 1081.25C1743.65 1081.63 1744.15 1082.09 1744.79 1081.92C1745.44 1081.75 1744.19 1081.09 1744.03 1081.25ZM1726.02 1051.03C1726.22 1051.02 1726.22 1050.58 1726.03 1050.04C1725.41 1048.37 1725.59 1051.05 1726.02 1051.03ZM1730.22 1093.86C1730.78 1093.3 1729.17 1094.03 1724.21 1072.88C1723.68 1070.62 1724.85 1055.58 1725.18 1055.07C1725.3 1054.88 1723.98 1044.43 1723.3 1043.78C1722.75 1043.24 1723.63 1043 1724.5 1045.66C1726.29 1051.14 1725.28 1044.61 1724.58 1042.31C1723.77 1039.68 1725.02 1038.69 1723.09 1037C1722 1036.05 1722.07 1038.77 1722.32 1039.93C1722.72 1041.73 1720.54 1065.94 1720.53 1070.83C1720.52 1075 1720.73 1076.2 1721.96 1079.19C1724.02 1084.18 1729.74 1094.33 1730.22 1093.86ZM1740.87 1106.5C1746.43 1111.21 1745.65 1110.98 1744.64 1107.84C1743.06 1102.89 1744.56 1103.28 1741.56 1099.72C1723.02 1077.7 1730.39 1068.88 1727.01 1056.57C1725.7 1051.79 1726.49 1047.5 1725.94 1060.75C1725.52 1071.1 1724.74 1069.76 1727.04 1078.21C1731.24 1093.59 1731.75 1094.65 1737.25 1099.7C1739.22 1101.5 1741.28 1103.17 1741.83 1103.4C1744.34 1104.46 1739.42 1103.58 1735.12 1100C1733.98 1099.05 1737.86 1103.94 1740.87 1106.5L1740.87 1106.5ZM1825.35 1149.21C1824.92 1148.95 1811.02 1143.38 1810.05 1143.14C1806.31 1142.18 1796.17 1135.36 1785.34 1132.05C1783.3 1131.43 1779.97 1129.31 1777 1127.97C1759.62 1120.19 1740.22 1067.51 1743.38 1087.21C1744.06 1091.45 1745.01 1092.37 1745.58 1097.19C1746.01 1100.72 1746.95 1108.12 1748.87 1113.22C1753.2 1124.72 1770 1140.49 1782.07 1142.67L1783.6 1142.95C1774.55 1136.78 1776.63 1141.58 1763.34 1125.73C1759.42 1121.05 1754.67 1111.51 1753.38 1109.3C1748.49 1100.94 1747.54 1092.28 1751.49 1102.91C1752.89 1106.68 1760.25 1120.01 1764.92 1125.75C1765.06 1125.93 1771.72 1134.86 1778.71 1138.37C1785.78 1141.92 1782.59 1142.72 1797.82 1146.88C1809.54 1150.08 1812.02 1150.45 1820 1150.17C1826.08 1149.95 1826.45 1149.89 1825.35 1149.21L1825.35 1149.21ZM1866.79 1136.22C1866.29 1136.33 1864.21 1136.8 1862.17 1137.26C1843.18 1141.55 1835.05 1139.11 1826.64 1137C1819.3 1135.16 1815.69 1133.81 1811.64 1131.4C1808.73 1129.67 1809.19 1130.36 1802.77 1127.12C1793.15 1122.26 1791.91 1124.6 1775.98 1117.01C1764.41 1111.5 1757.56 1098.47 1755.25 1094.6C1751.32 1088.05 1743.91 1079.77 1748.34 1086.36C1749.48 1088.05 1751.32 1091.35 1752.44 1093.69C1759.87 1109.22 1769.23 1125.28 1787.3 1131.4C1790.4 1132.44 1794.19 1133.63 1797.11 1135.4C1805.33 1140.41 1813.56 1142.88 1825.09 1147.66C1831.89 1150.49 1836.45 1148.25 1842.58 1147.9C1854.74 1147.22 1869.06 1135.71 1866.78 1136.22L1866.79 1136.22ZM1868.01 1133.26C1867.76 1133.03 1864.27 1131.94 1859.79 1130.68C1848.96 1127.62 1844.25 1122.87 1830.77 1121.15C1798.4 1117.03 1806.43 1118.28 1793.3 1111.31C1787.5 1108.24 1781.76 1101.82 1774.1 1099.5C1768.37 1097.77 1759.55 1092.23 1758.77 1091.67C1748.64 1084.37 1753.42 1088.29 1755.52 1092.35C1771.13 1122.57 1789.62 1118.76 1802.69 1125.58C1816.23 1132.65 1831.16 1139.56 1846.84 1137.83C1849.4 1137.55 1853.21 1137.14 1855.32 1136.91C1860.67 1136.34 1868.85 1133.99 1868.01 1133.26L1868.01 1133.26ZM1876.13 1125.46C1877.04 1124.8 1877.84 1120.1 1877.29 1116.61C1875.05 1102.46 1840.1 1089.57 1824.67 1087.92C1820.33 1087.46 1816.39 1086.73 1807.97 1086.6C1807.87 1086.59 1788.18 1085.41 1770.05 1086.7C1750.61 1088.09 1745.19 1076.25 1744.43 1079.49C1744.38 1079.73 1744.77 1080.16 1745.3 1080.46C1750.18 1083.17 1752.65 1086.62 1760.21 1089.27C1777.08 1095.18 1790.21 1092.77 1801.3 1096.65C1803.79 1097.52 1805.42 1097.53 1818.66 1102.03C1829.13 1105.6 1835.38 1104.6 1840.31 1105.89C1860.07 1111.04 1875.59 1124.22 1874.64 1126.07C1873.86 1127.62 1867.43 1116.7 1847.17 1109.13C1836.63 1105.2 1836.23 1106.89 1824.79 1104.62C1820.75 1103.82 1807.34 1099.33 1801.94 1097.96C1785.17 1093.72 1773.38 1094.98 1767.59 1092.86C1760.39 1090.23 1756.92 1089.93 1761.84 1092.14C1768.06 1094.94 1766.66 1095.88 1775.12 1098.48C1779.05 1099.68 1784.53 1103.5 1787.72 1105.93C1798.26 1113.96 1803.16 1115.25 1804.17 1116.13C1805.04 1116.89 1832.25 1120.09 1832.62 1120.13C1841.42 1121.14 1849.23 1125.77 1853.1 1127.06C1868.91 1132.33 1868.62 1132.13 1868.89 1132.37C1869.27 1132.7 1872.33 1130.84 1873.77 1129.4C1875.03 1128.15 1875.21 1126.13 1876.13 1125.46L1876.13 1125.46ZM2034.38 1463.92C2035.73 1461.17 2043.73 1445.29 2044.01 1443.83C2051.24 1406.2 1998.59 1217.06 1907.94 1134.17C1903.84 1130.42 1888.16 1115.08 1887.05 1116.18C1886.57 1116.67 1913.94 1142.72 1904.27 1135.26L1905.78 1137.14C1907.97 1139.87 1907.8 1138.21 1908.65 1138.95C1909.29 1139.51 1907.89 1139.15 1909.2 1141.03C1912.18 1145.32 1887.56 1119.01 1880.56 1116.38C1879.55 1116 1880.37 1119.67 1880.78 1119.74C1881.28 1119.83 1899.16 1135.53 1902.88 1139.15C1915.28 1151.19 1881.83 1120.67 1880.03 1121.16C1878.06 1121.69 1902.94 1142.03 1902.94 1144.27C1902.94 1144.34 1880.9 1123.97 1879.85 1124.01C1878.15 1124.08 1884.69 1129.42 1891.71 1135.37C1913.72 1154.02 1902.54 1145.44 1880.12 1127.23C1879.63 1126.83 1879.23 1126.83 1878.83 1127.22C1878.34 1127.71 1878.43 1127.9 1879.42 1128.49C1881.99 1130 1902.62 1147.54 1906.77 1152.43C1967.36 1223.86 1977.93 1259.53 1986.53 1275.46C1988.24 1278.65 2004.33 1318.85 2003.81 1322.45C2003.6 1323.91 2004.78 1322.36 2007.81 1332.68C2007.82 1332.71 2013.15 1349.49 2013.17 1349.51C2013.77 1350.03 2026.37 1399.71 2026.38 1399.73C2031.52 1417.04 2033.42 1451.42 2031.88 1467.09C2031.72 1468.75 2032.46 1467.81 2034.37 1463.91L2034.38 1463.92Z" fill="url(#paint16_linear_639_1348)"/>
<path d="M1855.24 1066.54C1855.39 1067.46 1855.41 1067.46 1855.55 1066.54C1855.63 1066.01 1855.68 1064.5 1855.65 1063.18C1855.57 1059.32 1854.35 1061.27 1855.24 1066.55L1855.24 1066.54Z" fill="url(#paint17_linear_639_1348)"/>
<path d="M1864.62 1025.27C1863.94 1025.15 1863.84 1025.4 1864.38 1025.87C1865.02 1026.43 1865.21 1025.37 1864.62 1025.27Z" fill="url(#paint18_linear_639_1348)"/>
<path d="M1868.08 1036.08C1867.69 1035.75 1867.98 1038.15 1868.38 1038.51C1868.71 1038.82 1868.55 1036.47 1868.08 1036.08Z" fill="url(#paint19_linear_639_1348)"/>
<path d="M1855.66 1073.43C1855.87 1074.01 1856.03 1074.61 1856.03 1074.78C1856 1075.41 1863.35 1091.17 1858.76 1079.07C1856.29 1072.55 1855.84 1067.98 1855.4 1067.59C1854.89 1067.15 1855.11 1071.89 1855.66 1073.43Z" fill="url(#paint20_linear_639_1348)"/>
<path d="M1743.16 1027.52C1743.34 1027.67 1743.74 1028.88 1744.05 1030.22C1745.88 1037.98 1747.24 1037.53 1746.44 1035.96C1746.43 1035.94 1743.46 1026.12 1743.25 1025.94C1743.1 1025.81 1742.74 1027.14 1743.16 1027.52Z" fill="url(#paint21_linear_639_1348)"/>
</g>
<g opacity="0.2">
<path d="M168.675 374.691C168.512 374.683 168.515 374.408 168.684 374.076C169.165 373.128 169.046 374.709 168.675 374.691Z" fill="url(#paint22_linear_639_1348)"/>
<path d="M171.102 363.831C170.376 366.242 171.15 365.448 170.411 367.17C168.792 370.947 170.776 364.313 170.815 362.072C170.835 360.913 171.779 361.579 171.102 363.831Z" fill="url(#paint23_linear_639_1348)"/>
<path d="M118.448 344.277C118.463 343.492 122.6 337.602 125.035 334.902C126.854 332.886 125.511 335.363 125.141 335.769C124.036 336.985 120.647 341.498 120.455 342.009C120.123 342.896 118.439 344.797 118.448 344.277Z" fill="url(#paint24_linear_639_1348)"/>
<path d="M116.309 348.689C110.925 358.506 116.062 346.995 117.435 345.797C118.612 344.298 118.357 344.951 116.309 348.689Z" fill="url(#paint25_linear_639_1348)"/>
<path d="M120.021 326.017C122.454 325.39 122.793 326.166 121.042 326.58C120.623 326.679 105.826 331.455 95.581 338.14C95.5606 338.151 67.6217 355.49 66.0192 360.135C65.51 361.612 64.2663 361.756 65.4664 359.638C68.2446 354.74 90.8968 339.928 95.9931 337.01C103.704 332.592 100.944 333.415 116.466 327.198C117.489 326.789 119.089 326.258 120.023 326.016L120.021 326.017Z" fill="url(#paint26_linear_639_1348)"/>
<path d="M25.2993 438.278C25.1246 438.269 24.8926 438.055 24.7816 437.803C24.4995 437.147 25.7162 438.3 25.2993 438.278Z" fill="url(#paint27_linear_639_1348)"/>
<path d="M114.779 339.805C113.029 341.968 112.936 342.112 109.794 345.514C111.217 343.032 111.231 342.801 114.779 339.805Z" fill="url(#paint28_linear_639_1348)"/>
<path d="M121.336 333.351C123.715 331.947 121.573 333.879 119.299 336.065C112.054 343.033 119.552 334.405 121.336 333.351Z" fill="url(#paint29_linear_639_1348)"/>
<path d="M107.171 347.76C107.52 347.456 107.725 348.251 107.359 348.57C107.21 348.7 106.805 348.079 107.171 347.76Z" fill="url(#paint30_linear_639_1348)"/>
<path d="M180.252 377.723C180.427 377.897 180.288 379.768 180.12 379.601C180.049 379.531 180.085 377.557 180.252 377.723Z" fill="url(#paint31_linear_639_1348)"/>
<path d="M44.3092 380.61C46.268 378.74 50.0646 375.411 55.6381 366.26C57.4633 363.259 54.2303 372.641 44.7693 381.907C33.3141 393.126 31.3037 402.109 30.1298 405.478C27.1594 414.002 26.4998 421.662 25.8098 423.283C23.5932 428.489 26.5714 440.872 24.4917 435.783C23.2346 432.711 24.9282 422.078 25.6582 418.712C28.9379 403.618 29.2262 405.951 29.7367 403.826C30.0533 402.511 30.3537 402.746 31.9354 397.931C32.5649 396.014 39.8201 384.899 44.3106 380.612L44.3092 380.61Z" fill="url(#paint32_linear_639_1348)"/>
<path d="M125.252 352.205C125.922 351.564 125.907 352.274 125.246 352.507C124.944 352.612 124.945 352.494 125.252 352.205Z" fill="url(#paint33_linear_639_1348)"/>
<path d="M170.816 411.54C175.039 399.641 176.525 395.337 177.71 389.613C178.092 387.77 179.304 387.661 176.147 398.522C174.097 405.569 165.626 426.154 170.815 411.537L170.816 411.54Z" fill="url(#paint34_linear_639_1348)"/>
<path d="M168.474 429.46C169.322 428.781 166.881 433.214 166.001 435.714C165.356 437.553 165.713 431.673 168.474 429.46Z" fill="url(#paint35_linear_639_1348)"/>
<path d="M-85.1122 773.133C-84.5745 771.798 -84.0338 771.443 -84.5103 770.391C-85.9335 767.255 -85.9835 740.416 -84.5833 731.432C-71.9171 650.154 -43.0681 592.367 -42.8811 591.702C-40.4816 583.196 -9.58731 526.208 14.1317 501.361C14.827 500.633 24.191 488.665 27.6669 485.058C28.1855 484.521 46.615 468.963 49.1552 467.372C64.2751 482.321 69.3891 484.948 89.5502 486.472C96.3328 486.986 104.444 489.701 122.473 483.692C123.761 483.264 135.818 481.655 145.442 475.989C151.707 472.3 159.051 465.258 164.303 455.347C164.939 454.149 174.959 446.488 176.884 443.597C177.364 442.874 183.635 436.249 188.822 424.571C189.382 423.313 191.737 418.626 190.661 410.996C190.254 408.111 190.513 407.152 189.926 403.564C188.893 397.244 189.714 387.187 188.435 383.474C187.737 381.452 187.661 381.355 186.729 381.269C185.758 381.178 184.582 382.166 183.49 383.986C183.19 384.485 182.874 384.512 182.018 384.109C181.085 383.669 180.936 383.466 180.991 382.686C181.088 381.313 180.424 380.101 180.162 376.377C179.233 363.12 177.662 362.419 176.815 356.057C176.539 353.981 175.727 352.235 174.378 350.82C171.183 347.471 169.887 347.706 165.044 347.727C165.201 340.685 166.07 338.61 160.822 335.894C157.088 333.96 150.229 333.425 149.875 333.073C149.795 332.992 148.826 332.729 147.724 332.487C145.395 331.977 145.282 331.72 146.151 328.899C148.615 320.899 146.512 319.948 138.62 317.491C127.626 314.066 118.212 315.669 117.184 315.679C114.739 315.706 111.723 316.964 106.353 318.063C102.682 318.813 102.061 319.768 102.917 317.339C103.359 316.086 103.134 314.829 102.324 314.022C101.21 312.914 90.7651 314.088 85.9066 315.87C79.3445 318.277 73.9459 318.23 56.5255 327.3C43.4663 334.097 29.8894 347.845 29.8782 347.865C27.8238 351.251 21.7068 354.312 15.9281 373.804C12.4044 385.689 15.5556 395.055 13.3554 399.308C11.9842 401.961 12.5922 401.87 11.65 404.924C8.43808 415.318 11.8858 421.534 12.0174 423.713C12.4 430.09 23.0552 444.742 27.2764 447.045C30.43 448.767 33.7283 450.794 35.2639 451.953C40.4589 455.87 38.8212 449.499 10.9989 478.949C-61.1088 555.277 -104.164 696.065 -101.623 742.957C-101.278 749.331 -101.262 746.762 -96.0368 757.382C-94.927 759.64 -93.4272 762.294 -92.7076 763.28C-90.6031 766.162 -92.3161 766.43 -87.9852 772.12C-87.5544 772.685 -87.0823 773.426 -86.9314 773.765C-86.5811 774.565 -85.5344 774.205 -85.1046 773.141L-85.1122 773.133ZM32.4554 444.669C29.1509 428.134 30.2973 422.335 32.5824 410.943C34.0244 403.758 41.9499 392.531 42.0223 392.37C42.8176 390.645 46.7448 386.193 49.0723 381.604C50.6571 378.482 54.578 372.079 54.6433 371.445C54.7244 370.674 55.4658 370.938 56.1022 368.517C56.5894 366.664 57.0604 366.374 56.9732 367.988C56.8712 369.82 57.3891 368.715 57.5572 366.745C57.6501 365.645 57.5648 365.148 57.3486 365.528C56.9714 366.19 57.0372 354.695 58.4105 363.721C58.9793 367.462 57.8824 367.695 58.5492 367.578C59.5235 367.408 59.0124 371.846 63.4332 384.233C72.3616 409.236 71.937 403.907 70.499 423.726L66.421 425.92C56.4245 431.295 50.1468 442.589 49.6549 443.868C46.5698 451.861 41.0831 451.797 43.8288 451.657C45.7233 451.558 47.5508 448.407 47.2341 451.298C47.0324 453.129 46.8896 452.531 44.3515 453.158C41.9122 453.762 37.2452 451.498 39.0681 450.595C42.103 449.091 50.2601 429.784 51.2658 428.036C51.7441 427.206 60.7452 409.402 61.0436 400.232C61.0585 399.771 62.1095 391.316 60.9135 386.632C59.9358 382.808 59.4104 383.235 59.7606 382.544C60.2003 381.672 58.4011 381.232 59.0803 380.635C59.6142 380.17 59.4106 378.785 58.7815 378.619C58.4831 378.54 58.4773 378.454 58.7627 378.403C59.3406 378.303 59.0152 376.719 58.3343 376.994C57.5614 377.304 58.0055 374.968 57.5034 375.408C57.1677 375.703 57.8364 378.973 58.906 382.258C60.7487 387.927 60.8693 388.97 60.4157 395.27C59.5946 406.66 56.9916 413.239 53.5365 420.277C51.9342 423.543 53.218 421.913 50.8294 426.272C49.3504 428.967 39.9041 451.757 37.755 448.933C36.6109 447.429 37.4308 431.844 38.2443 429.381C42.2534 417.254 39.8256 423.797 43.0167 415.94C44.5005 412.286 49.1503 402.114 49.3009 401.849C51.5541 397.87 60.4047 371.097 48.5871 400.962C41.6667 418.45 33.1172 428.771 37.1094 450.197C33.8488 448.786 33.2817 448.775 32.4617 444.674L32.4554 444.669ZM51.6002 449.229C50.2962 450.756 50.209 450.807 50.1481 450.063C49.8108 445.943 57.0769 437.144 58.6942 435.092C63.6895 428.753 77.1276 421.572 89.9999 422.241C103.584 422.946 106.185 420.205 121.472 423.057C128.199 424.311 141.169 423.454 143.471 423.485C149.436 423.567 149.746 422.997 157.616 423.349C163.464 423.609 162.667 422.867 162.66 423.29C162.658 423.385 157.249 429.477 137.605 427.379C133.276 426.917 111.611 428.221 109.353 428.175C106.235 428.113 103.114 428.33 100.872 428.766C99.6837 428.996 98.6411 429.12 98.5535 429.038C97.5337 428.079 64.1657 434.498 51.597 449.233L51.6002 449.229ZM150.639 372.806C149.93 373.426 149.728 374.372 149.373 374.018C149.021 373.668 150.458 372.119 151.011 371.19C151.537 370.306 151.21 372.309 150.639 372.806ZM136.869 385.32C146.85 369.662 152.005 366.513 151.667 368.847C151.622 369.151 150.93 370.108 150.125 370.977C146.758 374.609 148.111 377.524 138.61 397.585C132.651 410.165 126.757 413.596 117.734 419.956C114.445 419.805 105.425 419.274 102.191 419.742C98.6595 420.253 98.3266 420.01 100.592 418.582C101.58 417.959 102.978 417.162 103.696 416.807C107.958 414.716 116.467 408.59 123.336 402.672C128.108 398.559 129.871 396.301 136.869 385.32ZM128.781 413.15C147.097 397.065 149.29 362.168 147.773 386.611C146.602 405.455 144.533 406.471 138.566 418.596C137.571 420.618 136.219 421.574 134.298 421.615C128.376 421.742 120.537 421.111 119.879 420.455C119.572 420.149 122.79 418.412 128.782 413.147L128.781 413.15ZM143.423 411.905C144.082 409.781 145.919 406.836 146.559 404.316C150.127 390.256 148.583 376.56 151.246 374.237C151.901 373.664 152.111 374.492 152.058 377.44C152.036 378.671 152.374 380.698 152.808 381.944C153.772 384.713 154.961 393.937 154.988 394.09C157.136 406.389 152.729 420.373 150.974 421.26C149.92 421.792 141.168 421.069 139.753 421.401C135.784 422.335 143.075 413.037 143.426 411.901L143.423 411.905ZM164.767 360.972C167.149 359.811 168.03 360.092 168.651 362.207C174.112 380.811 167.246 402.783 162.647 411.497C158.281 419.769 156.946 419.299 157.099 420.443C157.3 421.946 151.32 421.856 156.254 417.853C160.683 414.261 165.405 398.145 165.529 396.724C165.7 394.744 166.314 391.873 167.629 386.89C169.314 380.5 169.884 364.708 167.929 377.842C166.518 387.324 164.248 393.189 164.37 395.777C164.487 398.281 158.042 416.481 156.295 416.399C155.581 416.365 157.398 413.263 157.533 402.408C157.745 385.375 154.37 386.34 156.53 382.565C158.163 379.714 163.492 366.576 163.026 366.555C162.703 366.541 160.548 370.542 159.806 372.539C159.505 373.346 158.596 375.394 157.784 377.089C155.434 381.995 154.443 385.499 154.088 374.059C154.005 371.428 154.072 371.216 155.508 369.514C158.009 366.543 163.24 361.721 164.77 360.976L164.767 360.972ZM28.1021 469.571C27.9426 469.413 42.7193 453.297 44.6965 455.267C44.7756 455.346 43.4331 456.202 43.4178 456.216C40.7666 457.896 28.2414 469.712 28.1034 469.573L28.1021 469.571ZM142.291 364.033C116.209 371.332 74.958 405.698 73.3662 406.53L73.0005 404.54C71.866 398.373 70.4288 397.198 71.3325 396.883C73.9238 395.973 98.3775 368.877 131.753 364.92C144.374 363.424 126.866 361.745 105.8 371.568C82.4938 382.439 75.1097 393.849 71.1697 395.853C70.194 396.349 70.2544 395.684 66.4683 385.552C65.3695 382.612 63.9821 383.349 76.6089 375.322C92.4559 365.247 109.964 361.549 122.091 362.269C127.502 362.59 133.128 361.76 136.429 362.036C139.184 362.267 143.998 363.118 143.993 363.371C143.991 363.473 143.223 363.771 142.285 364.033L142.291 364.033ZM123.826 336.758C124.422 338.081 117.292 352.937 116.03 356.082C110.582 355.533 109.533 354.852 109.528 355.172C109.521 355.547 100.087 354.796 99.9998 354.414C99.9567 354.231 100.621 353.083 101.476 351.866C103.609 348.824 102.308 349.447 102.19 349.878C102.093 350.238 99.2481 354.096 98.7802 354.509C98.4696 354.782 93.5702 354.733 91.6666 355.378C91.005 355.603 90.3777 355.701 90.273 355.597C90.1899 355.512 109.951 334.911 120.492 329.201C122.258 328.246 124.474 326.327 123.971 326.194C123.6 326.094 123.273 324.272 124.58 325.572C125.037 326.027 125.587 326.948 125.804 327.621C126.603 330.104 125.493 335.47 124.073 335.994C123.795 336.095 123.684 336.442 123.827 336.76L123.826 336.758ZM127.472 325.368C127.024 324.181 127.665 323.385 129.559 322.773C129.585 322.765 140.144 320.146 135.809 322.13C127.105 326.113 128.173 327.235 127.472 325.368ZM109.41 325.989C110.022 325.985 111.249 325.846 112.136 325.679C116.323 324.892 124.941 325.441 121.865 326.536C121.843 326.545 110.516 330.107 110.49 330.113C109.416 330.353 104.766 332.647 104.083 332.709C101.199 332.968 62.8719 359.395 64.7354 361.252C65.8944 362.408 71.9336 354.329 92.5406 340.927C107.193 331.396 118.719 328.387 119.525 328.346C120.701 328.286 120.135 328.22 118.03 329.668C100.752 341.554 90.7524 355.911 85.3874 356.517C60.8677 359.286 62.1414 371.305 60.8376 363.17C60.532 361.257 59.6554 355.69 57.7764 356.379C57.4578 356.496 57.1505 356.394 57.0943 356.152C56.9256 355.422 60.9335 353.189 61.607 351.879C62.0701 350.977 78.6982 340.078 81.1817 338.769C84.7685 336.875 105.232 326.02 109.407 325.994L109.41 325.989ZM110.237 323.547C107.171 323.941 104.015 325.109 104.032 324.213C104.042 323.562 112.045 323.315 110.237 323.547ZM41.2598 370.345C41.1465 370.579 40.8436 370.845 40.5825 370.935C39.9533 371.154 41.5332 369.775 41.2598 370.345ZM43.3012 369.061C43.0014 369.166 43.0023 369.048 43.3071 368.761C43.9736 368.126 43.9586 368.83 43.3012 369.061ZM115.743 358.406C117.848 359.118 137.648 360.192 129.29 361.203C126.515 361.54 118.453 360.799 115.882 361.135C113.025 361.509 95.1501 364.049 93.0619 365.863C92.4295 366.414 88.8349 367.11 88.1293 367.726C88.114 367.74 72.722 375.182 70.6111 377.864C70.1652 378.431 65.7617 381.145 65.3218 381.127C64.5839 381.092 61.7519 370.701 62.1001 369.312C62.4159 368.057 67.9332 363.957 71.4198 362.385C74.229 361.117 85.1716 358.606 85.6784 359.111C86.0139 359.444 91.1201 357.423 96.8248 357.071C101.204 356.799 114.757 358.072 115.739 358.405L115.743 358.406ZM23.7867 387.189C26.593 383.394 36.1357 372.447 37.4578 373.762C37.9493 374.253 37.8662 374.454 36.7821 375.402C34.5384 377.363 29.4248 384.018 27.2323 387.836C27.2179 387.861 19.8215 398.533 19.8745 404.105C19.8898 405.653 18.5941 408.012 18.8906 408.326C19.427 408.892 20.4243 402.79 20.5761 402.94C21.1377 403.499 20.8809 399.188 27.2651 389.569C31.1135 383.769 35.3841 376.984 43.2883 370.093C45.1594 368.463 46.4337 367.16 46.218 367.103C45.8572 367.006 46.7292 365.959 47.7256 365.286C48.1732 364.983 55.4833 358.352 56.2978 359.166C56.3602 359.227 56.365 360.086 56.3085 361.072C55.5851 373.755 42.0806 389.017 41.1516 391.701C40.612 393.257 34.4953 398.456 31.0846 413.409C26.654 432.844 31.6787 443.644 31.7645 447.384C25.8635 443.963 17.6873 434.963 14.206 423.011C10.5886 410.586 15.8557 399.063 15.9793 398.955C16.8962 398.156 21.5365 390.23 23.7854 387.187L23.7867 387.189ZM17.9285 385.307C20.7824 376.195 33.1939 353.599 47.982 340.643C57.2791 332.495 59.5109 333.066 64.3781 330.517C67.2805 328.998 80.4233 323.78 75.9484 326.295C67.0211 331.313 55.4083 345.625 53.6625 347.44C46.3145 355.081 42.9961 361.513 41.0263 366.161C39.7678 369.131 32.9723 372.195 22.3044 385.105C20.9339 386.764 17.0232 393.336 16.4922 392.806C16.0443 392.361 16.369 387.851 16.8818 387.4C17.1847 387.134 17.6573 386.19 17.933 385.305L17.9285 385.307ZM54.4521 356.11C54.2946 357.164 44.4175 365.099 43.4072 365.317C40.9504 365.85 50.3661 352.408 55.6699 346.916C56.2871 346.278 57.9983 344.242 59.4771 342.389C68.3462 331.276 98.3735 311.287 78.3031 328.137C61.418 342.312 54.5286 355.598 54.4521 356.11ZM93.2982 317.48C91.8618 318.534 85.403 320.73 83.5609 321.368C76.3476 323.869 60.2115 331.428 58.5909 331.88C53.1902 333.396 37.2594 349.52 36.4255 350.746C35.7976 351.667 32.19 355.955 27.1654 364.269C15.8638 382.969 16.8118 388.992 16.3174 383.985C16.0726 381.497 16.425 383.195 17.0215 378.783C19.7105 358.88 37.8774 340.03 56.256 330.065C60.4595 327.785 61.1888 327.659 61.8877 327.046C66.2911 323.199 95.8721 315.843 93.296 317.481L93.2982 317.48ZM97.9666 322.954C96.0225 323.45 92.9662 324.249 90.4627 324.727C86.1806 325.544 83.6579 327.234 85.0297 325.862C88.02 322.869 90.1236 322.289 91.7915 321.212C101.851 314.718 100.711 316.509 99.1014 320.293L97.9688 322.953L97.9666 322.954ZM97.0758 325.475L98.4027 325.532C96.5741 326.206 85.7243 329.693 80.8629 332.327C72.6309 336.789 62.643 347.58 73.3476 338.741C88.6353 326.117 109.779 324.438 101.02 326.71C96.7598 327.815 80.1401 337.1 80.1176 337.112C76.3848 338.982 60.6317 350.806 61.4558 349.059C62.0084 347.89 64.5112 344.698 64.9341 344.623C65.3826 344.545 66.4893 342.829 68.8608 340.337C68.8747 340.322 76.5367 331.461 79.9189 330.375C80.6716 330.134 93.3771 325.316 97.0744 325.473L97.0758 325.475ZM118.477 318.342C117.477 318.675 115.888 319.354 114.946 319.853C112.564 321.114 93.725 323.293 104.672 320.403C117.694 316.965 123.648 316.624 118.476 318.34L118.477 318.342ZM129.879 318.625C126.165 319.718 125.158 318.279 122.746 319.074C115.472 321.469 114.131 320.695 115.548 320.033C121.856 317.084 137.358 316.423 129.879 318.625ZM137.841 320.204C135.036 320.513 130.24 321.602 126.327 323.831C125.698 323.507 121.508 321.439 121.773 321.207C122.428 320.635 124.036 320.395 126.168 320.55C131.056 320.905 129.891 319.626 135.97 319.75C138.715 319.807 139.571 320.015 137.839 320.205L137.841 320.204ZM141.021 324.471C132.067 326.928 130.231 334.012 128.335 334.088C127.636 334.116 127.321 334.196 128.406 331.627C129.423 329.219 127.404 328.521 129.85 326.381C133.336 323.337 141.449 321.653 141.864 322.064C142.571 322.768 145.421 320.965 144.036 323.006C143.664 323.557 142.775 323.987 141.02 324.469L141.021 324.471ZM140.024 332.172C140.008 332.186 130.855 333.847 130.54 333.531C130.358 333.351 132.533 330.909 134.476 329.113C136.752 327.008 140.067 325.73 143.11 324.738C142.994 325.025 140.082 332.121 140.024 332.172ZM142.602 331.894C142.464 331.756 142.467 331.304 142.609 330.892C143.324 328.829 143.673 332.963 142.602 331.894ZM159.028 338.522C158.469 338.729 156.585 339.267 154.838 339.715C142.376 342.915 131.201 352.411 129.395 355.373C127.461 358.55 126.516 357.343 122.111 356.804C118.219 356.328 118.168 356.309 119.674 353.47C122.998 347.204 123.025 342.383 137.44 338.758C148.321 336.019 132.614 338.116 124.276 343.718C127.197 335.041 126.199 335.887 136.731 334.261C142.888 333.31 146.401 333.585 153.516 336.129C149.74 337.856 147.082 336.926 138.877 340.317C129.75 344.091 127.907 347.821 124.084 350.353C123.615 350.664 123.033 351.977 125.793 349.779C133.191 343.887 138.598 340.045 148.222 338.252C153.531 337.262 154.97 335.998 157.502 336.764C159.17 337.268 160.621 337.927 159.025 338.523L159.028 338.522ZM158.687 340.204C152.028 344.18 150.324 343.562 134.693 358.868C131.739 358.174 131.495 358.104 128.3 357.655C131.349 354.022 140.024 347.214 141.505 346.273C147.089 342.731 156.966 339.888 157.816 339.592C159.305 339.072 159.888 339.485 158.684 340.203L158.687 340.204ZM162.822 348.744L161.034 349.702C161.014 349.712 151.121 354.1 148.579 355.788C144.554 358.465 142.127 358.223 142.339 359.792C142.567 361.458 136.434 359.487 136.443 358.997C136.464 357.822 147.311 347.357 156.883 342.178C159.601 340.708 154.474 347.113 153.886 347.678C149.359 352.053 152.077 351.05 156.188 345.928C157.035 344.875 160.624 340.862 160.275 339.309C160.107 338.556 161.343 338.426 162.043 339.123C162.534 339.614 162.733 341.019 162.769 344.271L162.82 348.745L162.822 348.744ZM162.08 351.891C161.78 351.995 161.783 351.88 162.086 351.591C162.752 350.956 162.737 351.66 162.08 351.891ZM151.903 360.393C151.483 360.253 150.379 360.341 149.446 360.587C146.802 361.285 141.967 360.962 144.023 360.225C144.046 360.215 159.435 352.158 159.904 352.666C159.921 352.683 158.95 353.605 157.749 354.715C153.253 358.868 153.311 360.858 151.902 360.391L151.903 360.393ZM149.993 363.012C150.115 363.135 150.042 363.642 149.83 364.143C149.01 366.067 148.427 364.066 140.388 369.505C130.958 375.885 111.166 396.071 101.56 404.637C76.7853 426.726 111.947 397.411 115.081 393.448C115.094 393.43 134.124 374.423 143.85 368.522C149.686 364.981 153.094 365.389 151.189 366.217C145.044 368.886 136.701 383.419 127.979 396.303C125.528 399.925 113.002 409.982 106.236 413.764C94.9631 420.064 96.517 420.172 90.0562 419.836C83.581 419.497 80.5022 420.194 76.3475 421.809C72.5801 423.272 72.6781 423.309 72.7997 420.47C72.8571 419.095 73.0615 417.283 73.2496 416.444C73.6607 414.622 73.9694 409.33 73.6941 408.788C72.808 407.028 105.814 382.884 121.489 374.565C131.187 369.419 148.891 361.923 149.989 363.017L149.993 363.012ZM151.758 364.218C151.617 364.732 150.502 365.083 150.398 364.647C150.219 363.871 152.108 362.937 151.758 364.218ZM170.326 356.585C169.972 361.45 169.065 358.285 166.767 357.981C165.728 357.843 162.36 359.475 161.487 360.54C159.504 362.963 158.792 360.856 165.218 354.796C171.316 349.044 165.541 352.311 162.21 356.581C156.52 363.877 160.97 360.042 154.47 367.16C154.301 366.006 153.929 363.035 153.439 361.952C152.091 358.978 172.022 344.501 170.743 352.65C170.608 353.521 170.419 355.291 170.326 356.585ZM172.522 367.595C172.238 363.784 170.591 364.056 171.194 360.187C172.858 349.527 172.058 352.131 173.501 353.567C174.794 354.855 173.116 375.564 172.522 367.595ZM178.184 396.894C177.378 400.155 171.935 419.504 168.325 419.457C166.784 419.436 166.851 420.132 166.058 419.764C165.251 419.389 165.435 421.024 159.71 420.916C169.506 407.397 174.142 383.881 174.5 380.58C175.528 371.127 175.593 366.657 176.199 366.131C176.61 365.774 176.788 366.709 176.787 369.216C176.788 372.587 177.052 372.487 176.87 372.589C176.724 372.672 176.71 376.675 177.23 375.669C177.768 374.625 177.745 376.55 177.342 376.618C176.875 376.699 177.157 377.823 177.334 377.172C177.848 375.299 178.608 382.632 178.554 382.752C178.2 383.573 178.648 388.973 179.088 389.177C179.71 389.467 179.434 391.817 178.182 396.892L178.184 396.894ZM173.773 416.255C175.201 412.931 175.847 412.777 178.369 404.851C179.448 401.454 179.963 400.439 179.548 405.534C178.102 423.251 179.208 421.401 172.648 432.384C169.956 436.889 168.943 436.464 169.307 436.828C169.442 436.962 168.21 439.164 168.638 436.109C169.09 432.89 170.288 432.566 170.487 425.805C170.629 421 173.436 417.039 173.772 416.259L173.773 416.255ZM167.348 424.264C167.687 424.602 167.242 425.008 166.672 424.856C166.103 424.704 167.205 424.123 167.348 424.264ZM183.311 397.482C183.132 397.474 183.129 397.078 183.304 396.604C183.848 395.122 183.688 397.499 183.311 397.482ZM179.587 435.44C179.088 434.943 180.516 435.588 184.913 416.848C185.383 414.843 184.344 401.516 184.056 401.063C183.951 400.896 185.121 391.631 185.718 391.053C186.206 390.58 185.426 390.365 184.657 392.719C183.074 397.581 183.962 391.791 184.586 389.754C185.302 387.422 184.199 386.545 185.911 385.048C186.871 384.208 186.81 386.615 186.586 387.639C186.232 389.242 188.169 410.691 188.177 415.031C188.184 418.721 188.002 419.788 186.907 422.437C185.08 426.855 180.01 435.859 179.587 435.44ZM170.149 446.638C165.222 450.816 165.915 450.612 166.805 447.832C168.209 443.443 166.884 443.788 169.54 440.635C185.965 421.117 179.438 413.299 182.432 402.391C183.594 398.154 182.896 394.356 183.378 406.098C183.755 415.269 184.445 414.081 182.402 421.568C178.682 435.197 178.236 436.136 173.357 440.612C171.614 442.211 169.784 443.688 169.294 443.896C167.074 444.829 171.43 444.052 175.25 440.877C176.255 440.042 172.814 444.376 170.146 446.639L170.149 446.638ZM95.28 484.495C95.6629 484.261 107.978 479.327 108.838 479.109C112.157 478.265 121.141 472.218 130.735 469.287C132.549 468.732 135.496 466.852 138.13 465.672C153.53 458.771 170.723 412.082 167.927 429.543C167.325 433.299 166.484 434.115 165.971 438.388C165.596 441.518 164.764 448.079 163.061 452.594C159.221 462.785 144.329 476.767 133.637 478.7L132.284 478.945C140.297 473.478 138.46 477.733 150.236 463.686C153.714 459.538 157.922 451.079 159.065 449.121C163.401 441.71 164.243 434.038 160.739 443.459C159.496 446.797 152.973 458.614 148.839 463.703C148.715 463.858 142.811 471.776 136.616 474.885C130.35 478.028 133.178 478.737 119.678 482.426C109.29 485.263 107.092 485.588 100.018 485.34C94.6292 485.151 94.3021 485.092 95.2778 484.496L95.28 484.495ZM58.5562 472.978C58.9993 473.078 60.842 473.492 62.6479 473.9C79.4741 477.704 86.6784 475.537 94.1369 473.669C100.645 472.038 103.836 470.848 107.431 468.71C110.005 467.179 109.597 467.786 115.291 464.914C123.82 460.61 124.911 462.678 139.029 455.953C149.284 451.069 155.358 439.524 157.408 436.098C160.886 430.286 167.452 422.953 163.527 428.793C162.52 430.291 160.886 433.212 159.895 435.284C153.309 449.052 145.017 463.286 128.999 468.705C126.255 469.633 122.894 470.682 120.308 472.256C113.026 476.694 105.732 478.881 95.5123 483.122C89.483 485.623 85.4415 483.639 80.0066 483.334C69.232 482.728 56.5432 472.532 58.5598 472.979L58.5562 472.978ZM57.4681 470.355C57.6968 470.157 60.7847 469.184 64.7528 468.068C74.3581 465.36 78.5324 461.149 90.4786 459.627C119.161 455.975 112.045 457.082 123.685 450.905C128.821 448.18 133.913 442.49 140.703 440.439C145.779 438.904 153.599 433.996 154.289 433.499C163.265 427.025 159.027 430.502 157.17 434.1C143.331 460.883 126.948 457.503 115.365 463.547C103.361 469.812 90.1343 475.939 76.2373 474.409C73.9685 474.16 70.5859 473.793 68.7161 473.593C63.9742 473.09 56.7287 471.003 57.4694 470.357L57.4681 470.355ZM50.2733 463.447C49.4681 462.862 48.7561 458.69 49.2462 455.599C51.2355 443.057 82.2096 431.64 95.8836 430.175C99.7289 429.763 103.217 429.117 110.68 429.002C110.771 429 128.221 427.949 144.285 429.095C161.514 430.322 166.324 419.829 166.994 422.702C167.043 422.913 166.694 423.3 166.22 423.566C161.897 425.966 159.711 429.018 153.013 431.366C138.061 436.608 126.42 434.474 116.592 437.909C114.384 438.681 112.943 438.69 101.208 442.683C91.9312 445.842 86.3903 444.96 82.0218 446.097C64.5059 450.664 50.7548 462.341 51.5929 463.987C52.29 465.356 57.9826 455.68 75.939 448.975C85.2856 445.485 85.634 446.99 95.7792 444.978C99.3527 444.268 111.239 440.286 116.023 439.075C130.886 435.315 141.338 436.432 146.472 434.555C152.846 432.225 155.924 431.96 151.563 433.918C146.055 436.392 147.295 437.228 139.795 439.53C136.309 440.599 131.455 443.982 128.628 446.135C119.286 453.251 114.944 454.391 114.047 455.175C113.276 455.848 89.1613 458.686 88.8373 458.724C81.0375 459.617 74.1114 463.721 70.6892 464.862C56.6765 469.535 56.9282 469.359 56.6886 469.569C56.3538 469.86 53.6459 468.214 52.3633 466.938C51.2505 465.832 51.0892 464.034 50.2778 463.444L50.2733 463.447ZM-89.971 763.401C-91.167 760.963 -98.2639 746.89 -98.5112 745.602C-104.919 712.252 -58.2568 544.624 22.0861 471.161C25.72 467.838 39.6132 454.246 40.5934 455.222C41.0274 455.655 16.7705 478.742 25.341 472.129L23.9984 473.799C22.0556 476.215 22.2039 474.746 21.451 475.402C20.891 475.893 22.1264 475.575 20.9697 477.241C18.3297 481.048 40.1421 457.727 46.3492 455.394C47.2408 455.059 46.5215 458.314 46.1539 458.378C45.7135 458.454 29.8611 472.37 26.5656 475.574C15.5823 486.25 45.2204 459.203 46.8169 459.631C48.5643 460.098 26.5182 478.131 26.5128 480.112C26.511 480.175 46.0514 462.123 46.9771 462.16C48.4838 462.222 42.6922 466.952 36.4645 472.228C16.9572 488.753 26.8689 481.153 46.7414 465.008C47.1711 464.658 47.531 464.659 47.8819 465.007C48.3158 465.439 48.2358 465.607 47.3581 466.126C45.0826 467.471 26.8005 483.011 23.1196 487.349C-30.5799 550.649 -39.9457 582.268 -47.5619 596.384C-49.0845 599.206 -63.344 634.839 -62.8838 638.026C-62.6967 639.323 -63.7411 637.95 -66.4297 647.091C-66.4382 647.116 -71.1552 661.992 -71.175 662.008C-71.7045 662.471 -82.8762 706.495 -82.8825 706.518C-87.4402 721.852 -89.1194 752.326 -87.7617 766.216C-87.6179 767.687 -88.2751 766.847 -89.9665 763.399L-89.971 763.401Z" fill="url(#paint36_linear_639_1348)"/>
<path d="M68.7907 411.23C68.6535 412.042 68.6405 412.041 68.5158 411.228C68.4422 410.756 68.4024 409.416 68.4259 408.252C68.4928 404.831 69.5774 406.559 68.792 411.232L68.7907 411.23Z" fill="url(#paint37_linear_639_1348)"/>
<path d="M60.4796 374.651C61.0811 374.547 61.1671 374.765 60.6922 375.179C60.1185 375.681 59.9534 374.74 60.4796 374.651Z" fill="url(#paint38_linear_639_1348)"/>
<path d="M57.4075 384.231C57.7572 383.937 57.498 386.062 57.1451 386.388C56.8487 386.662 56.9933 384.578 57.4075 384.231Z" fill="url(#paint39_linear_639_1348)"/>
<path d="M68.4168 417.335C68.2328 417.845 68.0883 418.38 68.0932 418.525C68.1146 419.087 61.604 433.056 65.6706 422.328C67.8592 416.553 68.2584 412.5 68.6513 412.155C69.099 411.764 68.9073 415.967 68.4168 417.335Z" fill="url(#paint40_linear_639_1348)"/>
<path d="M168.116 376.642C167.963 376.774 167.61 377.853 167.33 379.037C165.708 385.911 164.5 385.517 165.21 384.127C165.221 384.107 167.856 375.404 168.04 375.244C168.171 375.129 168.496 376.31 168.116 376.642Z" fill="url(#paint41_linear_639_1348)"/>
</g>
</g>
<defs>
<radialGradient id="paint0_radial_639_1348" cx="0" cy="0" r="1" gradientUnits="userSpaceOnUse" gradientTransform="translate(107.5 803.5) rotate(90) scale(441.5 586.5)">
<stop stop-color="#FFE7CC"/>
<stop offset="1" stop-color="#FFFCF9"/>
</radialGradient>
<radialGradient id="paint1_radial_639_1348" cx="0" cy="0" r="1" gradientUnits="userSpaceOnUse" gradientTransform="translate(990 614) rotate(90) scale(406)">
<stop stop-color="#FFE7CC"/>
<stop offset="1" stop-color="#FFFCF9"/>
</radialGradient>
<linearGradient id="paint2_linear_639_1348" x1="1742.62" y1="1024.46" x2="1742.24" y2="1025.18" gradientUnits="userSpaceOnUse">
<stop stop-color="#F5EAB0"/>
<stop offset="0.11" stop-color="#DAC37C"/>
<stop offset="0.29" stop-color="#AE8326"/>
<stop offset="0.39" stop-color="#C3A250"/>
<stop offset="0.51" stop-color="#DECA84"/>
<stop offset="0.61" stop-color="#EEE2A4"/>
<stop offset="0.67" stop-color="#F5ECB1"/>
<stop offset="0.68" stop-color="#EEE2A4"/>
<stop offset="0.76" stop-color="#D9C179"/>
<stop offset="0.82" stop-color="#C8A757"/>
<stop offset="0.89" stop-color="#BB953F"/>
<stop offset="0.95" stop-color="#B48931"/>
<stop offset="1" stop-color="#B2862C"/>
</linearGradient>
<linearGradient id="paint3_linear_639_1348" x1="1742.17" y1="1011.65" x2="1739.29" y2="1017.09" gradientUnits="userSpaceOnUse">
<stop stop-color="#F5EAB0"/>
<stop offset="0.11" stop-color="#DAC37C"/>
<stop offset="0.29" stop-color="#AE8326"/>
<stop offset="0.39" stop-color="#C3A250"/>
<stop offset="0.51" stop-color="#DECA84"/>
<stop offset="0.61" stop-color="#EEE2A4"/>
<stop offset="0.67" stop-color="#F5ECB1"/>
<stop offset="0.68" stop-color="#EEE2A4"/>
<stop offset="0.76" stop-color="#D9C179"/>
<stop offset="0.82" stop-color="#C8A757"/>
<stop offset="0.89" stop-color="#BB953F"/>
<stop offset="0.95" stop-color="#B48931"/>
<stop offset="1" stop-color="#B2862C"/>
</linearGradient>
<linearGradient id="paint4_linear_639_1348" x1="1796.65" y1="982.63" x2="1793.69" y2="988.233" gradientUnits="userSpaceOnUse">
<stop stop-color="#F5EAB0"/>
<stop offset="0.11" stop-color="#DAC37C"/>
<stop offset="0.29" stop-color="#AE8326"/>
<stop offset="0.39" stop-color="#C3A250"/>
<stop offset="0.51" stop-color="#DECA84"/>
<stop offset="0.61" stop-color="#EEE2A4"/>
<stop offset="0.67" stop-color="#F5ECB1"/>
<stop offset="0.68" stop-color="#EEE2A4"/>
<stop offset="0.76" stop-color="#D9C179"/>
<stop offset="0.82" stop-color="#C8A757"/>
<stop offset="0.89" stop-color="#BB953F"/>
<stop offset="0.95" stop-color="#B48931"/>
<stop offset="1" stop-color="#B2862C"/>
</linearGradient>
<linearGradient id="paint5_linear_639_1348" x1="1803.37" y1="993.875" x2="1800.87" y2="998.598" gradientUnits="userSpaceOnUse">
<stop stop-color="#F5EAB0"/>
<stop offset="0.11" stop-color="#DAC37C"/>
<stop offset="0.29" stop-color="#AE8326"/>
<stop offset="0.39" stop-color="#C3A250"/>
<stop offset="0.51" stop-color="#DECA84"/>
<stop offset="0.61" stop-color="#EEE2A4"/>
<stop offset="0.67" stop-color="#F5ECB1"/>
<stop offset="0.68" stop-color="#EEE2A4"/>
<stop offset="0.76" stop-color="#D9C179"/>
<stop offset="0.82" stop-color="#C8A757"/>
<stop offset="0.89" stop-color="#BB953F"/>
<stop offset="0.95" stop-color="#B48931"/>
<stop offset="1" stop-color="#B2862C"/>
</linearGradient>
<linearGradient id="paint6_linear_639_1348" x1="1830.25" y1="985.444" x2="1826.42" y2="992.627" gradientUnits="userSpaceOnUse">
<stop stop-color="#F5EAB0"/>
<stop offset="0.11" stop-color="#DAC37C"/>
<stop offset="0.29" stop-color="#AE8326"/>
<stop offset="0.39" stop-color="#C3A250"/>
<stop offset="0.51" stop-color="#DECA84"/>
<stop offset="0.61" stop-color="#EEE2A4"/>
<stop offset="0.67" stop-color="#F5ECB1"/>
<stop offset="0.68" stop-color="#EEE2A4"/>
<stop offset="0.76" stop-color="#D9C179"/>
<stop offset="0.82" stop-color="#C8A757"/>
<stop offset="0.89" stop-color="#BB953F"/>
<stop offset="0.95" stop-color="#B48931"/>
<stop offset="1" stop-color="#B2862C"/>
</linearGradient>
<linearGradient id="paint7_linear_639_1348" x1="1904.85" y1="1096.27" x2="1904.39" y2="1097.13" gradientUnits="userSpaceOnUse">
<stop stop-color="#F5EAB0"/>
<stop offset="0.11" stop-color="#DAC37C"/>
<stop offset="0.29" stop-color="#AE8326"/>
<stop offset="0.39" stop-color="#C3A250"/>
<stop offset="0.51" stop-color="#DECA84"/>
<stop offset="0.61" stop-color="#EEE2A4"/>
<stop offset="0.67" stop-color="#F5ECB1"/>
<stop offset="0.68" stop-color="#EEE2A4"/>
<stop offset="0.76" stop-color="#D9C179"/>
<stop offset="0.82" stop-color="#C8A757"/>
<stop offset="0.89" stop-color="#BB953F"/>
<stop offset="0.95" stop-color="#B48931"/>
<stop offset="1" stop-color="#B2862C"/>
</linearGradient>
<linearGradient id="paint8_linear_639_1348" x1="1806.98" y1="987.875" x2="1805.54" y2="990.577" gradientUnits="userSpaceOnUse">
<stop stop-color="#F5EAB0"/>
<stop offset="0.11" stop-color="#DAC37C"/>
<stop offset="0.29" stop-color="#AE8326"/>
<stop offset="0.39" stop-color="#C3A250"/>
<stop offset="0.51" stop-color="#DECA84"/>
<stop offset="0.61" stop-color="#EEE2A4"/>
<stop offset="0.67" stop-color="#F5ECB1"/>
<stop offset="0.68" stop-color="#EEE2A4"/>
<stop offset="0.76" stop-color="#D9C179"/>
<stop offset="0.82" stop-color="#C8A757"/>
<stop offset="0.89" stop-color="#BB953F"/>
<stop offset="0.95" stop-color="#B48931"/>
<stop offset="1" stop-color="#B2862C"/>
</linearGradient>
<linearGradient id="paint9_linear_639_1348" x1="1799" y1="980.274" x2="1797.73" y2="982.674" gradientUnits="userSpaceOnUse">
<stop stop-color="#F5EAB0"/>
<stop offset="0.11" stop-color="#DAC37C"/>
<stop offset="0.29" stop-color="#AE8326"/>
<stop offset="0.39" stop-color="#C3A250"/>
<stop offset="0.51" stop-color="#DECA84"/>
<stop offset="0.61" stop-color="#EEE2A4"/>
<stop offset="0.67" stop-color="#F5ECB1"/>
<stop offset="0.68" stop-color="#EEE2A4"/>
<stop offset="0.76" stop-color="#D9C179"/>
<stop offset="0.82" stop-color="#C8A757"/>
<stop offset="0.89" stop-color="#BB953F"/>
<stop offset="0.95" stop-color="#B48931"/>
<stop offset="1" stop-color="#B2862C"/>
</linearGradient>
<linearGradient id="paint10_linear_639_1348" x1="1812.02" y1="994.96" x2="1811.59" y2="995.771" gradientUnits="userSpaceOnUse">
<stop stop-color="#F5EAB0"/>
<stop offset="0.11" stop-color="#DAC37C"/>
<stop offset="0.29" stop-color="#AE8326"/>
<stop offset="0.39" stop-color="#C3A250"/>
<stop offset="0.51" stop-color="#DECA84"/>
<stop offset="0.61" stop-color="#EEE2A4"/>
<stop offset="0.67" stop-color="#F5ECB1"/>
<stop offset="0.68" stop-color="#EEE2A4"/>
<stop offset="0.76" stop-color="#D9C179"/>
<stop offset="0.82" stop-color="#C8A757"/>
<stop offset="0.89" stop-color="#BB953F"/>
<stop offset="0.95" stop-color="#B48931"/>
<stop offset="1" stop-color="#B2862C"/>
</linearGradient>
<linearGradient id="paint11_linear_639_1348" x1="1730.04" y1="1029.01" x2="1729.17" y2="1030.65" gradientUnits="userSpaceOnUse">
<stop stop-color="#F5EAB0"/>
<stop offset="0.11" stop-color="#DAC37C"/>
<stop offset="0.29" stop-color="#AE8326"/>
<stop offset="0.39" stop-color="#C3A250"/>
<stop offset="0.51" stop-color="#DECA84"/>
<stop offset="0.61" stop-color="#EEE2A4"/>
<stop offset="0.67" stop-color="#F5ECB1"/>
<stop offset="0.68" stop-color="#EEE2A4"/>
<stop offset="0.76" stop-color="#D9C179"/>
<stop offset="0.82" stop-color="#C8A757"/>
<stop offset="0.89" stop-color="#BB953F"/>
<stop offset="0.95" stop-color="#B48931"/>
<stop offset="1" stop-color="#B2862C"/>
</linearGradient>
<linearGradient id="paint12_linear_639_1348" x1="1901.68" y1="1032.15" x2="1876.05" y2="1080.56" gradientUnits="userSpaceOnUse">
<stop stop-color="#F5EAB0"/>
<stop offset="0.11" stop-color="#DAC37C"/>
<stop offset="0.29" stop-color="#AE8326"/>
<stop offset="0.39" stop-color="#C3A250"/>
<stop offset="0.51" stop-color="#DECA84"/>
<stop offset="0.61" stop-color="#EEE2A4"/>
<stop offset="0.67" stop-color="#F5ECB1"/>
<stop offset="0.68" stop-color="#EEE2A4"/>
<stop offset="0.76" stop-color="#D9C179"/>
<stop offset="0.82" stop-color="#C8A757"/>
<stop offset="0.89" stop-color="#BB953F"/>
<stop offset="0.95" stop-color="#B48931"/>
<stop offset="1" stop-color="#B2862C"/>
</linearGradient>
<linearGradient id="paint13_linear_639_1348" x1="1791.48" y1="999.842" x2="1791.3" y2="1000.18" gradientUnits="userSpaceOnUse">
<stop stop-color="#F5EAB0"/>
<stop offset="0.11" stop-color="#DAC37C"/>
<stop offset="0.29" stop-color="#AE8326"/>
<stop offset="0.39" stop-color="#C3A250"/>
<stop offset="0.51" stop-color="#DECA84"/>
<stop offset="0.61" stop-color="#EEE2A4"/>
<stop offset="0.67" stop-color="#F5ECB1"/>
<stop offset="0.68" stop-color="#EEE2A4"/>
<stop offset="0.76" stop-color="#D9C179"/>
<stop offset="0.82" stop-color="#C8A757"/>
<stop offset="0.89" stop-color="#BB953F"/>
<stop offset="0.95" stop-color="#B48931"/>
<stop offset="1" stop-color="#B2862C"/>
</linearGradient>
<linearGradient id="paint14_linear_639_1348" x1="1743.1" y1="1047.03" x2="1732.25" y2="1067.53" gradientUnits="userSpaceOnUse">
<stop stop-color="#F5EAB0"/>
<stop offset="0.11" stop-color="#DAC37C"/>
<stop offset="0.29" stop-color="#AE8326"/>
<stop offset="0.39" stop-color="#C3A250"/>
<stop offset="0.51" stop-color="#DECA84"/>
<stop offset="0.61" stop-color="#EEE2A4"/>
<stop offset="0.67" stop-color="#F5ECB1"/>
<stop offset="0.68" stop-color="#EEE2A4"/>
<stop offset="0.76" stop-color="#D9C179"/>
<stop offset="0.82" stop-color="#C8A757"/>
<stop offset="0.89" stop-color="#BB953F"/>
<stop offset="0.95" stop-color="#B48931"/>
<stop offset="1" stop-color="#B2862C"/>
</linearGradient>
<linearGradient id="paint15_linear_639_1348" x1="1745.58" y1="1088.6" x2="1743.15" y2="1093.19" gradientUnits="userSpaceOnUse">
<stop stop-color="#F5EAB0"/>
<stop offset="0.11" stop-color="#DAC37C"/>
<stop offset="0.29" stop-color="#AE8326"/>
<stop offset="0.39" stop-color="#C3A250"/>
<stop offset="0.51" stop-color="#DECA84"/>
<stop offset="0.61" stop-color="#EEE2A4"/>
<stop offset="0.67" stop-color="#F5ECB1"/>
<stop offset="0.68" stop-color="#EEE2A4"/>
<stop offset="0.76" stop-color="#D9C179"/>
<stop offset="0.82" stop-color="#C8A757"/>
<stop offset="0.89" stop-color="#BB953F"/>
<stop offset="0.95" stop-color="#B48931"/>
<stop offset="1" stop-color="#B2862C"/>
</linearGradient>
<linearGradient id="paint16_linear_639_1348" x1="2005" y1="1043.79" x2="1831.71" y2="1371.08" gradientUnits="userSpaceOnUse">
<stop stop-color="#F5EAB0"/>
<stop offset="0.11" stop-color="#DAC37C"/>
<stop offset="0.29" stop-color="#AE8326"/>
<stop offset="0.39" stop-color="#C3A250"/>
<stop offset="0.51" stop-color="#DECA84"/>
<stop offset="0.61" stop-color="#EEE2A4"/>
<stop offset="0.67" stop-color="#F5ECB1"/>
<stop offset="0.68" stop-color="#EEE2A4"/>
<stop offset="0.76" stop-color="#D9C179"/>
<stop offset="0.82" stop-color="#C8A757"/>
<stop offset="0.89" stop-color="#BB953F"/>
<stop offset="0.95" stop-color="#B48931"/>
<stop offset="1" stop-color="#B2862C"/>
</linearGradient>
<linearGradient id="paint17_linear_639_1348" x1="1856.74" y1="1061.92" x2="1854.25" y2="1066.62" gradientUnits="userSpaceOnUse">
<stop stop-color="#F5EAB0"/>
<stop offset="0.11" stop-color="#DAC37C"/>
<stop offset="0.29" stop-color="#AE8326"/>
<stop offset="0.39" stop-color="#C3A250"/>
<stop offset="0.51" stop-color="#DECA84"/>
<stop offset="0.61" stop-color="#EEE2A4"/>
<stop offset="0.67" stop-color="#F5ECB1"/>
<stop offset="0.68" stop-color="#EEE2A4"/>
<stop offset="0.76" stop-color="#D9C179"/>
<stop offset="0.82" stop-color="#C8A757"/>
<stop offset="0.89" stop-color="#BB953F"/>
<stop offset="0.95" stop-color="#B48931"/>
<stop offset="1" stop-color="#B2862C"/>
</linearGradient>
<linearGradient id="paint18_linear_639_1348" x1="1864.7" y1="1025.29" x2="1864.37" y2="1025.89" gradientUnits="userSpaceOnUse">
<stop stop-color="#F5EAB0"/>
<stop offset="0.11" stop-color="#DAC37C"/>
<stop offset="0.29" stop-color="#AE8326"/>
<stop offset="0.39" stop-color="#C3A250"/>
<stop offset="0.51" stop-color="#DECA84"/>
<stop offset="0.61" stop-color="#EEE2A4"/>
<stop offset="0.67" stop-color="#F5ECB1"/>
<stop offset="0.68" stop-color="#EEE2A4"/>
<stop offset="0.76" stop-color="#D9C179"/>
<stop offset="0.82" stop-color="#C8A757"/>
<stop offset="0.89" stop-color="#BB953F"/>
<stop offset="0.95" stop-color="#B48931"/>
<stop offset="1" stop-color="#B2862C"/>
</linearGradient>
<linearGradient id="paint19_linear_639_1348" x1="1868.76" y1="1036.44" x2="1867.81" y2="1038.22" gradientUnits="userSpaceOnUse">
<stop stop-color="#F5EAB0"/>
<stop offset="0.11" stop-color="#DAC37C"/>
<stop offset="0.29" stop-color="#AE8326"/>
<stop offset="0.39" stop-color="#C3A250"/>
<stop offset="0.51" stop-color="#DECA84"/>
<stop offset="0.61" stop-color="#EEE2A4"/>
<stop offset="0.67" stop-color="#F5ECB1"/>
<stop offset="0.68" stop-color="#EEE2A4"/>
<stop offset="0.76" stop-color="#D9C179"/>
<stop offset="0.82" stop-color="#C8A757"/>
<stop offset="0.89" stop-color="#BB953F"/>
<stop offset="0.95" stop-color="#B48931"/>
<stop offset="1" stop-color="#B2862C"/>
</linearGradient>
<linearGradient id="paint20_linear_639_1348" x1="1860.96" y1="1070.53" x2="1855.38" y2="1081.06" gradientUnits="userSpaceOnUse">
<stop stop-color="#F5EAB0"/>
<stop offset="0.11" stop-color="#DAC37C"/>
<stop offset="0.29" stop-color="#AE8326"/>
<stop offset="0.39" stop-color="#C3A250"/>
<stop offset="0.51" stop-color="#DECA84"/>
<stop offset="0.61" stop-color="#EEE2A4"/>
<stop offset="0.67" stop-color="#F5ECB1"/>
<stop offset="0.68" stop-color="#EEE2A4"/>
<stop offset="0.76" stop-color="#D9C179"/>
<stop offset="0.82" stop-color="#C8A757"/>
<stop offset="0.89" stop-color="#BB953F"/>
<stop offset="0.95" stop-color="#B48931"/>
<stop offset="1" stop-color="#B2862C"/>
</linearGradient>
<linearGradient id="paint21_linear_639_1348" x1="1747.08" y1="1027.97" x2="1743.27" y2="1035.16" gradientUnits="userSpaceOnUse">
<stop stop-color="#F5EAB0"/>
<stop offset="0.11" stop-color="#DAC37C"/>
<stop offset="0.29" stop-color="#AE8326"/>
<stop offset="0.39" stop-color="#C3A250"/>
<stop offset="0.51" stop-color="#DECA84"/>
<stop offset="0.61" stop-color="#EEE2A4"/>
<stop offset="0.67" stop-color="#F5ECB1"/>
<stop offset="0.68" stop-color="#EEE2A4"/>
<stop offset="0.76" stop-color="#D9C179"/>
<stop offset="0.82" stop-color="#C8A757"/>
<stop offset="0.89" stop-color="#BB953F"/>
<stop offset="0.95" stop-color="#B48931"/>
<stop offset="1" stop-color="#B2862C"/>
</linearGradient>
<linearGradient id="paint22_linear_639_1348" x1="168.6" y1="373.938" x2="168.936" y2="374.573" gradientUnits="userSpaceOnUse">
<stop stop-color="#F5EAB0"/>
<stop offset="0.11" stop-color="#DAC37C"/>
<stop offset="0.29" stop-color="#AE8326"/>
<stop offset="0.39" stop-color="#C3A250"/>
<stop offset="0.51" stop-color="#DECA84"/>
<stop offset="0.61" stop-color="#EEE2A4"/>
<stop offset="0.67" stop-color="#F5ECB1"/>
<stop offset="0.68" stop-color="#EEE2A4"/>
<stop offset="0.76" stop-color="#D9C179"/>
<stop offset="0.82" stop-color="#C8A757"/>
<stop offset="0.89" stop-color="#BB953F"/>
<stop offset="0.95" stop-color="#B48931"/>
<stop offset="1" stop-color="#B2862C"/>
</linearGradient>
<linearGradient id="paint23_linear_639_1348" x1="168.996" y1="362.581" x2="171.547" y2="367.399" gradientUnits="userSpaceOnUse">
<stop stop-color="#F5EAB0"/>
<stop offset="0.11" stop-color="#DAC37C"/>
<stop offset="0.29" stop-color="#AE8326"/>
<stop offset="0.39" stop-color="#C3A250"/>
<stop offset="0.51" stop-color="#DECA84"/>
<stop offset="0.61" stop-color="#EEE2A4"/>
<stop offset="0.67" stop-color="#F5ECB1"/>
<stop offset="0.68" stop-color="#EEE2A4"/>
<stop offset="0.76" stop-color="#D9C179"/>
<stop offset="0.82" stop-color="#C8A757"/>
<stop offset="0.89" stop-color="#BB953F"/>
<stop offset="0.95" stop-color="#B48931"/>
<stop offset="1" stop-color="#B2862C"/>
</linearGradient>
<linearGradient id="paint24_linear_639_1348" x1="120.71" y1="336.862" x2="123.341" y2="341.827" gradientUnits="userSpaceOnUse">
<stop stop-color="#F5EAB0"/>
<stop offset="0.11" stop-color="#DAC37C"/>
<stop offset="0.29" stop-color="#AE8326"/>
<stop offset="0.39" stop-color="#C3A250"/>
<stop offset="0.51" stop-color="#DECA84"/>
<stop offset="0.61" stop-color="#EEE2A4"/>
<stop offset="0.67" stop-color="#F5ECB1"/>
<stop offset="0.68" stop-color="#EEE2A4"/>
<stop offset="0.76" stop-color="#D9C179"/>
<stop offset="0.82" stop-color="#C8A757"/>
<stop offset="0.89" stop-color="#BB953F"/>
<stop offset="0.95" stop-color="#B48931"/>
<stop offset="1" stop-color="#B2862C"/>
</linearGradient>
<linearGradient id="paint25_linear_639_1348" x1="114.754" y1="346.824" x2="116.971" y2="351.01" gradientUnits="userSpaceOnUse">
<stop stop-color="#F5EAB0"/>
<stop offset="0.11" stop-color="#DAC37C"/>
<stop offset="0.29" stop-color="#AE8326"/>
<stop offset="0.39" stop-color="#C3A250"/>
<stop offset="0.51" stop-color="#DECA84"/>
<stop offset="0.61" stop-color="#EEE2A4"/>
<stop offset="0.67" stop-color="#F5ECB1"/>
<stop offset="0.68" stop-color="#EEE2A4"/>
<stop offset="0.76" stop-color="#D9C179"/>
<stop offset="0.82" stop-color="#C8A757"/>
<stop offset="0.89" stop-color="#BB953F"/>
<stop offset="0.95" stop-color="#B48931"/>
<stop offset="1" stop-color="#B2862C"/>
</linearGradient>
<linearGradient id="paint26_linear_639_1348" x1="90.9378" y1="339.356" x2="94.3292" y2="345.721" gradientUnits="userSpaceOnUse">
<stop stop-color="#F5EAB0"/>
<stop offset="0.11" stop-color="#DAC37C"/>
<stop offset="0.29" stop-color="#AE8326"/>
<stop offset="0.39" stop-color="#C3A250"/>
<stop offset="0.51" stop-color="#DECA84"/>
<stop offset="0.61" stop-color="#EEE2A4"/>
<stop offset="0.67" stop-color="#F5ECB1"/>
<stop offset="0.68" stop-color="#EEE2A4"/>
<stop offset="0.76" stop-color="#D9C179"/>
<stop offset="0.82" stop-color="#C8A757"/>
<stop offset="0.89" stop-color="#BB953F"/>
<stop offset="0.95" stop-color="#B48931"/>
<stop offset="1" stop-color="#B2862C"/>
</linearGradient>
<linearGradient id="paint27_linear_639_1348" x1="24.8194" y1="437.571" x2="25.2269" y2="438.339" gradientUnits="userSpaceOnUse">
<stop stop-color="#F5EAB0"/>
<stop offset="0.11" stop-color="#DAC37C"/>
<stop offset="0.29" stop-color="#AE8326"/>
<stop offset="0.39" stop-color="#C3A250"/>
<stop offset="0.51" stop-color="#DECA84"/>
<stop offset="0.61" stop-color="#EEE2A4"/>
<stop offset="0.67" stop-color="#F5ECB1"/>
<stop offset="0.68" stop-color="#EEE2A4"/>
<stop offset="0.76" stop-color="#D9C179"/>
<stop offset="0.82" stop-color="#C8A757"/>
<stop offset="0.89" stop-color="#BB953F"/>
<stop offset="0.95" stop-color="#B48931"/>
<stop offset="1" stop-color="#B2862C"/>
</linearGradient>
<linearGradient id="paint28_linear_639_1348" x1="111.564" y1="341.51" x2="112.834" y2="343.904" gradientUnits="userSpaceOnUse">
<stop stop-color="#F5EAB0"/>
<stop offset="0.11" stop-color="#DAC37C"/>
<stop offset="0.29" stop-color="#AE8326"/>
<stop offset="0.39" stop-color="#C3A250"/>
<stop offset="0.51" stop-color="#DECA84"/>
<stop offset="0.61" stop-color="#EEE2A4"/>
<stop offset="0.67" stop-color="#F5ECB1"/>
<stop offset="0.68" stop-color="#EEE2A4"/>
<stop offset="0.76" stop-color="#D9C179"/>
<stop offset="0.82" stop-color="#C8A757"/>
<stop offset="0.89" stop-color="#BB953F"/>
<stop offset="0.95" stop-color="#B48931"/>
<stop offset="1" stop-color="#B2862C"/>
</linearGradient>
<linearGradient id="paint29_linear_639_1348" x1="118.628" y1="334.771" x2="119.758" y2="336.899" gradientUnits="userSpaceOnUse">
<stop stop-color="#F5EAB0"/>
<stop offset="0.11" stop-color="#DAC37C"/>
<stop offset="0.29" stop-color="#AE8326"/>
<stop offset="0.39" stop-color="#C3A250"/>
<stop offset="0.51" stop-color="#DECA84"/>
<stop offset="0.61" stop-color="#EEE2A4"/>
<stop offset="0.67" stop-color="#F5ECB1"/>
<stop offset="0.68" stop-color="#EEE2A4"/>
<stop offset="0.76" stop-color="#D9C179"/>
<stop offset="0.82" stop-color="#C8A757"/>
<stop offset="0.89" stop-color="#BB953F"/>
<stop offset="0.95" stop-color="#B48931"/>
<stop offset="1" stop-color="#B2862C"/>
</linearGradient>
<linearGradient id="paint30_linear_639_1348" x1="107.096" y1="347.788" x2="107.477" y2="348.507" gradientUnits="userSpaceOnUse">
<stop stop-color="#F5EAB0"/>
<stop offset="0.11" stop-color="#DAC37C"/>
<stop offset="0.29" stop-color="#AE8326"/>
<stop offset="0.39" stop-color="#C3A250"/>
<stop offset="0.51" stop-color="#DECA84"/>
<stop offset="0.61" stop-color="#EEE2A4"/>
<stop offset="0.67" stop-color="#F5ECB1"/>
<stop offset="0.68" stop-color="#EEE2A4"/>
<stop offset="0.76" stop-color="#D9C179"/>
<stop offset="0.82" stop-color="#C8A757"/>
<stop offset="0.89" stop-color="#BB953F"/>
<stop offset="0.95" stop-color="#B48931"/>
<stop offset="1" stop-color="#B2862C"/>
</linearGradient>
<linearGradient id="paint31_linear_639_1348" x1="179.75" y1="377.966" x2="180.517" y2="379.416" gradientUnits="userSpaceOnUse">
<stop stop-color="#F5EAB0"/>
<stop offset="0.11" stop-color="#DAC37C"/>
<stop offset="0.29" stop-color="#AE8326"/>
<stop offset="0.39" stop-color="#C3A250"/>
<stop offset="0.51" stop-color="#DECA84"/>
<stop offset="0.61" stop-color="#EEE2A4"/>
<stop offset="0.67" stop-color="#F5ECB1"/>
<stop offset="0.68" stop-color="#EEE2A4"/>
<stop offset="0.76" stop-color="#D9C179"/>
<stop offset="0.82" stop-color="#C8A757"/>
<stop offset="0.89" stop-color="#BB953F"/>
<stop offset="0.95" stop-color="#B48931"/>
<stop offset="1" stop-color="#B2862C"/>
</linearGradient>
<linearGradient id="paint32_linear_639_1348" x1="27.635" y1="380.749" x2="50.3483" y2="423.649" gradientUnits="userSpaceOnUse">
<stop stop-color="#F5EAB0"/>
<stop offset="0.11" stop-color="#DAC37C"/>
<stop offset="0.29" stop-color="#AE8326"/>
<stop offset="0.39" stop-color="#C3A250"/>
<stop offset="0.51" stop-color="#DECA84"/>
<stop offset="0.61" stop-color="#EEE2A4"/>
<stop offset="0.67" stop-color="#F5ECB1"/>
<stop offset="0.68" stop-color="#EEE2A4"/>
<stop offset="0.76" stop-color="#D9C179"/>
<stop offset="0.82" stop-color="#C8A757"/>
<stop offset="0.89" stop-color="#BB953F"/>
<stop offset="0.95" stop-color="#B48931"/>
<stop offset="1" stop-color="#B2862C"/>
</linearGradient>
<linearGradient id="paint33_linear_639_1348" x1="125.295" y1="352.115" x2="125.452" y2="352.412" gradientUnits="userSpaceOnUse">
<stop stop-color="#F5EAB0"/>
<stop offset="0.11" stop-color="#DAC37C"/>
<stop offset="0.29" stop-color="#AE8326"/>
<stop offset="0.39" stop-color="#C3A250"/>
<stop offset="0.51" stop-color="#DECA84"/>
<stop offset="0.61" stop-color="#EEE2A4"/>
<stop offset="0.67" stop-color="#F5ECB1"/>
<stop offset="0.68" stop-color="#EEE2A4"/>
<stop offset="0.76" stop-color="#D9C179"/>
<stop offset="0.82" stop-color="#C8A757"/>
<stop offset="0.89" stop-color="#BB953F"/>
<stop offset="0.95" stop-color="#B48931"/>
<stop offset="1" stop-color="#B2862C"/>
</linearGradient>
<linearGradient id="paint34_linear_639_1348" x1="168.174" y1="393.938" x2="177.79" y2="412.103" gradientUnits="userSpaceOnUse">
<stop stop-color="#F5EAB0"/>
<stop offset="0.11" stop-color="#DAC37C"/>
<stop offset="0.29" stop-color="#AE8326"/>
<stop offset="0.39" stop-color="#C3A250"/>
<stop offset="0.51" stop-color="#DECA84"/>
<stop offset="0.61" stop-color="#EEE2A4"/>
<stop offset="0.67" stop-color="#F5ECB1"/>
<stop offset="0.68" stop-color="#EEE2A4"/>
<stop offset="0.76" stop-color="#D9C179"/>
<stop offset="0.82" stop-color="#C8A757"/>
<stop offset="0.89" stop-color="#BB953F"/>
<stop offset="0.95" stop-color="#B48931"/>
<stop offset="1" stop-color="#B2862C"/>
</linearGradient>
<linearGradient id="paint35_linear_639_1348" x1="165.975" y1="430.772" x2="168.128" y2="434.839" gradientUnits="userSpaceOnUse">
<stop stop-color="#F5EAB0"/>
<stop offset="0.11" stop-color="#DAC37C"/>
<stop offset="0.29" stop-color="#AE8326"/>
<stop offset="0.39" stop-color="#C3A250"/>
<stop offset="0.51" stop-color="#DECA84"/>
<stop offset="0.61" stop-color="#EEE2A4"/>
<stop offset="0.67" stop-color="#F5ECB1"/>
<stop offset="0.68" stop-color="#EEE2A4"/>
<stop offset="0.76" stop-color="#D9C179"/>
<stop offset="0.82" stop-color="#C8A757"/>
<stop offset="0.89" stop-color="#BB953F"/>
<stop offset="0.95" stop-color="#B48931"/>
<stop offset="1" stop-color="#B2862C"/>
</linearGradient>
<linearGradient id="paint36_linear_639_1348" x1="-63.9335" y1="391.068" x2="89.6462" y2="681.128" gradientUnits="userSpaceOnUse">
<stop stop-color="#F5EAB0"/>
<stop offset="0.11" stop-color="#DAC37C"/>
<stop offset="0.29" stop-color="#AE8326"/>
<stop offset="0.39" stop-color="#C3A250"/>
<stop offset="0.51" stop-color="#DECA84"/>
<stop offset="0.61" stop-color="#EEE2A4"/>
<stop offset="0.67" stop-color="#F5ECB1"/>
<stop offset="0.68" stop-color="#EEE2A4"/>
<stop offset="0.76" stop-color="#D9C179"/>
<stop offset="0.82" stop-color="#C8A757"/>
<stop offset="0.89" stop-color="#BB953F"/>
<stop offset="0.95" stop-color="#B48931"/>
<stop offset="1" stop-color="#B2862C"/>
</linearGradient>
<linearGradient id="paint37_linear_639_1348" x1="67.4577" y1="407.134" x2="69.6651" y2="411.302" gradientUnits="userSpaceOnUse">
<stop stop-color="#F5EAB0"/>
<stop offset="0.11" stop-color="#DAC37C"/>
<stop offset="0.29" stop-color="#AE8326"/>
<stop offset="0.39" stop-color="#C3A250"/>
<stop offset="0.51" stop-color="#DECA84"/>
<stop offset="0.61" stop-color="#EEE2A4"/>
<stop offset="0.67" stop-color="#F5ECB1"/>
<stop offset="0.68" stop-color="#EEE2A4"/>
<stop offset="0.76" stop-color="#D9C179"/>
<stop offset="0.82" stop-color="#C8A757"/>
<stop offset="0.89" stop-color="#BB953F"/>
<stop offset="0.95" stop-color="#B48931"/>
<stop offset="1" stop-color="#B2862C"/>
</linearGradient>
<linearGradient id="paint38_linear_639_1348" x1="60.408" y1="374.666" x2="60.6933" y2="375.204" gradientUnits="userSpaceOnUse">
<stop stop-color="#F5EAB0"/>
<stop offset="0.11" stop-color="#DAC37C"/>
<stop offset="0.29" stop-color="#AE8326"/>
<stop offset="0.39" stop-color="#C3A250"/>
<stop offset="0.51" stop-color="#DECA84"/>
<stop offset="0.61" stop-color="#EEE2A4"/>
<stop offset="0.67" stop-color="#F5ECB1"/>
<stop offset="0.68" stop-color="#EEE2A4"/>
<stop offset="0.76" stop-color="#D9C179"/>
<stop offset="0.82" stop-color="#C8A757"/>
<stop offset="0.89" stop-color="#BB953F"/>
<stop offset="0.95" stop-color="#B48931"/>
<stop offset="1" stop-color="#B2862C"/>
</linearGradient>
<linearGradient id="paint39_linear_639_1348" x1="56.8062" y1="384.546" x2="57.6445" y2="386.13" gradientUnits="userSpaceOnUse">
<stop stop-color="#F5EAB0"/>
<stop offset="0.11" stop-color="#DAC37C"/>
<stop offset="0.29" stop-color="#AE8326"/>
<stop offset="0.39" stop-color="#C3A250"/>
<stop offset="0.51" stop-color="#DECA84"/>
<stop offset="0.61" stop-color="#EEE2A4"/>
<stop offset="0.67" stop-color="#F5ECB1"/>
<stop offset="0.68" stop-color="#EEE2A4"/>
<stop offset="0.76" stop-color="#D9C179"/>
<stop offset="0.82" stop-color="#C8A757"/>
<stop offset="0.89" stop-color="#BB953F"/>
<stop offset="0.95" stop-color="#B48931"/>
<stop offset="1" stop-color="#B2862C"/>
</linearGradient>
<linearGradient id="paint40_linear_639_1348" x1="63.7208" y1="414.762" x2="68.661" y2="424.095" gradientUnits="userSpaceOnUse">
<stop stop-color="#F5EAB0"/>
<stop offset="0.11" stop-color="#DAC37C"/>
<stop offset="0.29" stop-color="#AE8326"/>
<stop offset="0.39" stop-color="#C3A250"/>
<stop offset="0.51" stop-color="#DECA84"/>
<stop offset="0.61" stop-color="#EEE2A4"/>
<stop offset="0.67" stop-color="#F5ECB1"/>
<stop offset="0.68" stop-color="#EEE2A4"/>
<stop offset="0.76" stop-color="#D9C179"/>
<stop offset="0.82" stop-color="#C8A757"/>
<stop offset="0.89" stop-color="#BB953F"/>
<stop offset="0.95" stop-color="#B48931"/>
<stop offset="1" stop-color="#B2862C"/>
</linearGradient>
<linearGradient id="paint41_linear_639_1348" x1="164.647" y1="377.04" x2="168.022" y2="383.416" gradientUnits="userSpaceOnUse">
<stop stop-color="#F5EAB0"/>
<stop offset="0.11" stop-color="#DAC37C"/>
<stop offset="0.29" stop-color="#AE8326"/>
<stop offset="0.39" stop-color="#C3A250"/>
<stop offset="0.51" stop-color="#DECA84"/>
<stop offset="0.61" stop-color="#EEE2A4"/>
<stop offset="0.67" stop-color="#F5ECB1"/>
<stop offset="0.68" stop-color="#EEE2A4"/>
<stop offset="0.76" stop-color="#D9C179"/>
<stop offset="0.82" stop-color="#C8A757"/>
<stop offset="0.89" stop-color="#BB953F"/>
<stop offset="0.95" stop-color="#B48931"/>
<stop offset="1" stop-color="#B2862C"/>
</linearGradient>
<clipPath id="clip0_639_1348">
<rect width="1920" height="1459" fill="white"/>
</clipPath>
</defs>
</svg>
