<svg width="1920" height="1459" viewBox="0 0 1920 1459" fill="none" xmlns="http://www.w3.org/2000/svg">
<g clip-path="url(#clip0_639_1317)">
<rect width="1920" height="1459" fill="#FFFCF9"/>
<ellipse cx="960" cy="606" rx="596" ry="457" fill="url(#paint0_radial_639_1317)"/>
<circle cx="1652.5" cy="1249.5" r="516.5" fill="url(#paint1_radial_639_1317)"/>
<g opacity="0.2">
<path d="M1675.83 914.173C1676.03 914.163 1676.03 913.829 1675.82 913.426C1675.24 912.276 1675.38 914.194 1675.83 914.173Z" fill="url(#paint2_linear_639_1317)"/>
<path d="M1672.89 900.983C1673.77 903.912 1672.83 902.948 1673.72 905.039C1675.69 909.627 1673.28 901.569 1673.23 898.846C1673.21 897.438 1672.06 898.247 1672.89 900.983Z" fill="url(#paint3_linear_639_1317)"/>
<path d="M1736.85 877.229C1736.83 876.276 1731.8 869.121 1728.85 865.84C1726.64 863.391 1728.27 866.401 1728.72 866.893C1730.06 868.37 1734.18 873.853 1734.41 874.474C1734.81 875.552 1736.86 877.861 1736.85 877.229Z" fill="url(#paint4_linear_639_1317)"/>
<path d="M1739.45 882.589C1745.99 894.516 1739.75 880.532 1738.08 879.076C1736.65 877.256 1736.96 878.049 1739.45 882.589Z" fill="url(#paint5_linear_639_1317)"/>
<path d="M1734.94 855.046C1731.98 854.285 1731.57 855.227 1733.7 855.73C1734.21 855.85 1752.18 861.652 1764.63 869.773C1764.65 869.786 1798.59 890.849 1800.54 896.492C1801.16 898.287 1802.67 898.461 1801.21 895.889C1797.83 889.938 1770.32 871.945 1764.13 868.4C1754.76 863.033 1758.11 864.034 1739.26 856.481C1738.01 855.984 1736.07 855.339 1734.93 855.044L1734.94 855.046Z" fill="url(#paint6_linear_639_1317)"/>
<path d="M1850 991.42C1850.22 991.409 1850.5 991.149 1850.63 990.843C1850.98 990.045 1849.5 991.447 1850 991.42Z" fill="url(#paint7_linear_639_1317)"/>
<path d="M1741.31 871.795C1743.43 874.423 1743.54 874.598 1747.36 878.73C1745.63 875.716 1745.61 875.435 1741.31 871.795Z" fill="url(#paint8_linear_639_1317)"/>
<path d="M1733.34 863.957C1730.45 862.251 1733.05 864.598 1735.81 867.254C1744.62 875.718 1735.51 865.237 1733.34 863.957Z" fill="url(#paint9_linear_639_1317)"/>
<path d="M1750.55 881.46C1750.12 881.091 1749.87 882.057 1750.32 882.444C1750.5 882.601 1750.99 881.847 1750.55 881.46Z" fill="url(#paint10_linear_639_1317)"/>
<path d="M1661.77 917.858C1661.56 918.069 1661.73 920.342 1661.93 920.139C1662.02 920.054 1661.97 917.655 1661.77 917.858Z" fill="url(#paint11_linear_639_1317)"/>
<path d="M1826.91 921.367C1824.53 919.095 1819.92 915.051 1813.15 903.934C1810.93 900.289 1814.86 911.686 1826.35 922.943C1840.27 936.571 1842.71 947.483 1844.14 951.576C1847.74 961.931 1848.54 971.236 1849.38 973.205C1852.08 979.529 1848.46 994.571 1850.98 988.39C1852.51 984.658 1850.45 971.741 1849.57 967.653C1845.58 949.317 1845.23 952.151 1844.61 949.569C1844.23 947.972 1843.86 948.257 1841.94 942.408C1841.18 940.079 1832.36 926.577 1826.91 921.369L1826.91 921.367Z" fill="url(#paint12_linear_639_1317)"/>
<path d="M1728.58 886.858C1727.77 886.08 1727.79 886.943 1728.59 887.226C1728.96 887.354 1728.96 887.21 1728.58 886.858Z" fill="url(#paint13_linear_639_1317)"/>
<path d="M1673.23 958.939C1668.1 944.485 1666.3 939.256 1664.86 932.303C1664.39 930.064 1662.92 929.932 1666.76 943.126C1669.25 951.687 1679.54 976.692 1673.23 958.936L1673.23 958.939Z" fill="url(#paint14_linear_639_1317)"/>
<path d="M1676.08 980.71C1675.05 979.884 1678.01 985.27 1679.08 988.306C1679.86 990.54 1679.43 983.397 1676.08 980.71Z" fill="url(#paint15_linear_639_1317)"/>
<path d="M1984.13 1398.19C1983.48 1396.57 1982.82 1396.14 1983.4 1394.86C1985.13 1391.05 1985.19 1358.45 1983.49 1347.54C1968.1 1248.8 1933.05 1178.6 1932.83 1177.8C1929.91 1167.46 1892.38 1098.23 1863.57 1068.05C1862.72 1067.17 1851.35 1052.63 1847.13 1048.25C1846.5 1047.59 1824.11 1028.69 1821.02 1026.76C1802.66 1044.92 1796.44 1048.11 1771.95 1049.96C1763.71 1050.59 1753.86 1053.89 1731.96 1046.59C1730.39 1046.07 1715.75 1044.11 1704.06 1037.23C1696.45 1032.75 1687.52 1024.19 1681.14 1012.15C1680.37 1010.7 1668.2 1001.39 1665.86 997.88C1665.28 997.002 1657.66 988.954 1651.36 974.768C1650.68 973.239 1647.82 967.546 1649.12 958.276C1649.62 954.773 1649.3 953.608 1650.02 949.249C1651.27 941.571 1650.28 929.354 1651.83 924.844C1652.68 922.387 1652.77 922.27 1653.9 922.165C1655.08 922.055 1656.51 923.255 1657.84 925.466C1658.2 926.072 1658.58 926.105 1659.62 925.615C1660.76 925.081 1660.94 924.834 1660.87 923.887C1660.75 922.219 1661.56 920.746 1661.88 916.223C1663.01 900.118 1664.92 899.267 1665.94 891.538C1666.28 889.016 1667.27 886.895 1668.9 885.176C1672.79 881.108 1674.36 881.394 1680.24 881.419C1680.05 872.865 1679 870.344 1685.37 867.044C1689.91 864.696 1698.24 864.045 1698.67 863.617C1698.77 863.52 1699.95 863.2 1701.28 862.906C1704.11 862.286 1704.25 861.974 1703.19 858.547C1700.2 848.828 1702.76 847.674 1712.34 844.688C1725.7 840.529 1737.13 842.475 1738.38 842.488C1741.35 842.521 1745.02 844.049 1751.54 845.383C1756 846.295 1756.75 847.455 1755.71 844.504C1755.18 842.982 1755.45 841.455 1756.43 840.475C1757.79 839.129 1770.48 840.556 1776.38 842.72C1784.35 845.644 1790.91 845.587 1812.07 856.604C1827.93 864.862 1844.43 881.562 1844.44 881.587C1846.94 885.699 1854.37 889.419 1861.39 913.097C1865.67 927.534 1861.84 938.912 1864.51 944.079C1866.18 947.301 1865.44 947.191 1866.58 950.9C1870.49 963.528 1866.3 971.078 1866.14 973.725C1865.67 981.472 1852.73 999.271 1847.6 1002.07C1843.77 1004.16 1839.76 1006.62 1837.9 1008.03C1831.59 1012.79 1833.58 1005.05 1867.37 1040.83C1954.97 1133.55 2007.27 1304.57 2004.19 1361.54C2003.77 1369.28 2003.75 1366.16 1997.4 1379.06C1996.05 1381.8 1994.23 1385.03 1993.36 1386.22C1990.8 1389.73 1992.88 1390.05 1987.62 1396.96C1987.1 1397.65 1986.52 1398.55 1986.34 1398.96C1985.91 1399.93 1984.64 1399.5 1984.12 1398.2L1984.13 1398.19ZM1841.31 999.182C1845.32 979.095 1843.93 972.051 1841.16 958.213C1839.4 949.484 1829.78 935.846 1829.69 935.651C1828.72 933.555 1823.95 928.147 1821.12 922.573C1819.2 918.779 1814.44 911.001 1814.36 910.231C1814.26 909.294 1813.36 909.615 1812.58 906.675C1811.99 904.423 1811.42 904.071 1811.53 906.031C1811.65 908.257 1811.02 906.915 1810.82 904.522C1810.7 903.186 1810.81 902.582 1811.07 903.044C1811.53 903.848 1811.45 889.884 1809.78 900.849C1809.09 905.393 1810.42 905.675 1809.61 905.534C1808.43 905.327 1809.05 910.718 1803.68 925.766C1792.83 956.139 1793.35 949.665 1795.1 973.741L1800.05 976.406C1812.19 982.936 1819.82 996.655 1820.42 998.209C1824.16 1007.92 1830.83 1007.84 1827.49 1007.67C1825.19 1007.55 1822.97 1003.72 1823.36 1007.23C1823.6 1009.46 1823.78 1008.73 1826.86 1009.49C1829.82 1010.23 1835.49 1007.48 1833.28 1006.38C1829.59 1004.55 1819.68 981.1 1818.46 978.976C1817.88 977.968 1806.94 956.34 1806.58 945.202C1806.56 944.641 1805.29 934.371 1806.74 928.68C1807.93 924.035 1808.57 924.553 1808.14 923.714C1807.61 922.655 1809.79 922.12 1808.97 921.395C1808.32 920.83 1808.57 919.148 1809.33 918.945C1809.69 918.85 1809.7 918.746 1809.35 918.684C1808.65 918.562 1809.05 916.638 1809.87 916.972C1810.81 917.348 1810.27 914.511 1810.88 915.045C1811.29 915.403 1810.48 919.377 1809.18 923.366C1806.94 930.253 1806.79 931.521 1807.34 939.174C1808.34 953.009 1811.5 961.001 1815.7 969.551C1817.65 973.519 1816.09 971.538 1818.99 976.833C1820.79 980.108 1832.26 1007.79 1834.87 1004.36C1836.26 1002.54 1835.27 983.603 1834.28 980.611C1829.41 965.879 1832.36 973.828 1828.48 964.282C1826.68 959.843 1821.03 947.487 1820.85 947.165C1818.11 942.332 1807.36 909.809 1821.71 946.088C1830.12 967.332 1840.51 979.869 1835.66 1005.9C1839.62 1004.18 1840.31 1004.17 1841.3 999.188L1841.31 999.182ZM1818.05 1004.72C1819.64 1006.58 1819.74 1006.64 1819.82 1005.74C1820.23 1000.73 1811.4 990.041 1809.44 987.548C1803.37 979.848 1787.04 971.125 1771.41 971.937C1754.9 972.794 1751.74 969.463 1733.17 972.929C1725 974.451 1709.25 973.411 1706.45 973.449C1699.2 973.547 1698.83 972.856 1689.27 973.283C1682.16 973.599 1683.13 972.697 1683.14 973.211C1683.14 973.327 1689.71 980.727 1713.58 978.179C1718.84 977.617 1745.15 979.201 1747.9 979.145C1751.68 979.071 1755.47 979.334 1758.2 979.864C1759.64 980.143 1760.91 980.293 1761.02 980.194C1762.25 979.029 1802.79 986.827 1818.06 1004.73L1818.05 1004.72ZM1697.74 911.884C1698.6 912.638 1698.85 913.787 1699.28 913.357C1699.71 912.931 1697.96 911.05 1697.29 909.921C1696.65 908.848 1697.05 911.281 1697.74 911.884ZM1714.47 927.086C1702.35 908.066 1696.08 904.24 1696.49 907.075C1696.55 907.444 1697.39 908.607 1698.37 909.662C1702.46 914.075 1700.81 917.615 1712.36 941.985C1719.59 957.267 1726.75 961.436 1737.72 969.161C1741.71 968.977 1752.67 968.333 1756.6 968.902C1760.89 969.522 1761.29 969.227 1758.54 967.492C1757.34 966.735 1755.64 965.767 1754.77 965.336C1749.59 962.796 1739.25 955.354 1730.91 948.165C1725.11 943.168 1722.97 940.425 1714.47 927.086ZM1724.3 960.894C1702.05 941.353 1699.38 898.962 1701.22 928.654C1702.65 951.546 1705.16 952.78 1712.41 967.509C1713.62 969.966 1715.26 971.127 1717.59 971.177C1724.79 971.331 1734.31 970.565 1735.11 969.768C1735.48 969.396 1731.57 967.285 1724.29 960.89L1724.3 960.894ZM1706.51 959.381C1705.71 956.801 1703.48 953.224 1702.7 950.163C1698.36 933.083 1700.24 916.445 1697.01 913.622C1696.21 912.927 1695.96 913.933 1696.02 917.514C1696.05 919.009 1695.64 921.472 1695.11 922.985C1693.94 926.349 1692.49 937.554 1692.46 937.74C1689.85 952.68 1695.2 969.668 1697.34 970.745C1698.62 971.392 1709.25 970.513 1710.97 970.917C1715.79 972.051 1706.93 960.756 1706.5 959.376L1706.51 959.381ZM1680.58 897.509C1677.69 896.098 1676.62 896.44 1675.86 899.009C1669.23 921.609 1677.57 948.299 1683.16 958.886C1688.46 968.934 1690.08 968.364 1689.9 969.753C1689.65 971.579 1696.92 971.469 1690.92 966.607C1685.54 962.243 1679.8 942.666 1679.65 940.94C1679.45 938.534 1678.7 935.047 1677.1 928.993C1675.06 921.231 1674.36 902.047 1676.74 918.002C1678.45 929.52 1681.21 936.646 1681.06 939.789C1680.92 942.831 1688.75 964.94 1690.87 964.84C1691.74 964.8 1689.53 961.031 1689.37 947.844C1689.11 927.154 1693.21 928.325 1690.59 923.739C1688.6 920.276 1682.13 904.317 1682.7 904.291C1683.09 904.273 1685.71 909.134 1686.61 911.56C1686.97 912.54 1688.08 915.029 1689.06 917.087C1691.92 923.047 1693.12 927.304 1693.55 913.407C1693.65 910.211 1693.57 909.953 1691.83 907.885C1688.79 904.276 1682.44 898.418 1680.58 897.514L1680.58 897.509ZM1846.6 1029.43C1846.79 1029.24 1828.84 1009.66 1826.44 1012.06C1826.34 1012.15 1827.97 1013.19 1827.99 1013.21C1831.21 1015.25 1846.43 1029.6 1846.6 1029.44L1846.6 1029.43ZM1707.88 901.227C1739.57 910.094 1789.68 951.841 1791.61 952.851L1792.06 950.434C1793.43 942.942 1795.18 941.516 1794.08 941.132C1790.93 940.027 1761.23 907.111 1720.69 902.305C1705.35 900.487 1726.62 898.448 1752.21 910.381C1780.52 923.586 1789.49 937.448 1794.28 939.881C1795.47 940.485 1795.39 939.676 1799.99 927.368C1801.33 923.796 1803.01 924.692 1787.67 914.941C1768.42 902.702 1747.15 898.209 1732.42 899.085C1725.85 899.474 1719.01 898.466 1715 898.801C1711.66 899.082 1705.81 900.115 1705.82 900.424C1705.82 900.546 1706.75 900.909 1707.89 901.227L1707.88 901.227ZM1730.32 868.094C1729.59 869.701 1738.25 887.747 1739.79 891.569C1746.4 890.901 1747.68 890.075 1747.68 890.463C1747.69 890.918 1759.15 890.006 1759.26 889.542C1759.31 889.32 1758.5 887.926 1757.47 886.447C1754.87 882.752 1756.45 883.508 1756.6 884.032C1756.72 884.469 1760.17 889.155 1760.74 889.658C1761.12 889.989 1767.07 889.93 1769.38 890.714C1770.19 890.987 1770.95 891.106 1771.07 890.979C1771.18 890.876 1747.17 865.85 1734.36 858.914C1732.22 857.754 1729.53 855.423 1730.14 855.262C1730.59 855.14 1730.99 852.926 1729.4 854.506C1728.84 855.058 1728.18 856.178 1727.91 856.995C1726.94 860.011 1728.29 866.53 1730.02 867.166C1730.35 867.289 1730.49 867.71 1730.31 868.097L1730.32 868.094ZM1725.89 854.258C1726.43 852.816 1725.65 851.849 1723.35 851.106C1723.32 851.096 1710.49 847.914 1715.76 850.324C1726.33 855.163 1725.03 856.525 1725.89 854.258ZM1747.83 855.012C1747.08 855.007 1745.59 854.838 1744.52 854.635C1739.43 853.679 1728.96 854.346 1732.7 855.677C1732.72 855.687 1746.48 860.015 1746.52 860.022C1747.82 860.314 1753.47 863.1 1754.3 863.175C1757.8 863.49 1804.36 895.594 1802.1 897.849C1800.69 899.253 1793.35 889.439 1768.32 873.158C1750.52 861.58 1736.52 857.926 1735.54 857.875C1734.11 857.802 1734.8 857.722 1737.36 859.482C1758.34 873.92 1770.49 891.361 1777.01 892.096C1806.8 895.461 1805.25 910.061 1806.83 900.179C1807.2 897.855 1808.27 891.092 1810.55 891.929C1810.94 892.072 1811.31 891.947 1811.38 891.654C1811.58 890.767 1806.72 888.054 1805.9 886.463C1805.33 885.368 1785.14 872.127 1782.12 870.537C1777.76 868.237 1752.9 855.05 1747.83 855.018L1747.83 855.012ZM1746.82 852.046C1750.55 852.524 1754.38 853.944 1754.36 852.854C1754.35 852.064 1744.63 851.764 1746.82 852.046ZM1830.61 908.895C1830.75 909.179 1831.12 909.502 1831.44 909.611C1832.2 909.877 1830.28 908.202 1830.61 908.895ZM1828.13 907.335C1828.5 907.462 1828.5 907.32 1828.13 906.971C1827.32 906.199 1827.34 907.055 1828.13 907.335ZM1740.13 894.392C1737.58 895.257 1713.52 896.561 1723.68 897.79C1727.05 898.198 1736.84 897.298 1739.96 897.707C1743.44 898.161 1765.15 901.247 1767.69 903.45C1768.45 904.12 1772.82 904.965 1773.68 905.714C1773.7 905.731 1792.39 914.771 1794.96 918.029C1795.5 918.718 1800.85 922.015 1801.38 921.993C1802.28 921.95 1805.72 909.327 1805.3 907.64C1804.91 906.116 1798.21 901.135 1793.98 899.225C1790.56 897.685 1777.27 894.635 1776.66 895.248C1776.25 895.653 1770.05 893.198 1763.12 892.77C1757.8 892.439 1741.33 893.986 1740.14 894.391L1740.13 894.392ZM1851.84 929.356C1848.43 924.746 1836.84 911.448 1835.23 913.046C1834.64 913.642 1834.74 913.886 1836.05 915.037C1838.78 917.42 1844.99 925.505 1847.65 930.143C1847.67 930.173 1856.66 943.138 1856.59 949.906C1856.57 951.786 1858.15 954.652 1857.79 955.033C1857.14 955.721 1855.93 948.308 1855.74 948.491C1855.06 949.17 1855.37 943.933 1847.61 932.247C1842.94 925.202 1837.75 916.959 1828.15 908.588C1825.88 906.608 1824.33 905.026 1824.59 904.957C1825.03 904.838 1823.97 903.567 1822.76 902.749C1822.22 902.381 1813.34 894.327 1812.35 895.315C1812.27 895.389 1812.27 896.433 1812.33 897.631C1813.21 913.037 1829.62 931.577 1830.75 934.838C1831.4 936.728 1838.83 943.044 1842.98 961.208C1848.36 984.817 1842.25 997.937 1842.15 1002.48C1849.32 998.325 1859.25 987.391 1863.48 972.872C1867.87 957.779 1861.47 943.781 1861.32 943.65C1860.21 942.679 1854.57 933.051 1851.84 929.354L1851.84 929.356ZM1858.96 927.07C1855.49 916.001 1840.41 888.552 1822.45 872.813C1811.15 862.915 1808.44 863.609 1802.53 860.513C1799.01 858.667 1783.04 852.329 1788.48 855.384C1799.32 861.48 1813.43 878.865 1815.55 881.07C1824.47 890.352 1828.51 898.166 1830.9 903.813C1832.43 907.42 1840.68 911.143 1853.64 926.825C1855.31 928.84 1860.06 936.824 1860.7 936.181C1861.25 935.64 1860.85 930.161 1860.23 929.613C1859.86 929.289 1859.29 928.143 1858.95 927.068L1858.96 927.07ZM1814.59 891.602C1814.78 892.883 1826.78 902.523 1828.01 902.787C1830.99 903.435 1819.55 887.105 1813.11 880.434C1812.36 879.659 1810.28 877.186 1808.48 874.934C1797.71 861.435 1761.23 837.153 1785.62 857.621C1806.13 874.841 1814.5 890.981 1814.59 891.602ZM1767.4 844.675C1769.14 845.956 1776.99 848.623 1779.23 849.399C1787.99 852.436 1807.59 861.619 1809.56 862.169C1816.12 864.009 1835.47 883.597 1836.49 885.087C1837.25 886.205 1841.63 891.414 1847.74 901.514C1861.47 924.231 1860.31 931.547 1860.91 925.465C1861.21 922.442 1860.78 924.504 1860.06 919.145C1856.79 894.968 1834.72 872.069 1812.4 859.964C1807.29 857.194 1806.41 857.041 1805.56 856.297C1800.21 851.623 1764.27 842.687 1767.4 844.677L1767.4 844.675ZM1761.73 851.326C1764.09 851.928 1767.8 852.898 1770.84 853.479C1776.05 854.472 1779.11 856.524 1777.44 854.858C1773.81 851.222 1771.26 850.517 1769.23 849.209C1757.01 841.32 1758.39 843.496 1760.35 848.092L1761.73 851.324L1761.73 851.326ZM1762.81 854.388L1761.2 854.457C1763.42 855.276 1776.6 859.512 1782.51 862.712C1792.51 868.131 1804.64 881.24 1791.63 870.503C1773.06 855.167 1747.38 853.128 1758.02 855.888C1763.19 857.23 1783.38 868.509 1783.41 868.524C1787.95 870.796 1807.08 885.159 1806.08 883.037C1805.41 881.617 1802.37 877.74 1801.86 877.648C1801.31 877.554 1799.97 875.469 1797.09 872.442C1797.07 872.423 1787.76 861.659 1783.65 860.34C1782.74 860.047 1767.3 854.194 1762.81 854.386L1762.81 854.388ZM1736.81 845.723C1738.03 846.128 1739.96 846.952 1741.1 847.558C1744 849.09 1766.88 851.738 1753.58 848.227C1737.76 844.05 1730.53 843.635 1736.81 845.721L1736.81 845.723ZM1722.96 846.067C1727.47 847.394 1728.7 845.646 1731.63 846.612C1740.46 849.522 1742.09 848.581 1740.37 847.777C1732.71 844.195 1713.88 843.392 1722.96 846.067ZM1713.29 847.984C1716.7 848.359 1722.52 849.683 1727.28 852.39C1728.04 851.997 1733.13 849.485 1732.81 849.203C1732.01 848.508 1730.06 848.216 1727.47 848.405C1721.53 848.836 1722.95 847.283 1715.56 847.433C1712.23 847.502 1711.19 847.756 1713.29 847.986L1713.29 847.984ZM1709.43 853.168C1720.3 856.153 1722.53 864.758 1724.84 864.851C1725.69 864.884 1726.07 864.982 1724.75 861.861C1723.52 858.936 1725.97 858.088 1723 855.489C1718.76 851.79 1708.91 849.744 1708.4 850.244C1707.54 851.1 1704.08 848.91 1705.76 851.388C1706.22 852.058 1707.3 852.581 1709.43 853.165L1709.43 853.168ZM1710.64 862.523C1710.66 862.54 1721.78 864.558 1722.16 864.174C1722.38 863.955 1719.74 860.989 1717.38 858.807C1714.61 856.25 1710.59 854.697 1706.89 853.492C1707.03 853.841 1710.57 862.462 1710.64 862.523ZM1707.51 862.186C1707.67 862.018 1707.67 861.468 1707.5 860.968C1706.63 858.462 1706.2 863.484 1707.51 862.186ZM1687.55 870.237C1688.23 870.489 1690.52 871.143 1692.64 871.687C1707.78 875.573 1721.36 887.109 1723.55 890.708C1725.9 894.566 1727.05 893.101 1732.4 892.446C1737.13 891.867 1737.19 891.844 1735.36 888.396C1731.32 880.783 1731.29 874.927 1713.78 870.523C1700.56 867.197 1719.64 869.744 1729.77 876.549C1726.22 866.009 1727.43 867.036 1714.64 865.061C1707.16 863.905 1702.89 864.239 1694.25 867.33C1698.83 869.428 1702.06 868.299 1712.03 872.418C1723.12 877.002 1725.36 881.533 1730 884.609C1730.57 884.987 1731.28 886.582 1727.92 883.912C1718.94 876.755 1712.37 872.088 1700.68 869.909C1694.23 868.707 1692.48 867.171 1689.41 868.101C1687.38 868.713 1685.62 869.514 1687.56 870.238L1687.55 870.237ZM1687.97 872.28C1696.06 877.111 1698.13 876.359 1717.11 894.953C1720.7 894.11 1721 894.025 1724.88 893.479C1721.18 889.066 1710.64 880.796 1708.84 879.652C1702.05 875.35 1690.06 871.896 1689.02 871.536C1687.22 870.905 1686.51 871.407 1687.97 872.279L1687.97 872.28ZM1682.94 882.654L1685.11 883.818C1685.14 883.831 1697.16 889.161 1700.24 891.212C1705.14 894.463 1708.08 894.169 1707.83 896.075C1707.55 898.099 1715 895.705 1714.99 895.11C1714.96 893.682 1701.79 880.97 1690.16 874.678C1686.86 872.892 1693.08 880.673 1693.8 881.36C1699.3 886.674 1696 885.456 1691 879.234C1689.97 877.954 1685.61 873.08 1686.04 871.193C1686.24 870.278 1684.74 870.121 1683.89 870.968C1683.29 871.563 1683.05 873.27 1683.01 877.22L1682.95 882.655L1682.94 882.654ZM1683.84 886.477C1684.21 886.604 1684.21 886.464 1683.84 886.113C1683.03 885.341 1683.05 886.197 1683.84 886.477ZM1696.21 896.806C1696.72 896.636 1698.06 896.743 1699.19 897.041C1702.4 897.889 1708.28 897.497 1705.78 896.601C1705.75 896.589 1687.06 886.802 1686.49 887.419C1686.47 887.44 1687.65 888.56 1689.11 889.908C1694.57 894.953 1694.5 897.371 1696.21 896.803L1696.21 896.806ZM1698.53 899.987C1698.38 900.137 1698.47 900.753 1698.73 901.361C1699.72 903.698 1700.43 901.268 1710.2 907.874C1721.65 915.625 1745.69 940.147 1757.36 950.552C1787.46 977.385 1744.75 941.774 1740.94 936.96C1740.92 936.938 1717.81 913.848 1705.99 906.681C1698.9 902.379 1694.76 902.874 1697.07 903.881C1704.54 907.123 1714.67 924.777 1725.27 940.429C1728.25 944.828 1743.46 957.045 1751.68 961.64C1765.38 969.292 1763.49 969.423 1771.34 969.016C1779.2 968.604 1782.94 969.45 1787.99 971.412C1792.57 973.19 1792.45 973.234 1792.3 969.786C1792.23 968.116 1791.98 965.914 1791.75 964.895C1791.25 962.682 1790.88 956.253 1791.21 955.594C1792.29 953.456 1752.2 924.127 1733.15 914.021C1721.37 907.77 1699.87 898.664 1698.53 899.992L1698.53 899.987ZM1696.38 901.452C1696.55 902.076 1697.91 902.502 1698.04 901.973C1698.25 901.031 1695.96 899.895 1696.38 901.452ZM1673.83 892.179C1674.26 898.089 1675.36 894.245 1678.15 893.875C1679.41 893.708 1683.5 895.69 1684.57 896.984C1686.97 899.927 1687.84 897.368 1680.03 890.007C1672.62 883.019 1679.64 886.987 1683.69 892.174C1690.6 901.038 1685.19 896.38 1693.09 905.026C1693.29 903.624 1693.75 900.014 1694.34 898.7C1695.98 895.087 1671.77 877.5 1673.32 887.4C1673.48 888.457 1673.71 890.607 1673.83 892.179ZM1671.16 905.555C1671.5 900.924 1673.51 901.256 1672.77 896.555C1670.75 883.606 1671.72 886.769 1669.97 888.514C1668.4 890.078 1670.44 915.235 1671.16 905.555ZM1664.28 941.146C1665.26 945.107 1671.87 968.612 1676.26 968.555C1678.13 968.53 1678.05 969.375 1679.01 968.928C1679.99 968.473 1679.77 970.459 1686.72 970.327C1674.82 953.905 1669.19 925.338 1668.76 921.328C1667.51 909.845 1667.43 904.415 1666.69 903.775C1666.19 903.342 1665.98 904.478 1665.98 907.523C1665.98 911.618 1665.66 911.497 1665.88 911.621C1666.05 911.721 1666.07 916.585 1665.44 915.363C1664.79 914.094 1664.81 916.432 1665.3 916.515C1665.87 916.614 1665.53 917.979 1665.31 917.189C1664.69 914.913 1663.77 923.821 1663.83 923.966C1664.26 924.964 1663.72 931.524 1663.18 931.772C1662.43 932.124 1662.76 934.978 1664.28 941.144L1664.28 941.146ZM1669.64 964.666C1667.91 960.627 1667.12 960.44 1664.06 950.812C1662.75 946.685 1662.12 945.453 1662.63 951.642C1664.38 973.165 1663.04 970.917 1671.01 984.259C1674.28 989.731 1675.51 989.215 1675.07 989.657C1674.9 989.82 1676.4 992.495 1675.88 988.783C1675.33 984.873 1673.87 984.48 1673.63 976.266C1673.46 970.429 1670.05 965.618 1669.64 964.67L1669.64 964.666ZM1677.44 974.395C1677.03 974.805 1677.57 975.299 1678.27 975.114C1678.96 974.929 1677.62 974.223 1677.44 974.395ZM1658.05 941.86C1658.27 941.85 1658.27 941.37 1658.06 940.793C1657.4 938.994 1657.6 941.881 1658.05 941.86ZM1662.58 987.972C1663.18 987.367 1661.45 988.151 1656.11 965.385C1655.54 962.951 1656.8 946.761 1657.15 946.211C1657.28 946.008 1655.86 934.753 1655.13 934.05C1654.54 933.476 1655.48 933.215 1656.42 936.074C1658.34 941.981 1657.26 934.947 1656.51 932.472C1655.63 929.64 1656.98 928.574 1654.9 926.755C1653.73 925.735 1653.8 928.659 1654.08 929.903C1654.51 931.85 1652.15 957.907 1652.14 963.179C1652.13 967.661 1652.36 968.957 1653.69 972.175C1655.9 977.542 1662.06 988.48 1662.58 987.972ZM1674.04 1001.57C1680.03 1006.65 1679.19 1006.4 1678.11 1003.02C1676.4 997.693 1678.01 998.112 1674.78 994.282C1654.83 970.572 1662.76 961.074 1659.12 947.824C1657.71 942.677 1658.56 938.063 1657.97 952.327C1657.51 963.468 1656.68 962.025 1659.16 971.12C1663.68 987.676 1664.22 988.816 1670.15 994.253C1672.26 996.197 1674.49 997.991 1675.08 998.243C1677.78 999.376 1672.49 998.433 1667.85 994.576C1666.62 993.561 1670.8 998.826 1674.05 1001.58L1674.04 1001.57ZM1764.99 1047.56C1764.53 1047.28 1749.57 1041.28 1748.52 1041.02C1744.49 1039.99 1733.58 1032.65 1721.92 1029.09C1719.72 1028.41 1716.14 1026.13 1712.94 1024.7C1694.23 1016.31 1673.34 959.596 1676.74 980.808C1677.47 985.37 1678.49 986.361 1679.12 991.552C1679.57 995.355 1680.58 1003.32 1682.65 1008.81C1687.32 1021.19 1705.41 1038.17 1718.4 1040.52L1720.04 1040.82C1710.31 1034.18 1712.54 1039.35 1698.23 1022.28C1694.01 1017.25 1688.9 1006.97 1687.51 1004.59C1682.24 995.588 1681.22 986.267 1685.47 997.713C1686.98 1001.77 1694.91 1016.12 1699.93 1022.3C1700.08 1022.49 1707.25 1032.11 1714.78 1035.89C1722.39 1039.71 1718.95 1040.57 1735.35 1045.05C1747.97 1048.49 1750.64 1048.89 1759.24 1048.59C1765.78 1048.36 1766.18 1048.29 1764.99 1047.56L1764.99 1047.56ZM1809.6 1033.57C1809.06 1033.69 1806.83 1034.2 1804.63 1034.69C1784.19 1039.31 1775.44 1036.68 1766.38 1034.41C1758.47 1032.43 1754.6 1030.98 1750.23 1028.39C1747.1 1026.53 1747.6 1027.26 1740.68 1023.78C1730.32 1018.55 1729 1021.06 1711.85 1012.89C1699.39 1006.96 1692.01 992.932 1689.52 988.77C1685.29 981.71 1677.32 972.802 1682.09 979.897C1683.31 981.717 1685.3 985.264 1686.5 987.781C1694.5 1004.51 1704.57 1021.8 1724.03 1028.38C1727.36 1029.51 1731.45 1030.78 1734.59 1032.69C1743.43 1038.09 1752.3 1040.74 1764.71 1045.89C1772.03 1048.93 1776.94 1046.52 1783.55 1046.15C1796.63 1045.42 1812.05 1033.03 1809.6 1033.57L1809.6 1033.57ZM1810.93 1030.38C1810.65 1030.14 1806.9 1028.96 1802.08 1027.61C1790.41 1024.32 1785.34 1019.2 1770.82 1017.35C1735.98 1012.92 1744.63 1014.26 1730.49 1006.76C1724.25 1003.45 1718.06 996.535 1709.81 994.043C1703.65 992.179 1694.15 986.217 1693.31 985.613C1682.4 977.749 1687.55 981.973 1689.81 986.344C1706.62 1018.88 1726.52 1014.77 1740.59 1022.12C1755.18 1029.73 1771.24 1037.17 1788.12 1035.31C1790.88 1035.01 1794.99 1034.56 1797.26 1034.32C1803.02 1033.71 1811.82 1031.17 1810.92 1030.39L1810.93 1030.38ZM1819.67 1021.99C1820.64 1021.28 1821.51 1016.21 1820.91 1012.46C1818.5 997.224 1780.87 983.355 1764.26 981.575C1759.59 981.074 1755.35 980.29 1746.28 980.15C1746.17 980.147 1724.98 978.871 1705.46 980.263C1684.53 981.753 1678.69 969.006 1677.88 972.497C1677.82 972.753 1678.24 973.224 1678.82 973.546C1684.07 976.462 1686.72 980.17 1694.86 983.022C1713.02 989.39 1727.16 986.798 1739.1 990.97C1741.78 991.908 1743.53 991.919 1757.79 996.77C1769.06 1000.61 1775.79 999.536 1781.1 1000.92C1802.38 1006.47 1819.08 1020.65 1818.06 1022.65C1817.22 1024.31 1810.3 1012.56 1788.49 1004.41C1777.13 1000.17 1776.71 1002 1764.39 999.558C1760.04 998.695 1745.6 993.858 1739.79 992.387C1721.74 987.819 1709.04 989.176 1702.8 986.896C1695.06 984.066 1691.32 983.743 1696.62 986.122C1703.31 989.127 1701.81 990.143 1710.92 992.939C1715.15 994.238 1721.05 998.348 1724.48 1000.96C1735.83 1009.61 1741.1 1010.99 1742.19 1011.94C1743.13 1012.76 1772.42 1016.21 1772.82 1016.26C1782.29 1017.34 1790.71 1022.33 1794.86 1023.71C1811.89 1029.39 1811.58 1029.18 1811.87 1029.43C1812.28 1029.78 1815.57 1027.78 1817.13 1026.23C1818.48 1024.89 1818.67 1022.71 1819.66 1021.99L1819.67 1021.99ZM1990.03 1386.37C1991.48 1383.41 2000.1 1366.31 2000.41 1364.75C2008.19 1324.24 1951.51 1120.61 1853.91 1031.36C1849.49 1027.33 1832.61 1010.82 1831.42 1012C1830.9 1012.53 1860.36 1040.57 1849.95 1032.54L1851.58 1034.57C1853.94 1037.5 1853.76 1035.72 1854.68 1036.52C1855.36 1037.11 1853.86 1036.73 1855.26 1038.75C1858.47 1043.37 1831.97 1015.05 1824.43 1012.21C1823.35 1011.8 1824.22 1015.76 1824.67 1015.84C1825.2 1015.93 1844.46 1032.83 1848.46 1036.72C1861.81 1049.69 1825.8 1016.84 1823.86 1017.36C1821.74 1017.93 1848.52 1039.83 1848.53 1042.24C1848.53 1042.31 1824.79 1020.38 1823.67 1020.43C1821.84 1020.51 1828.87 1026.25 1836.44 1032.66C1860.14 1052.73 1848.1 1043.5 1823.96 1023.89C1823.43 1023.46 1823 1023.47 1822.57 1023.89C1822.04 1024.41 1822.14 1024.62 1823.21 1025.25C1825.97 1026.88 1848.18 1045.76 1852.65 1051.03C1917.88 1127.92 1929.26 1166.33 1938.51 1183.48C1940.36 1186.91 1957.69 1230.2 1957.13 1234.07C1956.9 1235.64 1958.17 1233.98 1961.43 1245.08C1961.44 1245.11 1967.17 1263.18 1967.2 1263.2C1967.84 1263.76 1981.41 1317.24 1981.42 1317.27C1986.96 1335.9 1989 1372.92 1987.35 1389.79C1987.17 1391.58 1987.97 1390.56 1990.03 1386.37L1990.03 1386.37Z" fill="url(#paint16_linear_639_1317)"/>
<path d="M1797.17 958.56C1797.34 959.547 1797.35 959.545 1797.5 958.558C1797.59 957.985 1797.64 956.357 1797.61 954.943C1797.53 950.787 1796.21 952.887 1797.17 958.563L1797.17 958.56Z" fill="url(#paint17_linear_639_1317)"/>
<path d="M1807.27 914.126C1806.54 914 1806.43 914.264 1807.01 914.767C1807.7 915.376 1807.9 914.235 1807.27 914.126Z" fill="url(#paint18_linear_639_1317)"/>
<path d="M1811 925.763C1810.57 925.407 1810.89 927.988 1811.32 928.384C1811.68 928.716 1811.5 926.185 1811 925.763Z" fill="url(#paint19_linear_639_1317)"/>
<path d="M1797.62 965.978C1797.85 966.598 1798.02 967.248 1798.02 967.425C1797.99 968.107 1805.9 985.077 1800.96 972.045C1798.3 965.029 1797.82 960.105 1797.34 959.687C1796.8 959.212 1797.03 964.317 1797.62 965.978Z" fill="url(#paint20_linear_639_1317)"/>
<path d="M1676.51 916.545C1676.7 916.705 1677.13 918.015 1677.47 919.454C1679.44 927.805 1680.91 927.326 1680.04 925.638C1680.03 925.613 1676.83 915.041 1676.6 914.846C1676.45 914.707 1676.05 916.141 1676.51 916.545Z" fill="url(#paint21_linear_639_1317)"/>
</g>
<path opacity="0.2" d="M-19.4348 287.789C-12.9073 304.331 -21.6979 306.215 -37.0041 325.231C-42.5543 332.125 -42.8823 335.43 -46.1123 339.181C-71.1156 368.206 -84.5472 407.532 -85.0181 414.509C-85.1633 416.643 -93.3046 425.467 -94.0162 437.213C-94.5434 445.903 -112.672 477.451 -113.791 479.927C-121.903 497.828 -115.746 502.615 -118.526 509.957C-120.056 513.994 -120.85 513.93 -120.82 515.155C-120.69 520.666 -126.35 525.912 -116.515 546.492C-113.406 553 -117.7 555.54 -88.7755 575.95C-69.129 589.813 -72.8614 617.026 -48.9764 625.666C-45.532 626.911 -33.2202 633.033 -31.7069 635.163C-28.2346 640.055 -25.7146 641.034 -17.0841 646.341C-41.226 684.665 -35.7623 762.201 -41.3054 786.783C-44.7055 801.841 -48.4629 832.648 -49.3583 836.236C-58.9134 874.549 -77.7741 921.832 -85.4791 934.397C-132.357 1010.85 -214.619 1100.02 -232.567 1112.79C-247.157 1123.17 -288.428 1167.86 -297.519 1170.76C-299.178 1171.29 -301.085 1173.57 -300.363 1174.16C-300.31 1174.2 -293.456 1191.41 -293.403 1191.71C-293.015 1193.87 -292.168 1195.24 -290.978 1195.66C-281.61 1198.9 -176.66 1102.95 -129.349 1037.27C-86.6583 978.013 -63.0712 956.201 -50.018 923.091C-42.2781 903.458 -37.8669 886.528 -36.4337 883.485C-0.599496 807.595 -28.926 705.121 2.05379 655.996C4.12433 652.715 4.55888 652.46 6.42159 653.456C11.1766 656.007 23.1612 669.346 35.9097 673.427C41.9684 675.367 62.9189 682.844 67.236 689.469C81.6071 711.543 86.513 706.959 92.1013 718.231C95.6018 725.289 96.538 727.333 101.81 728.219C108.873 729.407 107.639 726.887 110.949 729.588C114.37 732.379 118.081 731.187 124.993 741.341C127.558 745.114 140.786 738.576 143.166 736.954C159.247 725.995 155.916 725.718 172.163 708.334C186.833 692.638 202.865 686.719 208.807 668.461C208.815 668.432 218.036 646.352 218.579 645.299C224.614 633.634 220.87 631.22 251.426 597.247C265.154 581.982 268.073 562.396 264.636 552.008C262.243 544.78 261.244 538.037 258.102 532.906C256.044 529.545 251.603 519.118 250.542 506.178C249.821 497.38 259.123 485.457 242.688 466.79C238.198 461.69 239.597 430.717 231.07 422.668C224.152 416.137 220.735 411.108 220.019 402.062C219.718 398.236 214.604 370.859 201.353 355.973C197.258 351.376 192.969 350.939 186.278 337.611C170.676 306.534 138.701 327.116 128.424 327.72C120.99 328.156 118.522 326.317 115.122 326.356C111.677 326.397 102.907 317.914 101.719 316.575C93.6016 307.433 87.8365 308.899 78.2882 304.949C73.8677 303.119 64.0377 298.005 63.8392 297.429C63.7657 297.219 63.9755 296.76 64.3061 296.411C67.3917 293.127 49.3936 294.863 30.6547 280.281C22.853 274.21 7.31831 268.951 -2.10327 266.651C-9.74384 264.787 -25.8183 271.611 -19.4314 287.791L-19.4348 287.789ZM5.84547 273.607C-0.0120461 296.556 12.8825 363.179 16.9583 377.504C22.7647 397.904 48.7331 421.057 54.9665 447.476C58.7469 463.513 58.317 466.519 51.7514 449.844C39.742 419.345 30.7758 412.622 21.0444 394.391C-22.9589 311.957 -1.33468 274.674 -0.312884 271.651C0.0425294 270.599 0.0239975 270.074 2.55089 270.738C5.69878 271.567 6.24591 272.041 5.84706 273.612L5.84547 273.607ZM30.2221 306.843C28.5494 309.926 26.9749 312.67 26.7174 312.943C25.7358 313.988 25.917 316.795 22.7014 322.566C18.2542 330.556 17.5655 340.828 14.6689 353.392C14.419 352.311 13.3799 347.847 13.1921 346.756C11.5389 337.025 2.21115 280.713 9.38121 273.085C9.43341 273.031 20.2051 275.521 29.0048 282.362C33.867 286.141 37.2112 287.759 39.8217 289.281C46.8481 293.379 39.7634 289.253 30.2168 306.845L30.2221 306.843ZM48.2222 292.782C43.7853 298.854 36.2868 336.462 38.1003 355.416C42.086 397.087 66.662 399.566 60.176 462.763C59.3242 471.078 60.5936 455.145 58.2871 450.957C57.9513 450.347 55.296 437.977 54.0203 436.314C52.2542 434.014 55.1237 435.138 26.7471 392.339C21.8753 384.99 18.9263 376.088 16.7523 367.742C15.6372 363.461 20.3286 331.229 25.2525 323.227C29.4585 316.388 28.1848 309.909 45.007 291.81C45.5828 292.023 46.7644 292.374 48.2257 292.783L48.2222 292.782ZM57.445 310.796C57.4199 312.328 57.2261 314.991 57.0131 316.711C54.6023 336.229 69.0548 383.312 69.8428 383.938C70.6274 384.562 84.0024 423.7 68.5718 459.832C66.2369 465.296 64.382 471.865 63.4209 472.927C62.862 473.544 62.1282 470.776 62.4258 469.184C62.9369 466.452 63.3585 452.565 64.2797 448.977C65.815 443.001 64.1197 418.667 53.9797 396.522C27.9703 339.693 49.5569 300.942 50.1742 293.316C54.5774 294.511 59.999 295.882 60.0041 295.888C60.8433 296.555 57.5275 305.387 57.4417 310.794L57.445 310.796ZM86.9964 310.543C80.9366 329.762 80.6034 334.013 79.9664 334.692C78.9135 335.809 75.5969 359.398 75.5812 359.418C74.7211 360.525 76.1038 384.51 76.0534 385.995C75.6517 397.397 80.4903 410.231 70.3985 377.716C52.5524 320.223 62.415 298.999 63.1288 299.486C68.6485 303.239 75.7722 307.9 86.9964 310.543ZM108.481 326.562C94.3327 337.275 86.6854 353.581 86.5671 353.707C80.2269 360.475 76.6663 381.484 78.3016 360.017C79.4135 345.442 87.3973 313.409 90.0606 312.11C92.6461 310.849 98.4469 317.875 108.479 326.557L108.481 326.562ZM133.592 341.292C132.256 344.596 127.248 349.981 124.986 354.495C105.176 394.039 115.629 376.622 103.276 398.783C97.283 409.535 101.667 407.214 98.8991 410.273C89.4451 420.717 81.3557 455.201 75.3946 467.656C74.5393 469.444 73.342 470.083 72.9177 471.777C72.5852 473.098 69.3197 478.067 67.9785 479.287C67.5598 479.67 66.9496 480.571 66.7335 481.313C66.1311 481.178 65.6862 481.266 65.3938 481.577C64.7169 482.296 63.8867 479.831 64.9779 478.669C66.7461 476.788 64.4167 475.678 71.3812 460.148C75.677 450.569 78.2099 435.986 79.46 426.156C83.8517 391.568 65.9431 377.676 102.858 335.447C112.02 324.965 110.888 328.308 116.23 328.76C117.21 328.842 129.631 333.714 145.11 325.682C151.575 322.326 135.094 337.607 133.601 341.3L133.592 341.292ZM105.294 401.276C105.11 401.131 105.477 400.275 105.687 400.444C106.216 400.865 105.473 401.421 105.294 401.276ZM183.437 342.76C128.242 363.656 105.196 405.108 106.592 398.854C106.829 397.789 111.954 388.784 112.607 386.775C118.775 367.883 132.158 346.376 153.234 323.398C165.642 321.644 173.413 325.143 178.982 332.125C181.924 335.817 185.386 340.875 185.444 341.57C185.464 341.798 184.558 342.335 183.432 342.762L183.437 342.76ZM194.118 352.208C190.72 352.569 182.674 355.264 166.084 364.58C132.569 383.399 117.578 407.098 97.4441 437.999C89.8802 449.607 80.8302 461.5 82.1014 458.157C94.3197 426.054 98.1595 388.242 177.267 348.141C187.192 343.111 186.589 343.225 188.143 346.066C189.008 347.647 191.28 349.626 194.115 352.206L194.118 352.208ZM198.045 355.909C194.826 357.115 187.574 361.951 181.897 365.306C155.291 381.007 142.134 397.571 125.223 422.299C114.823 437.506 91.4817 466.211 74.8656 475.876C89.1912 451.277 92.6493 452.366 106.884 427.719C127.099 392.715 167.59 363.871 195.262 353.664C195.367 353.623 195.466 353.579 195.558 353.532C196.363 354.281 197.198 355.072 198.051 355.916L198.045 355.909ZM72.6588 480.623C73.9802 481.399 78.2315 479.47 83.0698 478.765C88.7145 477.941 94.0067 476.783 96.6512 475.789C101.645 473.916 105.816 472.052 106.385 471.448C107.226 470.555 109.158 470.822 106.318 472.219C104.686 473.021 94.3764 481.254 87.433 485.897C83.9049 488.258 79.0057 492.853 78.341 492.596C78.0292 492.478 77.7879 492.203 77.558 492.465C77.3084 492.476 75.1843 487.149 72.3791 484.857C70.9091 483.657 69.6768 482.762 68.6649 482.163C69.994 481.429 71.5545 479.973 72.6605 480.62L72.6588 480.623ZM202.859 361.185C198.13 363.57 184.114 374.721 168.298 393.035C148.372 416.101 143.591 445.625 125.313 457.321C113.629 464.797 105.755 470.712 92.0183 474.361C63.8824 481.831 85.1191 478.398 115.457 440.305C128.223 424.275 140.696 401.413 159.734 384.448C175.787 370.144 195.78 360.946 199.286 357.162C200.479 358.399 201.687 359.739 202.859 361.185ZM212.102 380.682C197.335 383.687 151.772 427.794 148.419 431.215C156.06 410.828 178.818 385.309 195.703 370.4C200.021 366.586 202.619 363.937 203.801 362.381C207.497 367.207 210.748 373.192 212.105 380.684L212.102 380.682ZM221.618 420.274C219.35 420.699 174.62 423.496 141.729 446.945C140.373 447.912 139.644 446.771 139.978 446.749C140.159 446.737 140.311 446.449 140.317 446.106C140.397 441.026 183.533 397.014 208.637 385.193C213.423 382.938 212.703 381.579 213.352 386.776C214.864 398.929 215.314 389.091 217.395 404.6C219.114 417.408 227.362 419.203 221.624 420.273L221.618 420.274ZM230.952 427.381C210.656 432.942 228.704 431.969 152.394 451.662C134.151 456.37 114.008 467.414 126.448 459.77C142.62 449.828 148.882 444.198 166.795 436.198C193.067 424.463 217.68 423.954 222.473 422.036C227.059 420.201 226.497 422.706 228.909 424.622C229.837 425.362 230.518 426.636 230.957 427.379L230.952 427.381ZM209.37 452.616C206.276 453.776 198.097 458.118 194.698 459.559C171.592 469.348 178.851 469.094 165.889 469.958C124.537 472.701 90.2221 493.503 85.6314 498.85C83.3962 497.774 81.1112 495.903 81.0403 494.984C80.9378 493.64 93.9199 484.819 109.431 473.614C123.539 463.421 143.077 456.716 160.424 452.328C233.506 433.84 230.574 425.312 233.161 432.789C233.797 434.632 235.824 445.425 235.797 446.821C235.729 450.081 219.563 448.799 209.375 452.623L209.37 452.616ZM169.681 703.899C168.338 697.041 161.831 687.686 155.422 680.899C155.546 677.81 151.118 669.034 144.153 655.784C135.923 640.13 132.838 636.763 128.391 603.114C122.43 557.967 99.3666 515.919 109.665 529.094C113.999 534.635 128.001 549.477 134.462 563.727C150.809 599.777 128.223 624.724 176.471 699.468C169.803 707.007 170.231 706.717 169.678 703.897L169.681 703.899ZM104.444 512.665C105.659 510.902 139.76 521.967 152.507 528.259C207.125 555.209 236.565 611.045 230.272 617.745C229.278 618.803 228.362 619.585 228.235 619.484C226.816 618.356 231.54 613.887 216.885 602.162C203.998 591.851 200.105 596.256 193.875 583.701C180.666 557.077 128.825 536.578 116.97 526.534C110.923 521.411 112.107 521.664 107.252 517.106C104.302 514.336 103.815 513.569 104.441 512.663L104.444 512.665ZM195.091 637.998C193.867 645.101 185.14 660.565 183.861 671.478C182.665 681.676 183.241 689.415 184.061 692.812C183.272 692.297 182.214 689.905 180.986 685.816C175.845 668.671 179.457 639.418 178.885 629.076C175.007 558.765 142.564 562.815 115.811 531.623C109.241 523.961 110.53 524.824 115.251 528.792C121.499 534.044 167.252 555.051 182.429 571.813C191.161 581.457 200.564 606.242 195.086 637.999L195.091 637.998ZM174.697 692.208C172.636 689.139 169.765 684.71 168.319 682.366C141.765 639.302 146.34 590.601 140.996 572.997C137.253 560.667 130.649 551.244 127.528 546.47C155.584 567.876 178.896 580.08 175.627 644.278C174.996 656.623 174.688 680.723 180.587 692.883C181.215 694.174 181.206 694.801 180.551 695.844C178.939 698.4 178.794 698.31 174.695 692.211L174.697 692.208ZM150.988 676.604C148.038 674.028 145.406 672.336 143.691 672.114C142.143 671.913 142.113 671.882 141.544 670.052C135.563 650.799 103.587 608.233 103.938 576.827C104.117 560.496 108.447 549.555 104.888 533.859C98.0894 503.867 119.813 573.016 122.499 584.333C126.231 600.061 127.25 624.22 133.904 641.45C133.935 641.528 145.097 665.5 150.988 676.604ZM126.488 652.152C117.194 664.814 112.742 682.685 112.36 689.527C108.747 685.273 104.281 679.355 98.8133 668.851C93.8734 659.361 92.6729 666.352 88.7453 628.227C87.1023 612.286 82.8284 608.032 81.9714 599.439C81.0705 590.451 79.226 576.109 80.6502 567.998C83.2619 553.144 80.626 553.813 84.0374 540.416C89.5686 518.7 84.9334 515.717 85.606 513.015C86.158 510.807 84.3066 505.079 84.804 503.781C85.0023 503.265 84.855 502.249 84.4775 501.519C84.1 500.789 83.8648 500.116 83.9536 500.02C84.7855 499.134 97.8023 509.912 101.105 528.8C106.141 557.61 103.404 542.882 101.344 575.344C100.834 583.358 105.531 607.247 117.793 628.88C130.136 650.656 128.93 648.829 126.486 652.155L126.488 652.152ZM94.7866 505.748C95.8154 505.905 97.3302 507.902 96.8237 508.44C96.3782 508.917 93.0028 505.58 92.3369 504C91.5031 502.03 91.5657 502.136 94.0286 502.031C96.0457 501.946 96.1091 502.29 94.2429 503.206C92.8852 503.875 93.2357 505.513 94.7866 505.748ZM249.293 487.682C232.378 476.878 224.27 476.203 207.561 472.682C183.467 467.607 177.051 470.574 182.114 468.306C210.224 455.72 209.669 453.324 229.887 451.76C235.845 451.3 236.014 448.836 236.325 453.497C237.662 473.548 248.001 470.377 249.298 487.68L249.293 487.682ZM247.628 502.761C247.518 502.879 246.075 501.895 244.423 500.579C240.853 497.736 239.1 497.032 229.442 494.542C202.667 487.644 183.673 500.703 162.482 498.241C153.304 497.174 95.6326 493.507 91.4228 500.375C90.5455 501.808 90.8722 501.032 87.519 499.624C91.3779 497.852 98.4633 492.002 102.432 490.383C102.956 490.17 104.749 489.183 106.418 488.191C125.388 476.904 173.207 468.251 195.447 472.755C213.475 476.406 233.134 478.536 247.176 489.633C249.462 491.441 250.393 491.694 248.989 495.848C248.38 497.647 247.908 502.463 247.63 502.758L247.628 502.761ZM249.459 522.483C248.964 522.141 243.298 520.748 238.813 519.863C226.483 517.438 201.787 522.311 177.729 517.869C163.381 515.222 138.44 502.436 106.451 502.555C102.97 502.567 99.9336 502.432 99.7101 502.256C98.7872 501.538 97.6163 504.02 96.8764 501.806C96.5164 500.727 104.913 499.368 113.495 499.112C152.382 497.957 159.848 503.728 188.924 498.223C210.238 494.188 215.946 494.01 228.397 497.001C240.036 499.797 238.754 499.502 247.465 506.44C247.847 507.95 248.777 511.277 248.695 512.818C248.524 515.996 251.322 523.765 249.461 522.479L249.459 522.483ZM263.037 563.438C262.462 564.051 262.855 563.498 260.626 559.637C242.036 527.399 199.231 524.201 202.081 522.809C203.302 522.214 224.856 521.586 233.969 521.879C237.427 521.992 243.592 523.363 247.561 524.905C252.219 526.714 251.767 525.158 253.179 528.832C254.78 533.007 256.849 536.084 257.465 538.31C257.68 539.089 261.085 547.729 261.234 550.609C261.239 550.655 263.7 562.729 263.04 563.432L263.037 563.438ZM240.741 600.276C240.326 598.078 239.848 594.854 239.679 593.117C239.675 593.079 236.5 574.923 225.409 561.053C221.052 555.599 220.933 553.819 216.111 549.373C215.28 548.607 212.863 544.795 211.479 543.711C209.911 542.484 203.665 535.005 194.581 527.165C189.124 522.457 186.666 521.762 205.203 526.465C224.81 531.441 228.185 534.972 233.44 537.283C236.438 538.604 251.524 548.754 255.476 556.069C257.119 559.108 260.909 565.619 261.676 566.715C263.798 569.753 259.046 580.424 258.808 580.679C257.262 582.325 259.225 583.965 251.851 592.46C237.609 608.874 242.043 607.161 240.741 600.276ZM234.516 613.279C233.776 613.165 228.463 588.344 200.231 559.912C187.016 546.604 161.669 527.658 142.29 521.06C137.213 519.331 115.368 510.784 103.416 509.128C100.624 508.741 98.904 507.615 98.7743 506.087C98.7195 505.417 119.117 501.977 155.082 513.788C157.88 514.706 174.152 519.983 182.486 521.882C185.505 522.569 199.661 534.277 204.779 540.319C227.154 566.73 232.722 567.103 238.462 606.501C238.825 609.007 234.918 613.337 234.514 613.274L234.516 613.279ZM205.585 668.486C205.211 668.191 209.084 655.886 208.52 648.994C208.233 645.508 211.173 625.813 207.948 616.218C207.563 615.068 204.699 600.838 202.283 598.805C201.929 598.507 201.507 596.414 201.399 595.933C209.676 599.716 211.558 599.22 221.492 609.534C223.704 611.83 226.443 616.922 226.034 617.976C225.354 619.73 227.731 620.655 225.844 623.468C223.062 627.621 209.973 658.796 209.954 658.814C209.084 659.722 210.317 659.112 208.168 663.098C205.934 667.244 206.177 668.957 205.582 668.484L205.585 668.486ZM185.374 682.265C184.517 672.338 192.161 651.591 196.227 642.413C198.311 637.706 199.365 624.993 199.585 618.502C199.965 607.2 194.723 591.127 195.878 592.02C196.576 592.551 202.541 603.314 203.703 609.635C204.596 614.513 208.536 623.098 206.363 642.169C205.68 648.167 205.712 660.346 202.232 668.031C200.896 670.978 202.508 670.654 200.909 674.388C197.983 681.223 201.637 678.074 195.137 684.444C192.095 687.427 188.215 690.591 185.688 692.206C185.835 690.207 185.782 686.961 185.376 682.262L185.374 682.265ZM144.499 730.904C144.684 730.473 144.874 729.421 144.969 729.097C145.29 728.005 150.101 719.205 148.913 703.443C147.979 691.028 141.41 673.561 144.031 674.422C145.562 674.925 150.919 679.378 154.249 682.912C166.029 695.421 167.063 706.002 168.306 706.994C169.814 708.196 161.023 716.001 158.35 720.27C155.894 724.183 141.423 738.076 144.5 730.909L144.499 730.904ZM116.716 726.872C119.9 726.745 120.452 726.582 121.541 725.423C122.38 724.532 122.777 723.607 122.791 722.514C122.83 719.507 125.478 717.43 123.766 708.981C121.925 699.894 118.837 696.906 114.064 691.495C114.247 690.983 114.334 690.409 114.339 690.146C114.542 681.491 127.791 652.418 129.855 651.831C130.59 651.621 134.412 660.895 135.796 663.333C141.28 673.002 143.536 690.672 144.83 695.37C148.289 707.92 144.538 719.605 143.816 724.17C143.338 727.192 142.955 725.967 142.252 728.949C140.446 736.617 137.163 737.153 134.951 738.027C129.744 740.079 127.779 740.8 124.427 736.188C119.152 728.931 106.061 727.29 116.716 726.872ZM69.6919 640.09C57.9392 555.956 79.6409 551.051 81.5113 509.38C82.1337 495.53 84.7462 524.467 84.3307 525.828C76.0855 552.91 74.1794 588.809 83.576 615.759C87.2288 626.234 87.4075 645.708 89.5191 654.413C92.1859 665.398 92.3163 661.601 102.203 678.982C109.959 692.62 115.476 694.458 118.812 701.786C120.432 705.346 122.103 712.874 121.924 715.806C121.723 719.14 120.377 723.524 119.39 724.058C117.826 724.909 116.239 723.204 110.054 724.992C105.914 726.187 100.761 725.982 98.9524 724.547C98.4219 724.129 97.2976 722.305 96.4569 720.503C92.596 712.242 91.6902 711.369 85.2912 706.363C84.213 705.518 83.214 704.672 82.2838 703.827C82.4092 694.916 72.402 659.492 69.6901 640.085L69.6919 640.09ZM43.274 659.26C50.3209 643.746 42.184 595.394 44.8386 586.284C44.978 585.803 44.9576 585.297 44.7887 585.164C44.3401 584.809 45.438 584.154 45.1886 583.668C44.6241 582.574 45.8728 578.76 45.7098 577.601C44.8457 571.423 58.5871 543.246 58.621 543.139C59.7271 539.633 77.3034 516.377 77.3055 507.089C77.3085 495.645 85.3281 495.547 69.723 552.007C58.5738 592.34 59.529 616.552 78.84 694.699C79.2076 696.19 79.6651 699.234 80.1573 701.774C72.8859 694.394 70.2674 687.383 65.7219 683.753C61.6215 680.476 46.9215 675.023 38.2361 671.612C40.281 668.633 42.5023 660.954 43.2742 659.253L43.274 659.26ZM22.8774 635.049C33.6133 612.935 30.067 621.458 40.7746 603.889C42.7361 600.672 41.6663 604.787 42.8724 620.888C45.1502 651.352 37.5124 668.051 35.7487 670.637C33.9245 669.898 32.5855 669.317 32.001 668.956C30.309 667.919 28.7169 667.037 28.461 666.997C25.835 666.595 17.9853 659.067 16.0093 657.413C13.5167 655.323 21.5189 637.858 22.8789 635.054L22.8774 635.049ZM-14.6447 646.511C-14.2862 646.127 -10.9204 646.846 -9.68781 647.571C-8.93053 648.019 -1.71969 648.409 1.10151 650.656C5.71369 654.33 -19.0901 660.851 -17.2343 743.215C-16.0935 793.762 -24.6359 848.575 -43.1446 893.045C-43.5755 894.077 -52.9452 919.823 -52.9856 920.066C-54.8725 931.837 -162.054 1090 -263.304 1173.87C-278.652 1186.58 -288.746 1198.1 -291.372 1190.31C-298.823 1168.2 -300.127 1177.79 -283.365 1163.05C-278.261 1158.57 -234.127 1116.27 -232.344 1115.77C-223.157 1113.16 -149.046 1028.9 -133.723 1006.87C-120.675 988.101 -121.103 987.323 -119.89 987.144C-117.931 986.852 -115.34 980.543 -108.78 972.864C-86.7756 947.1 -87.1684 941.888 -79.8174 931.357C-76.2371 926.23 -46.2658 854.638 -43.0481 819.64C-41.8651 806.775 -34.7817 773.689 -36.0175 761.943C-36.5089 757.255 -35.6022 745.432 -35.2366 742.951C-34.6817 739.195 -34.8418 729.011 -33.4561 720.473C-33.4505 720.44 -29.4088 691.66 -29.4067 691.626C-29.0701 685.779 -19.3591 651.52 -14.6498 646.504L-14.6447 646.511ZM-15.0773 642.276C-14.4281 641.583 -9.41125 614.421 -6.21922 608.444C8.72975 580.44 61.0444 531.388 71.4116 494.975C72.9815 489.464 73.2048 489.19 74.8958 491.593C75.8565 492.957 76.5417 493.688 76.9862 493.949C75.9878 497.039 75.987 504.294 75.4898 505.893C74.6539 508.584 75.646 508.474 71.6741 516.895C70.1846 520.054 71.1626 519.651 69.6672 521.286C61.8472 529.84 46.8415 559.294 43.9461 572.856C39.8638 591.99 43.921 596.235 40.9624 599.393C35.5358 605.192 20.2772 630.322 16.4396 642.239C12.0609 655.841 12.5524 654.609 10.7271 653.182C8.72938 651.62 3.22297 648.874 2.51155 648.321C0.440494 646.705 -14.8363 643.69 -15.4691 643.191C-15.6158 643.073 -15.4411 642.66 -15.079 642.271L-15.0773 642.276ZM-39.2207 624.417C-38.2354 623.343 -32.1679 609.156 -31.3301 605.965C-24.8304 581.22 -6.39034 555.556 2.13506 550.348C6.84368 547.472 7.77043 542.41 13.5153 539.64C32.4514 530.513 58.7843 508.688 68.4701 491.438C71.3116 486.372 70.9885 486.84 71.4387 487.2C71.9436 487.602 71.0024 487.141 68.9748 493.786C61.5061 518.259 49.0689 528.867 25.4184 562.292C13.1058 579.691 -5.37209 591.156 -13.8679 624.411C-17.8409 639.956 -17.8915 640.007 -17.3965 642.287C-21.882 641.216 -26.4459 636.898 -29.1356 633.78C-31.4633 631.079 -35.0296 628.369 -38.1008 626.97C-39.859 626.167 -40.1711 625.453 -39.2189 624.414L-39.2207 624.417ZM-73.6428 587.242C-25.7186 570.102 11.0053 540.123 -1.50192 550.368C-28.7415 572.678 -31.9487 609.416 -43.2995 624.892C-53.027 621.603 -57.9781 619.517 -63.6762 610.3C-65.3603 607.576 -66.5692 606.259 -67.0452 603.496C-68.1412 597.127 -74.3337 587.49 -73.6395 587.244L-73.6428 587.242ZM-91.2043 569.864C-89.82 568.644 -64.4393 573.223 -29.6653 561.987C-18.5614 558.397 -20.6677 559.417 -23.6089 561.118C-38.6284 569.812 -46.482 573.032 -70.5241 583.272C-76.6094 585.866 -75.4637 586.35 -77.81 582.659C-81.195 577.34 -91.3449 569.983 -91.2025 569.861L-91.2043 569.864ZM-97.5504 564.26C-90.4627 561.715 -74.1865 551.982 -64.5001 547.432C-45.6357 538.572 -46.5693 535.176 13.3316 518.865C25.877 515.45 40.9373 504.242 49.1685 496.799C57.068 489.654 67.1074 486.032 67.2449 487.631C67.3536 488.887 62.5376 496.131 58.1761 501.279C37.001 526.27 10.8199 537.377 7.25759 540.519C5.88377 541.728 -6.6757 549.478 -14.1177 553.452C-18.8155 555.96 -34.0206 561.125 -39.0871 561.935C-65.2038 566.1 -48.3204 567.064 -92.9477 567.059C-94.5424 567.058 -94.6204 566.949 -97.5436 564.263L-97.5504 564.26ZM-104.89 554.706C-98.523 552.036 -89.5302 544.484 -75.892 530.348C-43.231 496.491 36.7145 481.531 62.7468 484.072L66.2304 484.411C61.1464 486.196 55.1474 488.443 48.212 494.095C0.509329 532.958 6.78742 505.949 -82.2778 553.627C-91.0834 558.342 -96.7016 561.011 -99.3358 562.638C-100.222 561.838 -101.28 560.895 -102.558 559.78C-107.323 555.627 -107.933 555.977 -104.893 554.704L-104.89 554.706ZM-117.668 516.883C-116.525 515.666 -89.6139 518.587 -73.2351 515.933C-48.8187 511.977 -60.2084 509.357 -79.0744 529.526C-89.4872 540.656 -97.276 547.272 -103.628 550.373C-107.8 552.407 -110.056 554.856 -110.313 552.254C-110.344 551.937 -111.234 550.182 -112.286 548.353C-122.849 530.008 -118.228 517.479 -117.666 516.88L-117.668 516.883ZM-100.94 472.572C-84.3464 477.284 -64.4419 491.462 -14.7224 493.378C-17.0303 494.105 -31.5466 499.221 -33.8593 500.383C-59.1649 513.092 -46.9275 506.188 -62.9643 511.426C-79.3065 516.758 -115.874 513.902 -116.079 513.625C-116.208 513.452 -115.888 512.307 -115.367 511.077C-112.375 503.991 -117.995 501.424 -112.655 485.489C-107.088 468.885 -105.934 471.152 -100.94 472.572ZM-90.8521 436.068C-90.7251 435.935 -90.1152 436.172 -89.4971 436.597C-71.533 449.018 -13.359 429.168 34.2913 467.422C-1.79492 455.175 -8.9331 450.758 -44.2548 455.833C-67.7842 459.214 -89.2099 456.715 -93.3052 453.452C-94.7483 452.305 -99.5337 454.171 -92.8337 456.471C-68.5293 464.813 -44.99 457.004 -23.9055 456.198C-2.94479 455.396 21.4352 465.509 30.5389 468.733C36.215 470.742 35.5321 471.061 28.2029 469.828C-4.49991 464.329 -37.7552 476.88 -76.5946 467.721C-82.9179 466.229 -98.9291 461.432 -99.9588 460.717C-100.206 460.547 -100.25 460.081 -100.058 459.685C-97.9892 455.47 -97.3968 456.701 -96.7006 453.724C-95.0039 446.499 -91.65 443.054 -91.7534 440.681C-91.7937 439.784 -91.5171 438.548 -91.1389 437.935C-90.1302 436.292 -91.2732 436.516 -90.8538 436.071L-90.8521 436.068ZM-88.988 431.676C-84.9813 434.864 -24.6481 428.709 -0.185928 440.776C3.73964 442.713 9.29815 447.653 12.1612 447.935C13.4965 448.066 14.5035 448.65 18.1243 451.402C25.2194 456.788 27.5066 454.803 31.5461 458.614C34.0189 460.948 43.064 468.321 46.5518 472.24C48.8006 474.764 52.4145 480.241 52.5778 481.368C52.6179 481.638 50.3534 482.009 47.5439 482.189C39.5078 482.705 -1.86099 487.469 -4.06592 489.811C-5.24413 491.067 -26.8872 491.016 -32.6556 489.744C-32.6864 489.737 -67.7005 484.468 -78.2849 478.32C-80.5569 477 -99.4934 469.893 -101.798 469.498C-103.625 469.182 -104.202 468.174 -103.411 466.692C-100.889 461.981 -99.9157 463.578 -85.0421 468.085C-41.7244 481.212 -8.64102 466.752 25.2335 471.758C46.707 474.932 50.6675 482.394 53.2826 482.537C54.4036 482.601 54.4264 482.568 54.1814 481.199C53.9333 479.797 48.8606 474.626 49.1802 474.026C49.5841 473.267 44.7201 472.367 37.3731 466.733C19.4782 453.003 11.8648 449.246 -8.62856 444.046C-28.6415 438.966 -49.1256 439.283 -49.1756 439.294C-49.5378 439.382 -69.4309 439.614 -80.1979 436.845C-95.7804 432.833 -89.3225 431.419 -88.995 431.68L-88.988 431.676ZM-69.1286 395.957C-61.8757 404.099 -53.1077 414.686 -27.0152 420.739C-5.21114 425.795 5.63231 437.263 5.54516 438.325C5.40695 439.974 10.9497 442.702 9.62147 443.349C8.09612 444.092 5.50416 439.413 -6.41904 436.179C-20.8586 432.261 -36.9767 429.731 -48.999 430.269C-64.3398 430.957 -88.9962 429.241 -89.0233 429.197C-89.1638 428.982 -88.8203 427.765 -88.2596 426.494C-84.6622 418.346 -83.8061 422.392 -79.2259 405.904C-74.0086 387.126 -74.3929 390.051 -69.1321 395.955L-69.1286 395.957ZM-66.333 373.777C-65.5133 372.905 -60.2282 382.454 -52.7621 389.496C-40.5038 401.052 -19.7183 411.397 -19.1921 414.605C-18.9242 416.243 -15.7361 419.565 -12.7581 421.316C-4.79354 425.997 -10.5572 423.321 -24.3845 418.947C-61.5718 407.176 -57.4983 402.263 -73.2056 388.275C-69.9821 380.344 -66.8969 374.379 -66.3314 373.782L-66.333 373.777ZM-35.5312 327.604C-34.1932 326.203 -34.3145 338.09 -34.3166 338.124C-34.4747 355.184 -29.9506 374.987 -29.737 376.714C-26.9326 399.505 -8.28987 419.341 -10.1056 419.408C-10.288 419.416 -23.4542 406.231 -30.0652 403.33C-38.5614 399.605 -51.0761 387.405 -51.0965 387.387C-54.6326 384.112 -60.4652 377.468 -62.087 373.756C-63.0288 371.591 -65.228 372.133 -64.7993 371.144C-63.2612 367.619 -50.6205 349.798 -49.1758 347.92C-36.8156 331.846 -36.4309 328.549 -35.533 327.607L-35.5312 327.604ZM-15.5024 308.391C-16.1064 313.668 -14.3949 315.763 -15.7639 325.457C-19.4521 351.599 -26.8565 376.02 2.335 412.956C18.6263 433.567 20.7399 428.691 52.5719 461.029C57.2481 465.782 63.0449 479.239 63.3412 481.594C63.3588 481.718 56.1197 482.355 55.619 481.093C55.5419 480.905 54.7382 479.501 53.8257 477.974C48.3742 468.852 34.631 458.098 25.3365 452.146C9.66241 442.106 -24.5424 403.598 -27.6886 375.814C-28.65 367.337 -31.4405 357.773 -31.2332 350.359C-31.2311 350.324 -31.7894 327.916 -31.9957 324.385C-22.8316 314.358 -18.8488 310.187 -17.4146 307.367C-15.6289 303.859 -15.02 304.184 -15.5024 308.391ZM-17.4733 278.039C-16.8267 275.189 -12.7339 270.861 -9.53649 269.649C-6.62923 268.542 -0.68298 268.482 -1.72046 269.929C-4.64615 274.02 -21.2398 319.246 18.383 394.873C28.8255 414.804 31.8569 414.957 42.5058 435.218C45.3042 440.545 50.6954 453.648 50.269 454.098C50.0463 454.332 45.1896 449.723 43.9461 448.095C-0.686805 412.561 -24.7804 386.578 -14.4282 334.328C-12.3941 324.061 -13.3952 302.357 -13.5402 299.368C-14.0869 288.005 -19.3029 286.09 -17.4786 278.041L-17.4733 278.039Z" fill="url(#paint22_linear_639_1317)"/>
</g>
<defs>
<radialGradient id="paint0_radial_639_1317" cx="0" cy="0" r="1" gradientUnits="userSpaceOnUse" gradientTransform="translate(960 606) rotate(90) scale(457 596)">
<stop stop-color="#FFE7CC"/>
<stop offset="1" stop-color="#FFFCF9"/>
</radialGradient>
<radialGradient id="paint1_radial_639_1317" cx="0" cy="0" r="1" gradientUnits="userSpaceOnUse" gradientTransform="translate(1652.5 1249.5) rotate(90) scale(516.5)">
<stop stop-color="#FFE7CC"/>
<stop offset="1" stop-color="#FFFCF9"/>
</radialGradient>
<linearGradient id="paint2_linear_639_1317" x1="1675.92" y1="913.259" x2="1675.52" y2="914.029" gradientUnits="userSpaceOnUse">
<stop stop-color="#F5EAB0"/>
<stop offset="0.11" stop-color="#DAC37C"/>
<stop offset="0.29" stop-color="#AE8326"/>
<stop offset="0.39" stop-color="#C3A250"/>
<stop offset="0.51" stop-color="#DECA84"/>
<stop offset="0.61" stop-color="#EEE2A4"/>
<stop offset="0.67" stop-color="#F5ECB1"/>
<stop offset="0.68" stop-color="#EEE2A4"/>
<stop offset="0.76" stop-color="#D9C179"/>
<stop offset="0.82" stop-color="#C8A757"/>
<stop offset="0.89" stop-color="#BB953F"/>
<stop offset="0.95" stop-color="#B48931"/>
<stop offset="1" stop-color="#B2862C"/>
</linearGradient>
<linearGradient id="paint3_linear_639_1317" x1="1675.44" y1="899.464" x2="1672.34" y2="905.317" gradientUnits="userSpaceOnUse">
<stop stop-color="#F5EAB0"/>
<stop offset="0.11" stop-color="#DAC37C"/>
<stop offset="0.29" stop-color="#AE8326"/>
<stop offset="0.39" stop-color="#C3A250"/>
<stop offset="0.51" stop-color="#DECA84"/>
<stop offset="0.61" stop-color="#EEE2A4"/>
<stop offset="0.67" stop-color="#F5ECB1"/>
<stop offset="0.68" stop-color="#EEE2A4"/>
<stop offset="0.76" stop-color="#D9C179"/>
<stop offset="0.82" stop-color="#C8A757"/>
<stop offset="0.89" stop-color="#BB953F"/>
<stop offset="0.95" stop-color="#B48931"/>
<stop offset="1" stop-color="#B2862C"/>
</linearGradient>
<linearGradient id="paint4_linear_639_1317" x1="1734.1" y1="868.221" x2="1730.9" y2="874.252" gradientUnits="userSpaceOnUse">
<stop stop-color="#F5EAB0"/>
<stop offset="0.11" stop-color="#DAC37C"/>
<stop offset="0.29" stop-color="#AE8326"/>
<stop offset="0.39" stop-color="#C3A250"/>
<stop offset="0.51" stop-color="#DECA84"/>
<stop offset="0.61" stop-color="#EEE2A4"/>
<stop offset="0.67" stop-color="#F5ECB1"/>
<stop offset="0.68" stop-color="#EEE2A4"/>
<stop offset="0.76" stop-color="#D9C179"/>
<stop offset="0.82" stop-color="#C8A757"/>
<stop offset="0.89" stop-color="#BB953F"/>
<stop offset="0.95" stop-color="#B48931"/>
<stop offset="1" stop-color="#B2862C"/>
</linearGradient>
<linearGradient id="paint5_linear_639_1317" x1="1741.33" y1="880.325" x2="1738.64" y2="885.41" gradientUnits="userSpaceOnUse">
<stop stop-color="#F5EAB0"/>
<stop offset="0.11" stop-color="#DAC37C"/>
<stop offset="0.29" stop-color="#AE8326"/>
<stop offset="0.39" stop-color="#C3A250"/>
<stop offset="0.51" stop-color="#DECA84"/>
<stop offset="0.61" stop-color="#EEE2A4"/>
<stop offset="0.67" stop-color="#F5ECB1"/>
<stop offset="0.68" stop-color="#EEE2A4"/>
<stop offset="0.76" stop-color="#D9C179"/>
<stop offset="0.82" stop-color="#C8A757"/>
<stop offset="0.89" stop-color="#BB953F"/>
<stop offset="0.95" stop-color="#B48931"/>
<stop offset="1" stop-color="#B2862C"/>
</linearGradient>
<linearGradient id="paint6_linear_639_1317" x1="1770.27" y1="871.25" x2="1766.15" y2="878.982" gradientUnits="userSpaceOnUse">
<stop stop-color="#F5EAB0"/>
<stop offset="0.11" stop-color="#DAC37C"/>
<stop offset="0.29" stop-color="#AE8326"/>
<stop offset="0.39" stop-color="#C3A250"/>
<stop offset="0.51" stop-color="#DECA84"/>
<stop offset="0.61" stop-color="#EEE2A4"/>
<stop offset="0.67" stop-color="#F5ECB1"/>
<stop offset="0.68" stop-color="#EEE2A4"/>
<stop offset="0.76" stop-color="#D9C179"/>
<stop offset="0.82" stop-color="#C8A757"/>
<stop offset="0.89" stop-color="#BB953F"/>
<stop offset="0.95" stop-color="#B48931"/>
<stop offset="1" stop-color="#B2862C"/>
</linearGradient>
<linearGradient id="paint7_linear_639_1317" x1="1850.59" y1="990.561" x2="1850.09" y2="991.494" gradientUnits="userSpaceOnUse">
<stop stop-color="#F5EAB0"/>
<stop offset="0.11" stop-color="#DAC37C"/>
<stop offset="0.29" stop-color="#AE8326"/>
<stop offset="0.39" stop-color="#C3A250"/>
<stop offset="0.51" stop-color="#DECA84"/>
<stop offset="0.61" stop-color="#EEE2A4"/>
<stop offset="0.67" stop-color="#F5ECB1"/>
<stop offset="0.68" stop-color="#EEE2A4"/>
<stop offset="0.76" stop-color="#D9C179"/>
<stop offset="0.82" stop-color="#C8A757"/>
<stop offset="0.89" stop-color="#BB953F"/>
<stop offset="0.95" stop-color="#B48931"/>
<stop offset="1" stop-color="#B2862C"/>
</linearGradient>
<linearGradient id="paint8_linear_639_1317" x1="1745.21" y1="873.866" x2="1743.67" y2="876.775" gradientUnits="userSpaceOnUse">
<stop stop-color="#F5EAB0"/>
<stop offset="0.11" stop-color="#DAC37C"/>
<stop offset="0.29" stop-color="#AE8326"/>
<stop offset="0.39" stop-color="#C3A250"/>
<stop offset="0.51" stop-color="#DECA84"/>
<stop offset="0.61" stop-color="#EEE2A4"/>
<stop offset="0.67" stop-color="#F5ECB1"/>
<stop offset="0.68" stop-color="#EEE2A4"/>
<stop offset="0.76" stop-color="#D9C179"/>
<stop offset="0.82" stop-color="#C8A757"/>
<stop offset="0.89" stop-color="#BB953F"/>
<stop offset="0.95" stop-color="#B48931"/>
<stop offset="1" stop-color="#B2862C"/>
</linearGradient>
<linearGradient id="paint9_linear_639_1317" x1="1736.63" y1="865.682" x2="1735.26" y2="868.266" gradientUnits="userSpaceOnUse">
<stop stop-color="#F5EAB0"/>
<stop offset="0.11" stop-color="#DAC37C"/>
<stop offset="0.29" stop-color="#AE8326"/>
<stop offset="0.39" stop-color="#C3A250"/>
<stop offset="0.51" stop-color="#DECA84"/>
<stop offset="0.61" stop-color="#EEE2A4"/>
<stop offset="0.67" stop-color="#F5ECB1"/>
<stop offset="0.68" stop-color="#EEE2A4"/>
<stop offset="0.76" stop-color="#D9C179"/>
<stop offset="0.82" stop-color="#C8A757"/>
<stop offset="0.89" stop-color="#BB953F"/>
<stop offset="0.95" stop-color="#B48931"/>
<stop offset="1" stop-color="#B2862C"/>
</linearGradient>
<linearGradient id="paint10_linear_639_1317" x1="1750.64" y1="881.494" x2="1750.17" y2="882.368" gradientUnits="userSpaceOnUse">
<stop stop-color="#F5EAB0"/>
<stop offset="0.11" stop-color="#DAC37C"/>
<stop offset="0.29" stop-color="#AE8326"/>
<stop offset="0.39" stop-color="#C3A250"/>
<stop offset="0.51" stop-color="#DECA84"/>
<stop offset="0.61" stop-color="#EEE2A4"/>
<stop offset="0.67" stop-color="#F5ECB1"/>
<stop offset="0.68" stop-color="#EEE2A4"/>
<stop offset="0.76" stop-color="#D9C179"/>
<stop offset="0.82" stop-color="#C8A757"/>
<stop offset="0.89" stop-color="#BB953F"/>
<stop offset="0.95" stop-color="#B48931"/>
<stop offset="1" stop-color="#B2862C"/>
</linearGradient>
<linearGradient id="paint11_linear_639_1317" x1="1662.38" y1="918.153" x2="1661.45" y2="919.914" gradientUnits="userSpaceOnUse">
<stop stop-color="#F5EAB0"/>
<stop offset="0.11" stop-color="#DAC37C"/>
<stop offset="0.29" stop-color="#AE8326"/>
<stop offset="0.39" stop-color="#C3A250"/>
<stop offset="0.51" stop-color="#DECA84"/>
<stop offset="0.61" stop-color="#EEE2A4"/>
<stop offset="0.67" stop-color="#F5ECB1"/>
<stop offset="0.68" stop-color="#EEE2A4"/>
<stop offset="0.76" stop-color="#D9C179"/>
<stop offset="0.82" stop-color="#C8A757"/>
<stop offset="0.89" stop-color="#BB953F"/>
<stop offset="0.95" stop-color="#B48931"/>
<stop offset="1" stop-color="#B2862C"/>
</linearGradient>
<linearGradient id="paint12_linear_639_1317" x1="1847.17" y1="921.536" x2="1819.57" y2="973.649" gradientUnits="userSpaceOnUse">
<stop stop-color="#F5EAB0"/>
<stop offset="0.11" stop-color="#DAC37C"/>
<stop offset="0.29" stop-color="#AE8326"/>
<stop offset="0.39" stop-color="#C3A250"/>
<stop offset="0.51" stop-color="#DECA84"/>
<stop offset="0.61" stop-color="#EEE2A4"/>
<stop offset="0.67" stop-color="#F5ECB1"/>
<stop offset="0.68" stop-color="#EEE2A4"/>
<stop offset="0.76" stop-color="#D9C179"/>
<stop offset="0.82" stop-color="#C8A757"/>
<stop offset="0.89" stop-color="#BB953F"/>
<stop offset="0.95" stop-color="#B48931"/>
<stop offset="1" stop-color="#B2862C"/>
</linearGradient>
<linearGradient id="paint13_linear_639_1317" x1="1728.53" y1="886.75" x2="1728.34" y2="887.11" gradientUnits="userSpaceOnUse">
<stop stop-color="#F5EAB0"/>
<stop offset="0.11" stop-color="#DAC37C"/>
<stop offset="0.29" stop-color="#AE8326"/>
<stop offset="0.39" stop-color="#C3A250"/>
<stop offset="0.51" stop-color="#DECA84"/>
<stop offset="0.61" stop-color="#EEE2A4"/>
<stop offset="0.67" stop-color="#F5ECB1"/>
<stop offset="0.68" stop-color="#EEE2A4"/>
<stop offset="0.76" stop-color="#D9C179"/>
<stop offset="0.82" stop-color="#C8A757"/>
<stop offset="0.89" stop-color="#BB953F"/>
<stop offset="0.95" stop-color="#B48931"/>
<stop offset="1" stop-color="#B2862C"/>
</linearGradient>
<linearGradient id="paint14_linear_639_1317" x1="1676.44" y1="937.557" x2="1664.76" y2="959.624" gradientUnits="userSpaceOnUse">
<stop stop-color="#F5EAB0"/>
<stop offset="0.11" stop-color="#DAC37C"/>
<stop offset="0.29" stop-color="#AE8326"/>
<stop offset="0.39" stop-color="#C3A250"/>
<stop offset="0.51" stop-color="#DECA84"/>
<stop offset="0.61" stop-color="#EEE2A4"/>
<stop offset="0.67" stop-color="#F5ECB1"/>
<stop offset="0.68" stop-color="#EEE2A4"/>
<stop offset="0.76" stop-color="#D9C179"/>
<stop offset="0.82" stop-color="#C8A757"/>
<stop offset="0.89" stop-color="#BB953F"/>
<stop offset="0.95" stop-color="#B48931"/>
<stop offset="1" stop-color="#B2862C"/>
</linearGradient>
<linearGradient id="paint15_linear_639_1317" x1="1679.11" y1="982.303" x2="1676.5" y2="987.243" gradientUnits="userSpaceOnUse">
<stop stop-color="#F5EAB0"/>
<stop offset="0.11" stop-color="#DAC37C"/>
<stop offset="0.29" stop-color="#AE8326"/>
<stop offset="0.39" stop-color="#C3A250"/>
<stop offset="0.51" stop-color="#DECA84"/>
<stop offset="0.61" stop-color="#EEE2A4"/>
<stop offset="0.67" stop-color="#F5ECB1"/>
<stop offset="0.68" stop-color="#EEE2A4"/>
<stop offset="0.76" stop-color="#D9C179"/>
<stop offset="0.82" stop-color="#C8A757"/>
<stop offset="0.89" stop-color="#BB953F"/>
<stop offset="0.95" stop-color="#B48931"/>
<stop offset="1" stop-color="#B2862C"/>
</linearGradient>
<linearGradient id="paint16_linear_639_1317" x1="1958.4" y1="934.069" x2="1771.84" y2="1286.43" gradientUnits="userSpaceOnUse">
<stop stop-color="#F5EAB0"/>
<stop offset="0.11" stop-color="#DAC37C"/>
<stop offset="0.29" stop-color="#AE8326"/>
<stop offset="0.39" stop-color="#C3A250"/>
<stop offset="0.51" stop-color="#DECA84"/>
<stop offset="0.61" stop-color="#EEE2A4"/>
<stop offset="0.67" stop-color="#F5ECB1"/>
<stop offset="0.68" stop-color="#EEE2A4"/>
<stop offset="0.76" stop-color="#D9C179"/>
<stop offset="0.82" stop-color="#C8A757"/>
<stop offset="0.89" stop-color="#BB953F"/>
<stop offset="0.95" stop-color="#B48931"/>
<stop offset="1" stop-color="#B2862C"/>
</linearGradient>
<linearGradient id="paint17_linear_639_1317" x1="1798.79" y1="953.585" x2="1796.11" y2="958.649" gradientUnits="userSpaceOnUse">
<stop stop-color="#F5EAB0"/>
<stop offset="0.11" stop-color="#DAC37C"/>
<stop offset="0.29" stop-color="#AE8326"/>
<stop offset="0.39" stop-color="#C3A250"/>
<stop offset="0.51" stop-color="#DECA84"/>
<stop offset="0.61" stop-color="#EEE2A4"/>
<stop offset="0.67" stop-color="#F5ECB1"/>
<stop offset="0.68" stop-color="#EEE2A4"/>
<stop offset="0.76" stop-color="#D9C179"/>
<stop offset="0.82" stop-color="#C8A757"/>
<stop offset="0.89" stop-color="#BB953F"/>
<stop offset="0.95" stop-color="#B48931"/>
<stop offset="1" stop-color="#B2862C"/>
</linearGradient>
<linearGradient id="paint18_linear_639_1317" x1="1807.35" y1="914.144" x2="1807.01" y2="914.798" gradientUnits="userSpaceOnUse">
<stop stop-color="#F5EAB0"/>
<stop offset="0.11" stop-color="#DAC37C"/>
<stop offset="0.29" stop-color="#AE8326"/>
<stop offset="0.39" stop-color="#C3A250"/>
<stop offset="0.51" stop-color="#DECA84"/>
<stop offset="0.61" stop-color="#EEE2A4"/>
<stop offset="0.67" stop-color="#F5ECB1"/>
<stop offset="0.68" stop-color="#EEE2A4"/>
<stop offset="0.76" stop-color="#D9C179"/>
<stop offset="0.82" stop-color="#C8A757"/>
<stop offset="0.89" stop-color="#BB953F"/>
<stop offset="0.95" stop-color="#B48931"/>
<stop offset="1" stop-color="#B2862C"/>
</linearGradient>
<linearGradient id="paint19_linear_639_1317" x1="1811.73" y1="926.146" x2="1810.71" y2="928.07" gradientUnits="userSpaceOnUse">
<stop stop-color="#F5EAB0"/>
<stop offset="0.11" stop-color="#DAC37C"/>
<stop offset="0.29" stop-color="#AE8326"/>
<stop offset="0.39" stop-color="#C3A250"/>
<stop offset="0.51" stop-color="#DECA84"/>
<stop offset="0.61" stop-color="#EEE2A4"/>
<stop offset="0.67" stop-color="#F5ECB1"/>
<stop offset="0.68" stop-color="#EEE2A4"/>
<stop offset="0.76" stop-color="#D9C179"/>
<stop offset="0.82" stop-color="#C8A757"/>
<stop offset="0.89" stop-color="#BB953F"/>
<stop offset="0.95" stop-color="#B48931"/>
<stop offset="1" stop-color="#B2862C"/>
</linearGradient>
<linearGradient id="paint20_linear_639_1317" x1="1803.33" y1="962.854" x2="1797.33" y2="974.19" gradientUnits="userSpaceOnUse">
<stop stop-color="#F5EAB0"/>
<stop offset="0.11" stop-color="#DAC37C"/>
<stop offset="0.29" stop-color="#AE8326"/>
<stop offset="0.39" stop-color="#C3A250"/>
<stop offset="0.51" stop-color="#DECA84"/>
<stop offset="0.61" stop-color="#EEE2A4"/>
<stop offset="0.67" stop-color="#F5ECB1"/>
<stop offset="0.68" stop-color="#EEE2A4"/>
<stop offset="0.76" stop-color="#D9C179"/>
<stop offset="0.82" stop-color="#C8A757"/>
<stop offset="0.89" stop-color="#BB953F"/>
<stop offset="0.95" stop-color="#B48931"/>
<stop offset="1" stop-color="#B2862C"/>
</linearGradient>
<linearGradient id="paint21_linear_639_1317" x1="1680.73" y1="917.028" x2="1676.63" y2="924.774" gradientUnits="userSpaceOnUse">
<stop stop-color="#F5EAB0"/>
<stop offset="0.11" stop-color="#DAC37C"/>
<stop offset="0.29" stop-color="#AE8326"/>
<stop offset="0.39" stop-color="#C3A250"/>
<stop offset="0.51" stop-color="#DECA84"/>
<stop offset="0.61" stop-color="#EEE2A4"/>
<stop offset="0.67" stop-color="#F5ECB1"/>
<stop offset="0.68" stop-color="#EEE2A4"/>
<stop offset="0.76" stop-color="#D9C179"/>
<stop offset="0.82" stop-color="#C8A757"/>
<stop offset="0.89" stop-color="#BB953F"/>
<stop offset="0.95" stop-color="#B48931"/>
<stop offset="1" stop-color="#B2862C"/>
</linearGradient>
<linearGradient id="paint22_linear_639_1317" x1="-242.013" y1="671.375" x2="102.909" y2="864.869" gradientUnits="userSpaceOnUse">
<stop stop-color="#F5EAB0"/>
<stop offset="0.11" stop-color="#DAC37C"/>
<stop offset="0.29" stop-color="#AE8326"/>
<stop offset="0.39" stop-color="#C3A250"/>
<stop offset="0.51" stop-color="#DECA84"/>
<stop offset="0.61" stop-color="#EEE2A4"/>
<stop offset="0.67" stop-color="#F5ECB1"/>
<stop offset="0.68" stop-color="#EEE2A4"/>
<stop offset="0.76" stop-color="#D9C179"/>
<stop offset="0.82" stop-color="#C8A757"/>
<stop offset="0.89" stop-color="#BB953F"/>
<stop offset="0.95" stop-color="#B48931"/>
<stop offset="1" stop-color="#B2862C"/>
</linearGradient>
<clipPath id="clip0_639_1317">
<rect width="1920" height="1459" fill="white"/>
</clipPath>
</defs>
</svg>
