<svg width="1920" height="946" viewBox="0 0 1920 946" fill="none" xmlns="http://www.w3.org/2000/svg">
<g clip-path="url(#clip0_639_1303)">
<rect width="1920" height="946" fill="#FFFCF9"/>
<ellipse cx="137.5" cy="802" rx="692.5" ry="536" fill="url(#paint0_radial_639_1303)"/>
<path opacity="0.2" d="M27.1626 29.971C29.9291 41.2276 24.466 41.8743 13.8219 53.2952C9.96236 57.436 9.52589 59.5764 7.29862 61.8149C-9.94229 79.1379 -20.9108 103.971 -21.6979 108.504C-21.9394 109.891 -27.5081 115.121 -28.7841 122.758C-29.7285 128.408 -42.9843 147.84 -43.8405 149.385C-50.0441 160.555 -46.6568 164.097 -48.8697 168.716C-50.0873 171.255 -50.5639 171.16 -50.6339 171.963C-50.9516 175.577 -54.759 178.632 -50.2783 192.751C-48.8621 197.216 -51.6471 198.592 -35.585 213.871C-24.6749 224.249 -28.8939 241.804 -15.0395 249.047C-13.0415 250.092 -6.01996 254.917 -5.25602 256.411C-3.50346 259.843 -2.04654 260.652 2.80246 264.698C-14.5851 288.162 -16.8497 339.251 -21.9769 354.964C-25.1205 364.589 -29.6131 384.493 -30.4138 386.781C-38.96 411.209 -53.7912 440.886 -59.3645 448.593C-93.2733 495.485 -149.542 548.345 -161.338 555.503C-170.927 561.32 -199.153 587.806 -204.872 589.102C-205.916 589.339 -207.235 590.7 -206.84 591.134C-206.811 591.167 -203.895 602.881 -203.884 603.081C-203.804 604.52 -203.389 605.474 -202.698 605.824C-197.253 608.568 -126.747 552.788 -93.3509 512.975C-63.2158 477.049 -47.3519 464.351 -37.0597 443.559C-30.957 431.231 -27.066 420.448 -25.9786 418.553C1.19675 371.292 -8.60158 302.364 13.7069 272.29C15.1977 270.282 15.4794 270.143 16.5367 270.919C19.2351 272.905 25.5393 282.43 32.9722 285.949C36.5047 287.622 48.6642 293.909 50.8042 298.531C57.9267 313.929 61.2296 311.257 63.8058 319.004C65.4197 323.855 65.8402 325.254 68.9716 326.185C73.1667 327.433 72.6001 325.702 74.4119 327.69C76.2845 329.744 78.6197 329.211 82.0781 336.315C83.3617 338.954 91.8488 335.558 93.4076 334.655C103.942 328.557 101.943 328.153 113.04 317.863C123.06 308.571 133.202 305.767 138.116 294.218C138.123 294.2 145.299 280.369 145.704 279.717C150.201 272.487 148.105 270.658 169.067 250.469C178.485 241.397 181.662 228.777 180.326 221.753C179.396 216.865 179.276 212.386 177.74 208.82C176.735 206.484 174.793 199.367 175.08 190.83C175.276 185.027 181.771 177.846 173.153 164.539C170.799 160.903 173.874 140.733 169.285 134.9C165.562 130.166 163.852 126.648 164.069 120.683C164.161 118.16 163.031 99.9081 156.071 89.2866C153.92 86.0068 151.351 85.4353 148.255 76.27C141.034 54.8996 120.175 66.2345 113.903 65.9451C109.366 65.7347 108.002 64.3669 105.939 64.166C103.848 63.9636 99.1434 57.8294 98.5196 56.8746C94.2572 50.3528 90.6577 50.9276 85.1549 47.7076C82.6074 46.2157 77.0176 42.2152 76.9387 41.8251C76.9093 41.6828 77.0694 41.3965 77.2949 41.1901C79.4011 39.2473 68.3683 39.1838 58.0599 28.396C53.7683 23.9044 44.7314 19.4289 39.1868 17.2964C34.6901 15.5682 24.4572 18.9615 27.1645 29.9723L27.1626 29.971ZM43.504 22.3768C38.3036 37.0005 41.3274 81.4451 42.7675 91.0882C44.8194 104.821 58.8929 121.698 60.7708 139.397C61.9087 150.141 61.432 152.079 58.652 140.732C53.5668 119.979 48.6163 114.984 44.0294 102.408C23.2887 45.5474 39.0756 22.5962 39.9123 20.6868C40.2033 20.0222 40.2299 19.6774 41.7135 20.2805C43.5618 21.0322 43.8593 21.3787 43.5046 22.38L43.504 22.3768ZM55.8876 45.7445C54.6521 47.6497 53.5005 49.3404 53.3248 49.5019C52.6548 50.1198 52.5628 51.9686 50.1989 55.5298C46.929 60.4605 45.7729 67.1345 43.1138 75.1614C43.0402 74.4373 42.7314 71.4479 42.6961 70.7216C42.3939 64.2451 40.7903 26.7837 45.6844 22.2711C45.7199 22.2391 52.0692 24.5853 56.9104 29.6475C59.5855 32.4433 61.4959 33.7246 62.9685 34.8948C66.9323 38.0436 62.9352 34.8725 55.8843 45.7451L55.8876 45.7445ZM67.808 37.7443C64.6823 41.4215 57.4332 65.5254 57.1693 78.0464C56.5881 105.574 71.3044 108.833 62.8287 149.746C61.7146 155.129 63.6297 144.79 62.533 141.896C62.3734 141.474 61.6537 133.205 61 132.032C60.0951 130.41 61.7534 131.336 47.6332 101.446C45.2091 96.3133 44.0619 90.2932 43.3445 84.6885C42.9767 81.813 48.1379 61.039 51.6975 56.1318C54.7384 51.9378 54.4324 47.6145 65.9293 36.8942C66.2629 37.0723 66.9538 37.3803 67.81 37.7457L67.808 37.7443ZM72.1022 50.1438C71.9767 51.1448 71.6678 52.8739 71.415 53.9852C68.5503 66.5934 73.9235 98.359 74.3561 98.8207C74.7867 99.2812 80.0782 125.777 68.1279 148.387C66.3199 151.807 64.7233 155.981 64.0644 156.611C63.6814 156.978 63.4357 155.118 63.7305 154.096C64.2368 152.343 65.491 143.286 66.3072 141C67.6675 137.193 68.39 121.16 63.8371 105.997C52.1605 67.0856 68.0301 43.1718 68.9526 38.2242C71.5353 39.299 74.7225 40.5572 74.7252 40.5618C75.1859 41.0535 72.5412 46.6107 72.1003 50.1425L72.1022 50.1438ZM90.0303 51.9476C84.9756 64.1169 84.4679 66.8762 84.0331 67.2774C83.3147 67.9383 79.6082 83.1496 79.5972 83.1618C78.9964 83.8286 78.1095 99.612 77.9722 100.58C76.9087 108.013 78.9183 116.731 75.1403 94.7876C68.459 55.9853 75.9626 42.7574 76.3603 43.1233C79.4356 45.9466 83.4179 49.4703 90.0303 51.9476ZM101.899 63.8584C92.5542 69.9249 86.7468 80.0828 86.6661 80.1572C82.3368 84.1629 78.668 97.6703 81.2029 83.7348C82.925 74.2735 90.0672 53.8491 91.7748 53.1766C93.4324 52.5238 96.4428 57.5069 101.899 63.8552L101.899 63.8584ZM116.059 75.1682C115.012 77.2408 111.589 80.43 109.893 83.2324C95.044 107.783 102.632 97.0847 93.5509 110.76C89.1458 117.395 91.97 116.168 90.0722 117.986C83.5913 124.188 76.2088 146.209 71.7003 153.96C71.0533 155.073 70.2818 155.411 69.9028 156.491C69.6063 157.334 67.2699 160.367 66.3692 161.076C66.088 161.298 65.6534 161.847 65.469 162.318C65.1136 162.19 64.8377 162.217 64.6381 162.402C64.1761 162.827 63.8503 161.159 64.5952 160.471C65.8021 159.359 64.4701 158.477 69.8079 148.781C73.1003 142.8 75.6841 133.429 77.1486 127.081C82.2976 104.746 72.4429 94.4644 97.8524 69.2964C104.159 63.0497 103.233 65.1614 106.438 65.8124C107.025 65.9316 114.203 69.9467 124.162 65.7232C128.322 63.958 117.234 72.8575 116.064 75.174L116.059 75.1682ZM94.5951 112.525C94.4939 112.418 94.7779 111.883 94.8929 112.007C95.1831 112.318 94.6932 112.632 94.5951 112.525ZM146.163 79.4494C111.208 89.4423 94.26 115.026 95.5556 111.028C95.7757 110.346 99.5298 104.796 100.07 103.526C105.167 91.5771 114.824 78.3984 129.25 64.7702C136.896 64.4494 141.355 67.2562 144.228 72.195C145.745 74.8061 147.479 78.3458 147.464 78.8044C147.46 78.9549 146.873 79.2459 146.159 79.45L146.163 79.4494ZM151.957 86.3415C149.871 86.3516 144.801 87.5786 134.077 92.5679C112.411 102.647 101.621 117.153 87.1965 136.027C81.7775 143.118 75.4373 150.295 76.4482 148.193C86.1619 128.005 91.2083 103.523 142.036 82.5586C148.413 79.9288 148.039 79.9636 148.777 81.9257C149.188 83.0172 150.422 84.4634 151.955 86.3401L151.957 86.3415ZM154.071 89.0248C152.033 89.5992 147.29 92.2802 143.608 94.0967C126.354 102.596 117.189 112.556 105.161 127.607C97.7647 136.863 81.554 154.087 70.7886 159.303C81.2399 144.164 83.2574 145.107 93.6571 129.931C108.426 108.377 135.04 92.2047 152.545 87.3703C152.612 87.3507 152.675 87.3286 152.734 87.3038C153.168 87.8477 153.617 88.4207 154.073 89.0293L154.071 89.0248ZM69.1097 162.262C69.8549 162.857 72.5701 161.878 75.5531 161.74C79.0334 161.576 82.324 161.172 83.9983 160.697C87.1595 159.805 89.8216 158.863 90.2099 158.506C90.7836 157.977 91.9356 158.281 90.114 159.006C89.0668 159.422 82.2266 164.121 77.6845 166.696C75.3766 168.005 72.0769 170.685 71.6925 170.473C71.512 170.375 71.3856 170.179 71.2274 170.335C71.0753 170.326 70.1711 166.699 68.6357 165.013C67.8311 164.13 67.1487 163.462 66.5784 163.003C67.4367 162.611 68.4872 161.762 69.111 162.26L69.1097 162.262ZM156.608 92.797C153.571 94.0426 144.275 100.404 133.372 111.331C119.637 125.094 114.616 144.091 102.697 150.525C95.0784 154.638 89.8808 157.983 81.2932 159.454C63.7038 162.467 76.8215 161.636 97.9475 138.736C106.837 129.1 116.041 114.974 128.799 105.143C139.557 96.8549 152.336 92.1693 154.732 89.9268C155.366 90.8158 156.002 91.7732 156.608 92.797ZM160.808 106.168C151.642 107.15 120.857 132.97 118.578 134.985C124.675 122.156 140.304 106.978 151.609 98.3489C154.5 96.1411 156.265 94.5814 157.093 93.6422C158.987 97.0455 160.526 101.178 160.81 106.169L160.808 106.168ZM163.729 132.704C162.323 132.831 135.013 131.681 113.393 144.83C112.501 145.373 112.141 144.578 112.345 144.585C112.456 144.589 112.569 144.411 112.597 144.187C113.011 140.869 142.319 114.95 158.384 108.888C161.447 107.732 161.108 106.795 161.128 110.238C161.17 118.29 162.15 111.883 162.296 122.168C162.417 130.662 167.287 132.386 163.732 132.703L163.729 132.704ZM168.874 137.975C156.173 140.261 167.182 140.827 119.517 148.627C108.122 150.491 95.1201 156.375 103.209 152.203C113.725 146.776 117.926 143.509 129.357 139.469C146.124 133.542 161.077 134.849 164.12 133.913C167.031 133.018 166.51 134.62 167.834 136.034C168.343 136.58 168.665 137.459 168.878 137.974L168.874 137.975ZM153.979 153.047C152.021 153.599 146.752 155.895 144.588 156.612C129.88 161.476 134.298 161.793 126.38 161.495C101.121 160.535 78.828 171.858 75.6612 175.05C74.3839 174.197 73.1336 172.821 73.1567 172.215C73.1912 171.329 81.6936 166.423 91.9001 160.126C101.184 154.397 113.507 151.312 124.336 149.597C169.958 142.371 168.794 136.596 169.824 141.66C170.077 142.908 170.529 150.104 170.412 151.016C170.137 153.144 160.432 151.228 153.982 153.051L153.979 153.047ZM111.855 314.796C111.534 310.22 108.263 303.666 104.867 298.799C105.164 296.786 103.112 290.75 99.843 281.618C95.9809 270.829 94.3538 268.42 94.0783 246.11C93.7123 216.177 82.7581 187.132 88.0523 196.437C90.2805 200.351 97.699 210.994 100.59 220.747C107.905 245.421 92.4226 260.237 116.289 312.35C111.705 316.838 111.985 316.676 111.853 314.795L111.855 314.796ZM86.0694 185.341C86.9322 184.269 106.804 193.78 114.077 198.745C145.241 220.015 159.068 258.505 154.772 262.469C154.094 263.095 153.482 263.546 153.413 263.472C152.634 262.639 155.818 260.03 147.78 251.383C140.711 243.779 138.035 246.401 135.162 237.773C129.071 219.475 99.1259 202.61 92.6634 195.249C89.3671 191.495 90.0667 191.739 87.4517 188.434C85.8632 186.425 85.6231 185.891 86.0674 185.34L86.0694 185.341ZM131.994 273.375C130.741 277.941 124.34 287.476 122.78 294.53C121.322 301.123 121.114 306.224 121.367 308.501C120.926 308.112 120.457 306.476 120.007 303.719C118.124 292.16 122.417 273.263 122.814 266.459C125.52 220.202 105.566 220.69 91.5948 198.502C88.164 193.051 88.8835 193.701 91.4593 196.612C94.8685 200.464 121.087 217.255 129.08 229.233C133.678 236.124 137.594 252.964 131.991 273.376L131.994 273.375ZM115.735 307.482C114.707 305.337 113.285 302.248 112.578 300.618C99.5815 270.676 105.856 239.12 103.883 227.247C102.502 218.931 99.1766 212.327 97.6285 208.995C113.093 224.868 126.344 234.406 119.746 276.187C118.476 284.221 116.556 299.967 119.257 308.316C119.544 309.202 119.494 309.612 119.022 310.251C117.861 311.816 117.78 311.747 115.734 307.484L115.735 307.482ZM102.489 295.694C100.886 293.812 99.4121 292.53 98.3889 292.27C97.4653 292.036 97.4489 292.014 97.2359 290.778C94.9959 277.784 78.6773 247.807 81.1485 227.283C82.4317 216.612 85.8424 209.742 84.8144 199.236C82.8507 179.162 91.0438 225.848 91.8577 233.431C92.9885 243.969 91.8689 259.842 94.6627 271.558C94.6754 271.611 99.7168 288.037 102.489 295.694ZM89.3982 278.065C82.855 285.729 78.8714 297.124 78.1481 301.575C76.2641 298.551 73.9832 294.382 71.4248 287.146C69.1134 280.608 67.8831 285.102 68.2444 259.898C68.395 249.36 66.1106 246.292 66.2093 240.613C66.3096 234.673 66.2232 225.167 67.6696 219.956C70.3206 210.412 68.675 210.674 71.706 202.137C76.6199 188.298 74.0252 186.039 74.6271 184.316C75.1205 182.908 74.4104 179.037 74.8051 178.221C74.9624 177.897 74.9462 177.222 74.7699 176.719C74.5936 176.217 74.4995 175.761 74.5602 175.704C75.1281 175.179 82.242 183.098 82.8851 195.675C83.8655 214.858 83.2661 205.04 79.6831 226.14C78.7979 231.35 79.9266 247.291 85.8021 262.261C91.7166 277.329 91.1176 276.053 89.397 278.067L89.3982 278.065ZM80.7138 180.173C81.3259 180.344 82.1005 181.751 81.7548 182.07C81.4505 182.352 79.6448 179.944 79.3547 178.866C78.9911 177.522 79.0214 177.595 80.5217 177.691C81.7503 177.769 81.7639 177.999 80.567 178.474C79.6961 178.821 79.7907 179.916 80.7138 180.173ZM175.653 178.647C166.179 170.452 161.314 169.47 151.44 166.053C137.203 161.128 133.1 162.642 136.332 161.495C154.274 155.134 154.109 153.53 166.476 153.853C170.119 153.949 170.399 152.349 170.253 155.419C169.621 168.626 176.115 167.24 175.657 178.646L175.653 178.647ZM173.56 188.401C173.485 188.471 172.681 187.731 171.774 186.76C169.815 184.662 168.804 184.085 163.129 181.812C147.398 175.516 134.947 182.794 122.281 179.772C116.795 178.462 82.1068 172.221 79.0614 176.434C78.4267 177.312 78.6806 176.827 76.7495 175.682C79.2157 174.78 83.9306 171.425 86.4526 170.63C86.7852 170.526 87.9428 169.999 89.0257 169.462C101.334 163.341 130.938 160.866 144.093 165.294C154.756 168.884 166.518 171.587 174.23 179.783C175.486 181.117 176.032 181.345 174.882 183.969C174.384 185.106 173.751 188.225 173.561 188.399L173.56 188.401ZM173.252 201.425C172.976 201.169 169.643 199.88 166.988 199.002C159.69 196.594 144.372 198.137 130.111 193.628C121.605 190.941 107.409 180.914 88.0125 178.861C85.9023 178.637 84.0717 178.346 83.9488 178.217C83.4411 177.685 82.553 179.231 82.2638 177.733C82.1232 177.003 87.3095 176.674 92.5293 177.078C116.18 178.913 120.29 183.186 138.308 181.522C151.516 180.302 154.988 180.565 162.319 183.352C169.172 185.956 168.416 185.678 173.197 190.797C173.32 191.811 173.644 194.049 173.483 195.052C173.152 197.12 174.289 202.388 173.253 201.423L173.252 201.425ZM178.535 229.124C178.143 229.486 178.421 229.151 177.348 226.476C168.399 204.147 142.686 199.203 144.514 198.483C145.297 198.174 158.405 199.2 163.907 199.999C165.995 200.303 169.632 201.61 171.927 202.883C174.62 204.378 174.458 203.329 175.049 205.827C175.72 208.665 176.752 210.816 176.966 212.313C177.04 212.837 178.482 218.717 178.365 220.611C178.365 220.641 178.988 228.704 178.538 229.12L178.535 229.124ZM162.374 251.738C162.28 250.273 162.222 248.132 162.245 246.984C162.245 246.959 161.627 234.869 155.902 225.056C153.653 221.198 153.71 220.026 151.107 216.796C150.658 216.239 149.467 213.584 148.707 212.783C147.845 211.876 144.597 206.567 139.656 200.833C136.686 197.389 135.247 196.771 146.143 201.082C157.668 205.644 159.46 208.179 162.479 210.041C164.201 211.104 172.614 218.75 174.483 223.799C175.26 225.896 177.089 230.408 177.475 231.177C178.542 233.306 174.895 239.97 174.732 240.121C173.677 241.095 174.749 242.299 169.669 247.365C159.857 257.155 162.668 256.33 162.374 251.738ZM157.666 259.83C157.225 259.706 155.79 243.114 140.724 222.632C133.672 213.046 119.673 198.963 108.403 193.355C105.45 191.886 92.8252 184.838 85.7005 182.959C84.0365 182.52 83.0749 181.668 83.1062 180.66C83.1212 180.218 95.7306 179.327 116.679 189.45C118.308 190.237 127.791 194.773 132.705 196.571C134.485 197.221 142.222 205.824 144.89 210.118C156.551 228.887 159.899 229.502 160.544 255.659C160.584 257.323 157.905 259.895 157.665 259.827L157.666 259.83ZM136.161 294.02C135.956 293.802 139.188 286.01 139.342 281.464C139.419 279.164 142.617 266.475 141.352 259.983C141.202 259.205 140.489 249.705 139.171 248.214C138.978 247.996 138.873 246.598 138.842 246.276C143.586 249.302 144.763 249.103 150.042 256.513C151.217 258.162 152.511 261.676 152.187 262.338C151.649 263.44 153.023 264.204 151.677 265.918C149.692 268.45 139.518 287.973 139.505 287.984C138.912 288.52 139.704 288.203 138.115 290.667C136.462 293.231 136.486 294.368 136.159 294.019L136.161 294.02ZM122.921 301.689C123.116 295.137 129.241 282.073 132.365 276.339C133.967 273.399 135.52 265.152 136.12 260.92C137.163 253.552 135.141 242.687 135.777 243.348C136.162 243.742 139.003 251.181 139.253 255.394C139.444 258.645 141.214 264.523 138.525 276.855C137.68 280.734 136.824 288.704 134.162 293.499C133.14 295.338 134.141 295.234 132.903 297.57C130.638 301.847 133.079 300.03 128.682 303.764C126.623 305.513 124.045 307.325 122.397 308.213C122.63 306.915 122.831 304.788 122.923 301.687L122.921 301.689ZM94.6505 330.786C94.7938 330.516 94.9848 329.84 95.0655 329.635C95.3388 328.942 98.8871 323.505 99.3009 313.115C99.6274 304.93 96.9022 293.065 98.4289 293.803C99.3205 294.234 102.247 297.504 104.011 300.038C110.251 309.007 110.117 315.998 110.799 316.729C111.626 317.616 105.737 322.137 103.81 324.751C102.04 327.148 92.2706 335.273 94.6513 330.789L94.6505 330.786ZM78.1022 326.297C80.0411 326.426 80.3875 326.356 81.1311 325.671C81.7036 325.144 82.0107 324.565 82.0976 323.851C82.3376 321.886 84.0916 320.703 83.6617 315.062C83.1996 308.994 81.5427 306.834 79.0394 302.976C79.187 302.653 79.281 302.284 79.3027 302.112C80.0484 296.463 90.1687 278.326 91.4618 278.079C91.9224 277.991 93.572 284.313 94.2357 286C96.8637 292.691 96.9601 304.401 97.4069 307.561C98.6004 316.002 95.487 323.396 94.7212 326.334C94.214 328.28 94.0703 327.453 93.4298 329.357C91.7834 334.253 89.7551 334.385 88.3521 334.809C85.0486 335.805 83.8054 336.146 82.1059 332.906C79.4306 327.806 71.6145 325.861 78.1022 326.297ZM55.8437 266.39C54.7713 210.565 68.2766 208.802 72.4069 181.664C73.7801 172.645 73.2825 191.75 72.9328 192.613C65.9882 209.781 62.2512 233.14 66.0081 251.397C67.4686 258.494 66.1765 271.246 66.8303 277.081C67.6565 284.446 68.0086 281.97 72.7508 294C76.4707 303.439 79.6818 305.008 81.1765 310.025C81.9023 312.462 82.3742 317.498 82.0545 319.404C81.6929 321.572 80.5618 324.35 79.9256 324.634C78.9163 325.087 78.0772 323.866 74.2002 324.623C71.6051 325.13 68.4965 324.652 67.5038 323.593C67.2124 323.284 66.6621 322.016 66.2822 320.78C64.5363 315.119 64.0501 314.488 60.532 310.786C59.9393 310.161 59.3947 309.541 58.8917 308.926C59.6085 303.105 56.091 279.263 55.843 266.387L55.8437 266.39ZM38.4542 277.172C43.8408 267.491 42.3864 235.317 44.6505 229.533C44.7696 229.228 44.7936 228.895 44.7008 228.797C44.4544 228.535 45.1669 228.18 45.0507 227.845C44.7872 227.092 45.8183 224.68 45.8029 223.911C45.7235 219.811 56.0779 202.293 56.1061 202.226C57.0287 200.005 69.3535 185.962 70.0227 179.886C70.8475 172.399 75.7149 172.869 62.197 208.766C52.5393 234.411 51.3771 250.314 57.461 302.725C57.5765 303.726 57.6349 305.747 57.7505 307.442C53.8743 302.129 52.7915 297.368 50.2977 294.69C48.0482 292.274 39.5312 287.727 34.5127 284.917C35.9662 283.104 37.8647 278.228 38.4548 277.166L38.4542 277.172ZM27.8337 259.973C35.9306 246.221 33.1684 251.561 40.9213 240.78C42.3415 238.806 41.3972 241.427 40.9703 252.041C40.16 272.122 34.3301 282.539 33.0753 284.113C32.0228 283.508 31.2531 283.038 30.9248 282.763C29.9739 281.972 29.0724 281.289 28.9202 281.246C27.3576 280.808 23.1416 275.36 22.0629 274.146C20.7025 272.613 26.8084 261.72 27.8343 259.976L27.8337 259.973ZM4.26867 264.972C4.51353 264.745 6.50173 265.44 7.19664 265.996C7.62338 266.339 11.9656 267.075 13.5137 268.733C16.0448 271.444 0.543231 274.058 -4.25515 328.065C-7.19878 361.21 -16.3178 396.5 -30.7333 424.361C-31.0687 425.007 -38.5988 441.226 -38.6407 441.382C-40.6308 448.958 -116.964 545.291 -184.359 593.413C-194.575 600.707 -201.521 607.573 -202.552 602.302C-205.478 587.341 -206.958 593.526 -195.74 585.001C-192.323 582.405 -162.534 557.674 -161.417 557.463C-155.662 556.371 -104.687 506.186 -93.8149 492.79C-84.5574 481.383 -84.7612 480.845 -84.0132 480.809C-82.8048 480.749 -80.7803 476.793 -76.2523 472.206C-61.0638 456.818 -60.927 453.381 -55.7145 446.981C-53.1759 443.866 -29.8629 399.026 -25.3959 376.344C-23.7538 368.006 -17.0815 346.833 -16.9858 339.066C-16.9464 335.966 -15.5467 328.292 -15.1467 326.693C-14.5403 324.273 -13.905 317.6 -12.4511 312.106C-12.4454 312.085 -7.92619 293.526 -7.92242 293.503C-7.29799 289.701 1.05117 267.935 4.26604 264.967L4.26867 264.972ZM4.31107 262.172C4.75427 261.763 9.74818 244.327 12.1126 240.629C23.1865 223.304 58.42 194.699 67.3218 171.567C68.6695 168.067 68.8245 167.903 69.6766 169.587C70.1608 170.543 70.5235 171.067 70.7741 171.268C69.9468 173.223 69.4246 177.969 69.0082 178.982C68.3081 180.687 68.9173 180.681 65.9045 185.926C64.7746 187.893 65.3963 187.695 64.3724 188.665C59.0178 193.74 47.8053 212.01 45.0752 220.689C41.2251 232.935 43.3788 235.982 41.3585 237.851C37.6527 241.283 26.5977 256.708 23.4149 264.248C19.783 272.855 20.1695 272.082 19.1658 271.027C18.0674 269.872 14.9277 267.708 14.5363 267.299C13.3973 266.104 4.35539 263.114 4.00774 262.745C3.92736 262.658 4.06292 262.4 4.31035 262.169L4.31107 262.172ZM-9.03708 248.881C-8.36266 248.244 -3.66514 239.366 -2.92793 237.335C2.79078 221.579 15.8122 206.018 21.3537 203.178C24.4142 201.611 25.3399 198.361 29.0209 196.931C41.1538 192.221 58.6827 179.698 65.7934 169.058C67.8798 165.933 67.6503 166.218 67.8973 166.483C68.1744 166.78 67.6372 166.415 65.9304 170.627C59.644 186.14 51.3434 192.252 34.606 212.544C25.8925 223.106 13.8692 229.376 6.3287 250.566C2.80291 260.471 2.76859 260.501 2.90464 262.025C0.263233 261.026 -2.19228 257.897 -3.59819 255.678C-4.81469 253.756 -6.78123 251.745 -8.54196 250.625C-9.54977 249.983 -9.6876 249.495 -9.03579 248.879L-9.03708 248.881ZM-27.2257 222.267C3.05206 214.246 27.4649 197.08 19.148 202.949C1.03475 215.73 -3.55105 239.551 -11.5433 248.92C-17.2022 246.12 -20.0529 244.425 -22.8435 238.016C-23.6682 236.121 -24.3062 235.179 -24.396 233.34C-24.6022 229.1 -27.6622 222.383 -27.2238 222.268L-27.2257 222.267ZM-36.6193 209.728C-35.6927 209.022 -20.6396 213.708 1.24367 208.674C8.23149 207.066 6.88161 207.592 4.9767 208.509C-4.75123 213.196 -9.74264 214.78 -25.05 219.877C-28.9246 221.169 -28.2651 221.562 -29.4216 218.991C-31.0907 215.286 -36.7131 209.797 -36.618 209.726L-36.6193 209.728ZM-40.0624 205.639C-35.5838 204.446 -25.0195 199.163 -18.8217 196.832C-6.75153 192.292 -7.07316 190.008 30.4036 183.328C38.2525 181.929 48.186 175.6 53.7099 171.279C59.0113 167.131 65.3562 165.43 65.3246 166.486C65.3001 167.314 61.8604 171.733 58.8469 174.81C44.2163 189.749 27.55 195.271 25.1651 197.09C24.2455 197.789 16.0764 202.022 11.2803 204.126C8.25277 205.454 -1.33394 207.82 -4.46277 208.012C-20.5907 208.997 -10.4276 210.753 -37.4742 207.777C-38.4406 207.67 -38.4801 207.593 -40.0585 205.641L-40.0624 205.639ZM-43.8234 198.899C-39.7729 197.577 -33.7795 193.235 -24.4973 184.896C-2.26792 164.922 47.26 160.461 62.8544 163.857L64.9413 164.311C61.7317 165.141 57.9344 166.211 53.3246 169.446C21.619 191.693 27.3662 174.442 -30.0416 199.7C-35.7175 202.198 -39.3143 203.57 -41.0278 204.458C-41.5072 203.876 -42.0808 203.189 -42.7752 202.374C-45.3647 199.34 -45.7591 199.528 -43.8253 198.898L-43.8234 198.899ZM-48.8479 173.304C-48.0675 172.584 -31.9679 176.287 -21.8504 175.642C-6.76811 174.681 -13.4825 172.208 -26.367 184.146C-33.4782 190.734 -38.6745 194.543 -42.7473 196.149C-45.4218 197.202 -46.965 198.653 -46.934 196.934C-46.93 196.724 -47.3429 195.517 -47.849 194.251C-52.9315 181.545 -49.2304 173.656 -48.8466 173.302L-48.8479 173.304ZM-35.523 145.429C-25.8052 149.617 -14.7614 160.219 15.234 164.785C13.7829 165.107 4.61719 167.486 3.13202 168.093C-13.1187 174.721 -5.20562 171.02 -15.3015 173.378C-25.5895 175.778 -47.5465 171.473 -47.6509 171.278C-47.7165 171.156 -47.4401 170.429 -47.036 169.659C-44.7129 165.222 -47.9344 163.169 -43.5522 153.099C-38.9841 142.607 -38.4478 144.168 -35.523 145.429ZM-26.7841 122.22C-26.6975 122.141 -26.345 122.337 -26.0009 122.656C-16.0068 131.979 20.6779 122.868 46.806 151.069C25.8161 140.653 21.8076 137.287 0.0354788 138.254C-14.468 138.899 -27.2736 135.837 -29.521 133.429C-30.3131 132.583 -33.3475 133.484 -29.4523 135.436C-15.3222 142.512 -0.494336 138.972 12.3422 139.849C25.1034 140.721 39.1519 148.961 44.4375 151.676C47.7331 153.37 47.2962 153.532 42.943 152.237C23.5184 146.462 2.46106 152.457 -20.4194 143.877C-24.1445 142.48 -33.5032 138.275 -34.0759 137.739C-34.2137 137.611 -34.2064 137.303 -34.0617 137.057C-32.5049 134.438 -32.2344 135.282 -31.5984 133.381C-30.0505 128.767 -27.7701 126.737 -27.6621 125.178C-27.622 124.588 -27.3654 123.797 -27.0922 123.422C-26.3627 122.414 -27.0715 122.485 -26.7853 122.221L-26.7841 122.22ZM-25.3384 119.47C-23.1394 121.823 13.869 121.816 27.8268 131.34C30.0666 132.869 33.0802 136.471 34.7951 136.846C35.5949 137.021 36.1632 137.47 38.1598 139.511C42.0726 143.507 43.6015 142.361 45.7756 145.124C47.1064 146.816 52.0581 152.242 53.8901 155.038C55.0715 156.839 56.8679 160.663 56.8858 161.411C56.8907 161.59 55.4916 161.682 53.7759 161.613C48.8684 161.415 23.4537 161.776 21.949 163.161C21.1446 163.904 8.03117 162.429 4.62666 161.213C4.60844 161.206 -16.2334 155.426 -22.206 150.699C-23.4881 149.684 -34.4537 143.773 -35.822 143.361C-36.9066 143.033 -37.184 142.334 -36.5976 141.418C-34.7308 138.504 -34.2555 139.613 -25.5653 143.553C-0.25608 155.027 20.8345 147.77 41.0046 153.302C53.7906 156.809 55.6542 161.955 57.2289 162.223C57.9037 162.339 57.9199 162.319 57.8698 161.407C57.8203 160.474 55.1178 156.753 55.3547 156.381C55.654 155.912 52.7709 154.999 48.7233 150.824C38.8652 140.649 34.5212 137.684 22.4749 132.917C10.711 128.26 -1.72635 127.103 -1.7575 127.107C-1.98333 127.14 -14.0564 125.966 -20.3828 123.438C-29.5384 119.775 -25.5227 119.28 -25.343 119.473L-25.3384 119.47ZM-10.7337 97.4252C-6.92351 103.235 -2.37092 110.746 13.0075 116.444C25.8585 121.205 31.6057 129.429 31.4765 130.118C31.2741 131.188 34.4372 133.342 33.5857 133.677C32.6078 134.061 31.3734 130.827 24.3797 127.917C15.9102 124.392 6.32356 121.663 -1.00146 121.214C-10.3484 120.642 -25.1684 117.877 -25.1815 117.846C-25.2512 117.696 -24.9556 116.923 -24.5244 116.129C-21.7581 111.038 -21.5302 113.742 -17.5687 103.26C-13.0563 91.323 -13.4995 93.2107 -10.7357 97.4239L-10.7337 97.4252ZM-7.44433 83.1011C-6.88483 82.5851 -4.36847 89.1848 -0.349957 94.2888C6.24831 102.666 18.1017 110.818 18.1899 112.952C18.2345 114.042 19.9278 116.427 21.6067 117.771C26.0971 121.364 22.7964 119.23 14.7307 115.447C-6.96059 105.268 -4.13849 102.326 -12.6522 92.1283C-10.1282 87.1542 -7.82943 83.4575 -7.44371 83.1043L-7.44433 83.1011ZM14.544 54.9458C15.4557 54.1184 14.5273 61.8871 14.5235 61.9096C13.2008 73.0599 14.5187 86.3164 14.5239 87.4605C14.5846 102.558 24.4567 116.777 23.3515 116.7C23.2404 116.693 16.209 107.19 12.411 104.851C7.52963 101.848 0.822294 93.033 0.811178 93.02C-1.09641 90.6419 -4.15351 85.9065 -4.86953 83.3703C-5.2846 81.8912 -6.65642 82.099 -6.32547 81.4806C-5.13979 79.2772 3.80282 68.4603 4.81344 67.3281C13.4605 57.6357 13.9308 55.504 14.5427 54.9477L14.544 54.9458ZM28.0644 43.711C27.3188 47.123 28.2055 48.6075 26.6786 54.8582C22.5634 71.7152 16.3196 87.1983 31.3553 113.307C39.7466 127.877 41.3783 124.828 58.3449 148.104C60.8372 151.525 63.3826 160.716 63.3929 162.276C63.3946 162.358 58.9615 162.292 58.7487 161.434C58.7155 161.306 58.3294 160.334 57.8862 159.274C55.2382 152.943 47.6824 144.992 42.4774 140.479C33.6999 132.866 15.7389 105.395 15.8301 87.0081C15.8571 81.3984 14.8536 74.9556 15.5124 70.1191C15.5162 70.0966 16.7893 55.3993 16.9182 53.0759C23.1933 47.1262 25.907 44.6632 26.9791 42.9138C28.3136 40.7373 28.6593 40.9904 28.0644 43.711ZM29.0526 23.7229C29.6494 21.9016 32.4411 19.3428 34.4662 18.7624C36.3077 18.2324 39.9158 18.5893 39.183 19.4664C37.1156 21.9483 23.8065 50.4304 42.3818 102.546C47.2773 116.281 49.1035 116.583 54.1004 130.548C55.4133 134.219 57.7384 143.151 57.4476 143.417C57.2958 143.555 54.6838 140.216 54.0472 139.069C29.5523 112.848 16.8186 94.244 26.8501 60.7511C28.8213 54.1695 29.7754 39.9035 29.9025 37.9386C30.3883 30.4684 27.3648 28.8678 29.0493 23.7235L29.0526 23.7229Z" fill="url(#paint1_linear_639_1303)"/>
</g>
<defs>
<radialGradient id="paint0_radial_639_1303" cx="0" cy="0" r="1" gradientUnits="userSpaceOnUse" gradientTransform="translate(137.5 802) rotate(90) scale(536 692.5)">
<stop stop-color="#FFE7CC"/>
<stop offset="1" stop-color="#FFFCF9"/>
</radialGradient>
<linearGradient id="paint1_linear_639_1303" x1="-135.319" y1="266.091" x2="68.7084" y2="402.332" gradientUnits="userSpaceOnUse">
<stop stop-color="#F5EAB0"/>
<stop offset="0.11" stop-color="#DAC37C"/>
<stop offset="0.29" stop-color="#AE8326"/>
<stop offset="0.39" stop-color="#C3A250"/>
<stop offset="0.51" stop-color="#DECA84"/>
<stop offset="0.61" stop-color="#EEE2A4"/>
<stop offset="0.67" stop-color="#F5ECB1"/>
<stop offset="0.68" stop-color="#EEE2A4"/>
<stop offset="0.76" stop-color="#D9C179"/>
<stop offset="0.82" stop-color="#C8A757"/>
<stop offset="0.89" stop-color="#BB953F"/>
<stop offset="0.95" stop-color="#B48931"/>
<stop offset="1" stop-color="#B2862C"/>
</linearGradient>
<clipPath id="clip0_639_1303">
<rect width="1920" height="946" fill="white"/>
</clipPath>
</defs>
</svg>
