<svg width="1920" height="191" viewBox="0 0 1920 191" fill="none" xmlns="http://www.w3.org/2000/svg">
<g clip-path="url(#clip0_2088_1504)">
<path d="M-0.000915527 78.0002C613.5 259.5 1434.5 -95.5 1920 78.0002C2405.5 251.5 1920 191 1920 191H-0.000915527C-0.000915527 191 -613.502 -103.5 -0.000915527 78.0002Z" fill="#FFFCF9"/>
<path d="M2006.49 108.637C1990.16 142.212 1973.84 175.787 1957.51 209.363C1928.22 192.598 1899.75 177.842 1869.05 163.829C1533.93 4.72959 1138.09 68.689 768.572 128.333C638.431 147.833 506.996 166.961 373.243 167.184C259.953 167.496 141.821 164.072 28.7385 129.063C-4.68983 118.743 -36.7986 106.115 -68.3062 90.2735C-69.7707 89.5368 -63.8207 74.0554 -50.2263 43.9447C-50.075 43.6477 -49.9237 43.3507 -49.7723 43.0537C-33.4037 14.3566 -24.677 0.280973 -23.3659 0.940577C4.83646 15.1176 32.49 28.5121 61.2987 41.3C157.758 84.4712 264.18 117.186 374.434 123.2C503.625 130.438 634.656 118.105 764.109 98.6664C1133.5 40.9575 1521.51 -54.1344 1904.39 71.5052C1939.34 82.6622 1972.28 94.5684 2006.49 108.637Z" fill="url(#paint0_linear_2088_1504)"/>
<path d="M2006.49 108.637C1990.16 142.212 1973.84 175.787 1957.51 209.363C1928.22 192.598 1899.75 177.842 1869.05 163.829C1533.93 4.72959 1138.09 68.689 768.572 128.333C638.431 147.833 506.996 166.961 373.243 167.184C259.953 167.496 141.821 164.072 28.7385 129.063C-4.68983 118.743 -36.7986 106.115 -68.3062 90.2735C-69.7707 89.5368 -63.8207 74.0554 -50.2263 43.9447C-50.075 43.6477 -49.9237 43.3507 -49.7723 43.0537C-33.4037 14.3566 -24.677 0.280973 -23.3659 0.940577C4.83646 15.1176 32.49 28.5121 61.2987 41.3C157.758 84.4712 264.18 117.186 374.434 123.2C503.625 130.438 634.656 118.105 764.109 98.6664C1133.5 40.9575 1521.51 -54.1344 1904.39 71.5052C1939.34 82.6622 1972.28 94.5684 2006.49 108.637Z" fill="url(#paint1_linear_2088_1504)"/>
</g>
<defs>
<linearGradient id="paint0_linear_2088_1504" x1="-85.0941" y1="-1.48299" x2="1960.6" y2="246.384" gradientUnits="userSpaceOnUse">
<stop stop-color="#603813"/>
<stop offset="0.495192" stop-color="#8A600D"/>
<stop offset="0.817308" stop-color="#A87E09"/>
<stop offset="1" stop-color="#603813"/>
</linearGradient>
<linearGradient id="paint1_linear_2088_1504" x1="-85.0941" y1="-1.48299" x2="1936.5" y2="167" gradientUnits="userSpaceOnUse">
<stop stop-color="#603813"/>
<stop offset="0.193368" stop-color="#D2A558"/>
<stop offset="0.495192" stop-color="#6C461D"/>
<stop offset="0.817308" stop-color="#F7D478"/>
<stop offset="1" stop-color="#603813"/>
</linearGradient>
<clipPath id="clip0_2088_1504">
<rect width="1920" height="191" fill="white"/>
</clipPath>
</defs>
</svg>
