<svg width="43" height="33" viewBox="0 0 43 33" fill="none" xmlns="http://www.w3.org/2000/svg">
<path d="M42.1041 10.7501C40.4073 10.7501 38.8555 10.8605 37.4038 11.0601C37.0044 8.06208 36.0115 5.09903 34.3829 2.24314C34.1711 1.87134 33.7197 1.69984 33.3208 1.83808C30.8863 2.64937 28.6521 3.79223 26.6402 5.20627C25.3909 3.40775 23.8822 1.71454 22.0739 0.207357C21.7415 -0.0691191 21.2585 -0.0691191 20.9261 0.207357C19.1176 1.71463 17.609 3.40775 16.3597 5.20627C14.3478 3.79206 12.1137 2.64937 9.67912 1.83808C9.27666 1.70077 8.82877 1.87218 8.61705 2.24314C6.98834 5.09962 5.99539 8.06225 5.59605 11.06C4.14429 10.8604 2.5926 10.7501 0.895861 10.7501C0.400689 10.7501 0 11.1508 0 11.6459C0 17.9255 1.86865 22.8465 5.7127 26.6905C9.40272 30.3797 14.7147 32.2501 21.5 32.2501C28.2853 32.2501 33.5973 30.3797 37.2873 26.6905C41.1313 22.8464 43 17.9255 43 11.6459C43 11.1508 42.5993 10.7501 42.1041 10.7501ZM33.1861 3.78291C34.5037 6.25381 35.3107 8.79812 35.6435 11.3639C33.5808 11.7971 31.7542 12.4607 30.1258 13.387C29.7023 11.0767 28.8478 8.82844 27.6092 6.70918C29.299 5.51273 31.1626 4.52264 33.1861 3.78291ZM9.81391 3.78291C11.8374 4.52273 13.701 5.51282 15.3908 6.70909C14.1523 8.82835 13.2978 11.0767 12.8743 13.387C11.2456 12.4607 9.41927 11.7969 7.35636 11.3638C7.68902 8.79862 8.49611 6.25415 9.81391 3.78291ZM6.97944 25.4237C3.62527 22.0687 1.96834 17.9614 1.80566 12.5523C6.34922 12.6545 9.80627 13.5515 12.6014 15.3223C12.5374 16.1361 12.5242 16.9538 12.5679 17.7724C12.8297 22.6644 15.0092 27.0263 18.7368 30.3276C13.7669 29.8916 9.81282 28.2564 6.97944 25.4237ZM21.5 30.2668C17.1573 27.1778 14.6273 22.7284 14.356 17.6761C14.0551 12.0168 16.6499 6.36979 21.5 2.07693C26.3501 6.36979 28.9449 12.0168 28.644 17.6762C28.3727 22.7284 25.8427 27.1778 21.5 30.2668ZM36.0206 25.4237C33.1872 28.2564 29.2331 29.8916 24.2632 30.3275C27.9908 27.0262 30.1703 22.6644 30.4321 17.7724C30.4758 16.9538 30.4626 16.136 30.3986 15.3222C33.1937 13.5514 36.6508 12.6545 41.1943 12.5522C41.0317 17.9614 39.3746 22.0687 36.0206 25.4237Z" fill="white"/>
</svg>
