<svg width="43" height="33" viewBox="0 0 43 33" fill="none" xmlns="http://www.w3.org/2000/svg">
<path d="M42.1041 11.1251C40.4073 11.1251 38.8555 11.2355 37.4038 11.4351C37.0044 8.43708 36.0115 5.47403 34.3829 2.61814C34.1711 2.24634 33.7197 2.07484 33.3208 2.21308C30.8863 3.02437 28.6521 4.16723 26.6402 5.58127C25.3909 3.78275 23.8822 2.08954 22.0739 0.582357C21.7415 0.305881 21.2585 0.305881 20.9261 0.582357C19.1176 2.08963 17.609 3.78275 16.3597 5.58127C14.3478 4.16706 12.1137 3.02437 9.67912 2.21308C9.27666 2.07577 8.82877 2.24718 8.61705 2.61814C6.98834 5.47462 5.99539 8.43725 5.59605 11.435C4.14429 11.2354 2.5926 11.1251 0.895861 11.1251C0.400689 11.1251 0 11.5258 0 12.0209C0 18.3005 1.86865 23.2215 5.7127 27.0655C9.40272 30.7547 14.7147 32.6251 21.5 32.6251C28.2853 32.6251 33.5973 30.7547 37.2873 27.0655C41.1313 23.2214 43 18.3005 43 12.0209C43 11.5258 42.5993 11.1251 42.1041 11.1251ZM33.1861 4.15791C34.5037 6.62881 35.3107 9.17312 35.6435 11.7389C33.5808 12.1721 31.7542 12.8357 30.1258 13.762C29.7023 11.4517 28.8478 9.20344 27.6092 7.08418C29.299 5.88773 31.1626 4.89764 33.1861 4.15791ZM9.81391 4.15791C11.8374 4.89773 13.701 5.88782 15.3908 7.08409C14.1523 9.20335 13.2978 11.4517 12.8743 13.762C11.2456 12.8357 9.41927 12.1719 7.35636 11.7388C7.68902 9.17362 8.49611 6.62915 9.81391 4.15791ZM6.97944 25.7987C3.62527 22.4437 1.96834 18.3364 1.80566 12.9273C6.34922 13.0295 9.80627 13.9265 12.6014 15.6973C12.5374 16.5111 12.5242 17.3288 12.5679 18.1474C12.8297 23.0394 15.0092 27.4013 18.7368 30.7026C13.7669 30.2666 9.81282 28.6314 6.97944 25.7987ZM21.5 30.6418C17.1573 27.5528 14.6273 23.1034 14.356 18.0511C14.0551 12.3918 16.6499 6.74479 21.5 2.45193C26.3501 6.74479 28.9449 12.3918 28.644 18.0512C28.3727 23.1034 25.8427 27.5528 21.5 30.6418ZM36.0206 25.7987C33.1872 28.6314 29.2331 30.2666 24.2632 30.7025C27.9908 27.4012 30.1703 23.0394 30.4321 18.1474C30.4758 17.3288 30.4626 16.511 30.3986 15.6972C33.1937 13.9264 36.6508 13.0295 41.1943 12.9272C41.0317 18.3364 39.3746 22.4437 36.0206 25.7987Z" fill="#A87E09"/>
</svg>
