<svg width="147" height="27" viewBox="0 0 147 27" fill="none" xmlns="http://www.w3.org/2000/svg">
<path d="M12.5489 2.92705C12.8483 2.00574 14.1517 2.00574 14.4511 2.92705L16.3064 8.63729C16.4403 9.04931 16.8243 9.32827 17.2575 9.32827H23.2616C24.2303 9.32827 24.6331 10.5679 23.8494 11.1373L18.9919 14.6664C18.6415 14.9211 18.4948 15.3724 18.6287 15.7844L20.484 21.4947C20.7834 22.416 19.7289 23.1821 18.9452 22.6127L14.0878 19.0836C13.7373 18.8289 13.2627 18.8289 12.9122 19.0836L8.0548 22.6127C7.27108 23.1821 6.2166 22.416 6.51596 21.4947L8.37132 15.7844C8.5052 15.3724 8.35854 14.9211 8.00805 14.6664L3.15064 11.1373C2.36692 10.5679 2.7697 9.32827 3.73842 9.32827H9.74252C10.1757 9.32827 10.5597 9.04931 10.6936 8.63729L12.5489 2.92705Z" fill="#FFB700"/>
<path d="M42.5489 2.92705C42.8483 2.00574 44.1517 2.00574 44.4511 2.92705L46.3064 8.63729C46.4403 9.04931 46.8243 9.32827 47.2575 9.32827H53.2616C54.2303 9.32827 54.6331 10.5679 53.8494 11.1373L48.9919 14.6664C48.6415 14.9211 48.4948 15.3724 48.6287 15.7844L50.484 21.4947C50.7834 22.416 49.7289 23.1821 48.9452 22.6127L44.0878 19.0836C43.7373 18.8289 43.2627 18.8289 42.9122 19.0836L38.0548 22.6127C37.2711 23.1821 36.2166 22.416 36.516 21.4947L38.3713 15.7844C38.5052 15.3724 38.3585 14.9211 38.0081 14.6664L33.1506 11.1373C32.3669 10.5679 32.7697 9.32827 33.7384 9.32827H39.7425C40.1757 9.32827 40.5597 9.04931 40.6936 8.63729L42.5489 2.92705Z" fill="#FFB700"/>
<path d="M72.5489 2.92705C72.8483 2.00574 74.1517 2.00574 74.4511 2.92705L76.3064 8.63729C76.4403 9.04931 76.8243 9.32827 77.2575 9.32827H83.2616C84.2303 9.32827 84.6331 10.5679 83.8494 11.1373L78.9919 14.6664C78.6415 14.9211 78.4948 15.3724 78.6287 15.7844L80.484 21.4947C80.7834 22.416 79.7289 23.1821 78.9452 22.6127L74.0878 19.0836C73.7373 18.8289 73.2627 18.8289 72.9122 19.0836L68.0548 22.6127C67.2711 23.1821 66.2166 22.416 66.516 21.4947L68.3713 15.7844C68.5052 15.3724 68.3585 14.9211 68.0081 14.6664L63.1506 11.1373C62.3669 10.5679 62.7697 9.32827 63.7384 9.32827H69.7425C70.1757 9.32827 70.5597 9.04931 70.6936 8.63729L72.5489 2.92705Z" fill="#FFB700"/>
<path d="M102.549 2.92705C102.848 2.00574 104.152 2.00574 104.451 2.92705L106.306 8.63729C106.44 9.04931 106.824 9.32827 107.257 9.32827H113.262C114.23 9.32827 114.633 10.5679 113.849 11.1373L108.992 14.6664C108.641 14.9211 108.495 15.3724 108.629 15.7844L110.484 21.4947C110.783 22.416 109.729 23.1821 108.945 22.6127L104.088 19.0836C103.737 18.8289 103.263 18.8289 102.912 19.0836L98.0548 22.6127C97.2711 23.1821 96.2166 22.416 96.516 21.4947L98.3713 15.7844C98.5052 15.3724 98.3585 14.9211 98.0081 14.6664L93.1506 11.1373C92.3669 10.5679 92.7697 9.32827 93.7384 9.32827H99.7425C100.176 9.32827 100.56 9.04931 100.694 8.63729L102.549 2.92705Z" fill="#FFB700"/>
<path d="M132.549 2.92705C132.848 2.00574 134.152 2.00574 134.451 2.92705L136.306 8.63729C136.44 9.04931 136.824 9.32827 137.257 9.32827H143.262C144.23 9.32827 144.633 10.5679 143.849 11.1373L138.992 14.6664C138.641 14.9211 138.495 15.3724 138.629 15.7844L140.484 21.4947C140.783 22.416 139.729 23.1821 138.945 22.6127L134.088 19.0836C133.737 18.8289 133.263 18.8289 132.912 19.0836L128.055 22.6127C127.271 23.1821 126.217 22.416 126.516 21.4947L128.371 15.7844C128.505 15.3724 128.359 14.9211 128.008 14.6664L123.151 11.1373C122.367 10.5679 122.77 9.32827 123.738 9.32827H129.743C130.176 9.32827 130.56 9.04931 130.694 8.63729L132.549 2.92705Z" fill="#FFB700"/>
</svg>
